G04 #@! TF.FileFunction,Soldermask,Bot*
%FSLAX46Y46*%
G04 Gerber Fmt 4.6, Leading zero omitted, Abs format (unit mm)*
G04 Created by KiCad (PCBNEW 4.0.7) date 05/05/18 03:18:50*
%MOMM*%
%LPD*%
G01*
G04 APERTURE LIST*
%ADD10C,0.100000*%
%ADD11C,1.800000*%
%ADD12C,1.524000*%
%ADD13R,1.600000X2.400000*%
%ADD14O,1.600000X2.400000*%
%ADD15C,2.340000*%
%ADD16R,2.000000X1.600000*%
%ADD17R,2.200000X2.200000*%
%ADD18O,2.200000X2.200000*%
%ADD19R,1.700000X1.700000*%
%ADD20O,1.700000X1.700000*%
%ADD21R,2.000000X1.700000*%
%ADD22R,1.700000X2.000000*%
%ADD23O,1.727200X3.048000*%
%ADD24R,1.600000X1.600000*%
%ADD25O,1.600000X1.600000*%
%ADD26R,2.400000X1.600000*%
%ADD27O,2.400000X1.600000*%
%ADD28C,1.600000*%
%ADD29R,3.000000X3.000000*%
%ADD30C,3.000000*%
G04 APERTURE END LIST*
D10*
D11*
X195580000Y-137620000D03*
X198080000Y-137620000D03*
X193080000Y-137620000D03*
X193080000Y-131620000D03*
X195580000Y-131620000D03*
X198080000Y-131620000D03*
D12*
X82550000Y-201930000D03*
X85090000Y-201930000D03*
X80010000Y-201930000D03*
X77470000Y-201930000D03*
X85090000Y-125730000D03*
X80010000Y-125730000D03*
D13*
X67056000Y-63500000D03*
D14*
X84836000Y-55880000D03*
X69596000Y-63500000D03*
X82296000Y-55880000D03*
X72136000Y-63500000D03*
X79756000Y-55880000D03*
X74676000Y-63500000D03*
X77216000Y-55880000D03*
X77216000Y-63500000D03*
X74676000Y-55880000D03*
X79756000Y-63500000D03*
X72136000Y-55880000D03*
X82296000Y-63500000D03*
X69596000Y-55880000D03*
X84836000Y-63500000D03*
X67056000Y-55880000D03*
D12*
X49530000Y-201930000D03*
X52070000Y-201930000D03*
X46990000Y-201930000D03*
X44450000Y-201930000D03*
X52070000Y-125730000D03*
X46990000Y-125730000D03*
X115570000Y-201930000D03*
X118110000Y-201930000D03*
X113030000Y-201930000D03*
X110490000Y-201930000D03*
X118110000Y-125730000D03*
X113030000Y-125730000D03*
X148590000Y-201930000D03*
X151130000Y-201930000D03*
X146050000Y-201930000D03*
X143510000Y-201930000D03*
X151130000Y-125730000D03*
X146050000Y-125730000D03*
X180340000Y-201930000D03*
X182880000Y-201930000D03*
X177800000Y-201930000D03*
X175260000Y-201930000D03*
X182880000Y-125730000D03*
X177800000Y-125730000D03*
X213360000Y-201930000D03*
X215900000Y-201930000D03*
X210820000Y-201930000D03*
X208280000Y-201930000D03*
X215900000Y-125730000D03*
X210820000Y-125730000D03*
X246380000Y-201930000D03*
X248920000Y-201930000D03*
X243840000Y-201930000D03*
X241300000Y-201930000D03*
X248920000Y-125730000D03*
X243840000Y-125730000D03*
X279400000Y-201930000D03*
X281940000Y-201930000D03*
X276860000Y-201930000D03*
X274320000Y-201930000D03*
X281940000Y-125730000D03*
X276860000Y-125730000D03*
X312420000Y-201930000D03*
X314960000Y-201930000D03*
X309880000Y-201930000D03*
X307340000Y-201930000D03*
X314960000Y-125730000D03*
X309880000Y-125730000D03*
X345440000Y-201930000D03*
X347980000Y-201930000D03*
X342900000Y-201930000D03*
X340360000Y-201930000D03*
X347980000Y-125730000D03*
X342900000Y-125730000D03*
D15*
X93980000Y-109060000D03*
X93980000Y-104060000D03*
X93980000Y-99060000D03*
X93980000Y-86200000D03*
X93980000Y-81200000D03*
X93980000Y-76200000D03*
X127000000Y-109060000D03*
X127000000Y-104060000D03*
X127000000Y-99060000D03*
X127000000Y-86200000D03*
X127000000Y-81200000D03*
X127000000Y-76200000D03*
X160020000Y-109060000D03*
X160020000Y-104060000D03*
X160020000Y-99060000D03*
X160020000Y-63340000D03*
X160020000Y-58340000D03*
X160020000Y-53340000D03*
X160020000Y-86200000D03*
X160020000Y-81200000D03*
X160020000Y-76200000D03*
X191770000Y-109060000D03*
X191770000Y-104060000D03*
X191770000Y-99060000D03*
X191770000Y-63340000D03*
X191770000Y-58340000D03*
X191770000Y-53340000D03*
X191770000Y-86200000D03*
X191770000Y-81200000D03*
X191770000Y-76200000D03*
X60960000Y-109060000D03*
X60960000Y-104060000D03*
X60960000Y-99060000D03*
X60960000Y-86200000D03*
X60960000Y-81200000D03*
X60960000Y-76200000D03*
D11*
X64770000Y-126190000D03*
X67270000Y-126190000D03*
X62270000Y-126190000D03*
X62270000Y-120190000D03*
X64770000Y-120190000D03*
X67270000Y-120190000D03*
X64770000Y-137620000D03*
X67270000Y-137620000D03*
X62270000Y-137620000D03*
X62270000Y-131620000D03*
X64770000Y-131620000D03*
X67270000Y-131620000D03*
X64770000Y-149050000D03*
X67270000Y-149050000D03*
X62270000Y-149050000D03*
X62270000Y-143050000D03*
X64770000Y-143050000D03*
X67270000Y-143050000D03*
X64770000Y-160480000D03*
X67270000Y-160480000D03*
X62270000Y-160480000D03*
X62270000Y-154480000D03*
X64770000Y-154480000D03*
X67270000Y-154480000D03*
X64770000Y-171910000D03*
X67270000Y-171910000D03*
X62270000Y-171910000D03*
X62270000Y-165910000D03*
X64770000Y-165910000D03*
X67270000Y-165910000D03*
X64770000Y-183340000D03*
X67270000Y-183340000D03*
X62270000Y-183340000D03*
X62270000Y-177340000D03*
X64770000Y-177340000D03*
X67270000Y-177340000D03*
X64770000Y-194770000D03*
X67270000Y-194770000D03*
X62270000Y-194770000D03*
X62270000Y-188770000D03*
X64770000Y-188770000D03*
X67270000Y-188770000D03*
X64770000Y-206200000D03*
X67270000Y-206200000D03*
X62270000Y-206200000D03*
X62270000Y-200200000D03*
X64770000Y-200200000D03*
X67270000Y-200200000D03*
X97790000Y-126190000D03*
X100290000Y-126190000D03*
X95290000Y-126190000D03*
X95290000Y-120190000D03*
X97790000Y-120190000D03*
X100290000Y-120190000D03*
X97790000Y-137620000D03*
X100290000Y-137620000D03*
X95290000Y-137620000D03*
X95290000Y-131620000D03*
X97790000Y-131620000D03*
X100290000Y-131620000D03*
X97790000Y-149050000D03*
X100290000Y-149050000D03*
X95290000Y-149050000D03*
X95290000Y-143050000D03*
X97790000Y-143050000D03*
X100290000Y-143050000D03*
X97790000Y-160480000D03*
X100290000Y-160480000D03*
X95290000Y-160480000D03*
X95290000Y-154480000D03*
X97790000Y-154480000D03*
X100290000Y-154480000D03*
X97790000Y-171910000D03*
X100290000Y-171910000D03*
X95290000Y-171910000D03*
X95290000Y-165910000D03*
X97790000Y-165910000D03*
X100290000Y-165910000D03*
X97790000Y-183340000D03*
X100290000Y-183340000D03*
X95290000Y-183340000D03*
X95290000Y-177340000D03*
X97790000Y-177340000D03*
X100290000Y-177340000D03*
X97790000Y-194770000D03*
X100290000Y-194770000D03*
X95290000Y-194770000D03*
X95290000Y-188770000D03*
X97790000Y-188770000D03*
X100290000Y-188770000D03*
X97790000Y-206200000D03*
X100290000Y-206200000D03*
X95290000Y-206200000D03*
X95290000Y-200200000D03*
X97790000Y-200200000D03*
X100290000Y-200200000D03*
X130810000Y-126190000D03*
X133310000Y-126190000D03*
X128310000Y-126190000D03*
X128310000Y-120190000D03*
X130810000Y-120190000D03*
X133310000Y-120190000D03*
X130810000Y-137620000D03*
X133310000Y-137620000D03*
X128310000Y-137620000D03*
X128310000Y-131620000D03*
X130810000Y-131620000D03*
X133310000Y-131620000D03*
X130810000Y-149050000D03*
X133310000Y-149050000D03*
X128310000Y-149050000D03*
X128310000Y-143050000D03*
X130810000Y-143050000D03*
X133310000Y-143050000D03*
X130810000Y-160480000D03*
X133310000Y-160480000D03*
X128310000Y-160480000D03*
X128310000Y-154480000D03*
X130810000Y-154480000D03*
X133310000Y-154480000D03*
X130810000Y-171910000D03*
X133310000Y-171910000D03*
X128310000Y-171910000D03*
X128310000Y-165910000D03*
X130810000Y-165910000D03*
X133310000Y-165910000D03*
X130810000Y-183340000D03*
X133310000Y-183340000D03*
X128310000Y-183340000D03*
X128310000Y-177340000D03*
X130810000Y-177340000D03*
X133310000Y-177340000D03*
X130810000Y-194770000D03*
X133310000Y-194770000D03*
X128310000Y-194770000D03*
X128310000Y-188770000D03*
X130810000Y-188770000D03*
X133310000Y-188770000D03*
X130810000Y-206200000D03*
X133310000Y-206200000D03*
X128310000Y-206200000D03*
X128310000Y-200200000D03*
X130810000Y-200200000D03*
X133310000Y-200200000D03*
X163830000Y-126190000D03*
X166330000Y-126190000D03*
X161330000Y-126190000D03*
X161330000Y-120190000D03*
X163830000Y-120190000D03*
X166330000Y-120190000D03*
X163830000Y-137620000D03*
X166330000Y-137620000D03*
X161330000Y-137620000D03*
X161330000Y-131620000D03*
X163830000Y-131620000D03*
X166330000Y-131620000D03*
X163830000Y-149050000D03*
X166330000Y-149050000D03*
X161330000Y-149050000D03*
X161330000Y-143050000D03*
X163830000Y-143050000D03*
X166330000Y-143050000D03*
X163830000Y-160480000D03*
X166330000Y-160480000D03*
X161330000Y-160480000D03*
X161330000Y-154480000D03*
X163830000Y-154480000D03*
X166330000Y-154480000D03*
X163830000Y-171910000D03*
X166330000Y-171910000D03*
X161330000Y-171910000D03*
X161330000Y-165910000D03*
X163830000Y-165910000D03*
X166330000Y-165910000D03*
X163830000Y-183340000D03*
X166330000Y-183340000D03*
X161330000Y-183340000D03*
X161330000Y-177340000D03*
X163830000Y-177340000D03*
X166330000Y-177340000D03*
X163830000Y-194770000D03*
X166330000Y-194770000D03*
X161330000Y-194770000D03*
X161330000Y-188770000D03*
X163830000Y-188770000D03*
X166330000Y-188770000D03*
X163830000Y-206200000D03*
X166330000Y-206200000D03*
X161330000Y-206200000D03*
X161330000Y-200200000D03*
X163830000Y-200200000D03*
X166330000Y-200200000D03*
X195580000Y-126190000D03*
X198080000Y-126190000D03*
X193080000Y-126190000D03*
X193080000Y-120190000D03*
X195580000Y-120190000D03*
X198080000Y-120190000D03*
X195580000Y-149050000D03*
X198080000Y-149050000D03*
X193080000Y-149050000D03*
X193080000Y-143050000D03*
X195580000Y-143050000D03*
X198080000Y-143050000D03*
X195580000Y-160480000D03*
X198080000Y-160480000D03*
X193080000Y-160480000D03*
X193080000Y-154480000D03*
X195580000Y-154480000D03*
X198080000Y-154480000D03*
X195580000Y-171910000D03*
X198080000Y-171910000D03*
X193080000Y-171910000D03*
X193080000Y-165910000D03*
X195580000Y-165910000D03*
X198080000Y-165910000D03*
X195580000Y-183340000D03*
X198080000Y-183340000D03*
X193080000Y-183340000D03*
X193080000Y-177340000D03*
X195580000Y-177340000D03*
X198080000Y-177340000D03*
X195580000Y-194770000D03*
X198080000Y-194770000D03*
X193080000Y-194770000D03*
X193080000Y-188770000D03*
X195580000Y-188770000D03*
X198080000Y-188770000D03*
X195580000Y-206200000D03*
X198080000Y-206200000D03*
X193080000Y-206200000D03*
X193080000Y-200200000D03*
X195580000Y-200200000D03*
X198080000Y-200200000D03*
X228600000Y-183340000D03*
X231100000Y-183340000D03*
X226100000Y-183340000D03*
X226100000Y-177340000D03*
X228600000Y-177340000D03*
X231100000Y-177340000D03*
X228600000Y-194770000D03*
X231100000Y-194770000D03*
X226100000Y-194770000D03*
X226100000Y-188770000D03*
X228600000Y-188770000D03*
X231100000Y-188770000D03*
X228600000Y-206200000D03*
X231100000Y-206200000D03*
X226100000Y-206200000D03*
X226100000Y-200200000D03*
X228600000Y-200200000D03*
X231100000Y-200200000D03*
X261620000Y-183340000D03*
X264120000Y-183340000D03*
X259120000Y-183340000D03*
X259120000Y-177340000D03*
X261620000Y-177340000D03*
X264120000Y-177340000D03*
X261620000Y-194770000D03*
X264120000Y-194770000D03*
X259120000Y-194770000D03*
X259120000Y-188770000D03*
X261620000Y-188770000D03*
X264120000Y-188770000D03*
X261620000Y-206200000D03*
X264120000Y-206200000D03*
X259120000Y-206200000D03*
X259120000Y-200200000D03*
X261620000Y-200200000D03*
X264120000Y-200200000D03*
X294640000Y-183340000D03*
X297140000Y-183340000D03*
X292140000Y-183340000D03*
X292140000Y-177340000D03*
X294640000Y-177340000D03*
X297140000Y-177340000D03*
X294640000Y-194770000D03*
X297140000Y-194770000D03*
X292140000Y-194770000D03*
X292140000Y-188770000D03*
X294640000Y-188770000D03*
X297140000Y-188770000D03*
X294640000Y-206200000D03*
X297140000Y-206200000D03*
X292140000Y-206200000D03*
X292140000Y-200200000D03*
X294640000Y-200200000D03*
X297140000Y-200200000D03*
X327660000Y-183340000D03*
X330160000Y-183340000D03*
X325160000Y-183340000D03*
X325160000Y-177340000D03*
X327660000Y-177340000D03*
X330160000Y-177340000D03*
X327660000Y-194770000D03*
X330160000Y-194770000D03*
X325160000Y-194770000D03*
X325160000Y-188770000D03*
X327660000Y-188770000D03*
X330160000Y-188770000D03*
X327660000Y-206200000D03*
X330160000Y-206200000D03*
X325160000Y-206200000D03*
X325160000Y-200200000D03*
X327660000Y-200200000D03*
X330160000Y-200200000D03*
X360680000Y-183340000D03*
X363180000Y-183340000D03*
X358180000Y-183340000D03*
X358180000Y-177340000D03*
X360680000Y-177340000D03*
X363180000Y-177340000D03*
X360680000Y-194770000D03*
X363180000Y-194770000D03*
X358180000Y-194770000D03*
X358180000Y-188770000D03*
X360680000Y-188770000D03*
X363180000Y-188770000D03*
X360680000Y-206200000D03*
X363180000Y-206200000D03*
X358180000Y-206200000D03*
X358180000Y-200200000D03*
X360680000Y-200200000D03*
X363180000Y-200200000D03*
D16*
X52006000Y-198628000D03*
X48006000Y-198628000D03*
X86582000Y-198628000D03*
X82582000Y-198628000D03*
X117665000Y-198628000D03*
X113665000Y-198628000D03*
X150622000Y-198628000D03*
X146622000Y-198628000D03*
X182562000Y-198628000D03*
X178562000Y-198628000D03*
X217360000Y-198628000D03*
X213360000Y-198628000D03*
X250380000Y-198628000D03*
X246380000Y-198628000D03*
X283400000Y-198628000D03*
X279400000Y-198628000D03*
X316420000Y-198628000D03*
X312420000Y-198628000D03*
X349440000Y-198628000D03*
X345440000Y-198628000D03*
D17*
X261874000Y-67310000D03*
D18*
X261874000Y-54610000D03*
D19*
X265938000Y-108077000D03*
D20*
X263398000Y-108077000D03*
X260858000Y-108077000D03*
X258318000Y-108077000D03*
X255778000Y-108077000D03*
D19*
X273685000Y-108077000D03*
D20*
X271145000Y-108077000D03*
X268605000Y-108077000D03*
D19*
X235585000Y-71120000D03*
D20*
X238125000Y-71120000D03*
X240665000Y-71120000D03*
X243205000Y-71120000D03*
X245745000Y-71120000D03*
D19*
X260985000Y-71120000D03*
D20*
X263525000Y-71120000D03*
D19*
X250825000Y-71120000D03*
D20*
X253365000Y-71120000D03*
X255905000Y-71120000D03*
D19*
X256540000Y-54610000D03*
D20*
X256540000Y-57150000D03*
D21*
X69945000Y-117475000D03*
X65945000Y-117475000D03*
X69945000Y-128905000D03*
X65945000Y-128905000D03*
X69945000Y-140335000D03*
X65945000Y-140335000D03*
X69945000Y-151765000D03*
X65945000Y-151765000D03*
X69945000Y-163195000D03*
X65945000Y-163195000D03*
X69945000Y-174625000D03*
X65945000Y-174625000D03*
X69945000Y-186055000D03*
X65945000Y-186055000D03*
X69945000Y-197485000D03*
X65945000Y-197485000D03*
X102806000Y-117348000D03*
X98806000Y-117348000D03*
X102965000Y-128905000D03*
X98965000Y-128905000D03*
X102965000Y-140335000D03*
X98965000Y-140335000D03*
X102965000Y-151765000D03*
X98965000Y-151765000D03*
X102965000Y-163195000D03*
X98965000Y-163195000D03*
X102965000Y-174625000D03*
X98965000Y-174625000D03*
X102965000Y-186055000D03*
X98965000Y-186055000D03*
X102965000Y-197485000D03*
X98965000Y-197485000D03*
X135985000Y-117475000D03*
X131985000Y-117475000D03*
X135985000Y-128905000D03*
X131985000Y-128905000D03*
X135985000Y-140335000D03*
X131985000Y-140335000D03*
X135985000Y-151765000D03*
X131985000Y-151765000D03*
X135985000Y-163195000D03*
X131985000Y-163195000D03*
X135985000Y-174625000D03*
X131985000Y-174625000D03*
X135985000Y-186055000D03*
X131985000Y-186055000D03*
X135985000Y-197485000D03*
X131985000Y-197485000D03*
X169024682Y-128883562D03*
X165024682Y-128883562D03*
X169024682Y-140313562D03*
X165024682Y-140313562D03*
X169024682Y-151743562D03*
X165024682Y-151743562D03*
X169024682Y-163173562D03*
X165024682Y-163173562D03*
X169024682Y-174603562D03*
X165024682Y-174603562D03*
X169024682Y-186033562D03*
X165024682Y-186033562D03*
X169024682Y-197463562D03*
X165024682Y-197463562D03*
X200755000Y-117475000D03*
X196755000Y-117475000D03*
X200755000Y-128905000D03*
X196755000Y-128905000D03*
X200755000Y-140335000D03*
X196755000Y-140335000D03*
X200755000Y-151765000D03*
X196755000Y-151765000D03*
X200755000Y-163195000D03*
X196755000Y-163195000D03*
X200755000Y-174625000D03*
X196755000Y-174625000D03*
X200755000Y-186055000D03*
X196755000Y-186055000D03*
X200755000Y-197485000D03*
X196755000Y-197485000D03*
X233775000Y-174625000D03*
X229775000Y-174625000D03*
X233775000Y-186055000D03*
X229775000Y-186055000D03*
X233775000Y-197485000D03*
X229775000Y-197485000D03*
X266795000Y-174625000D03*
X262795000Y-174625000D03*
X266795000Y-186055000D03*
X262795000Y-186055000D03*
X266795000Y-197485000D03*
X262795000Y-197485000D03*
X299815000Y-174625000D03*
X295815000Y-174625000D03*
X299815000Y-186055000D03*
X295815000Y-186055000D03*
X299815000Y-197485000D03*
X295815000Y-197485000D03*
X333089000Y-174625000D03*
X329089000Y-174625000D03*
X333089000Y-186055000D03*
X329089000Y-186055000D03*
X333089000Y-197485000D03*
X329089000Y-197485000D03*
X365855000Y-174625000D03*
X361855000Y-174625000D03*
X365855000Y-186055000D03*
X361855000Y-186055000D03*
X365855000Y-197485000D03*
X361855000Y-197485000D03*
D22*
X255905000Y-74803000D03*
X255905000Y-78803000D03*
D21*
X240951000Y-64135000D03*
X244951000Y-64135000D03*
X244951000Y-66802000D03*
X240951000Y-66802000D03*
D23*
X215218000Y-72390000D03*
X220218000Y-72390000D03*
X215218000Y-84890000D03*
X220218000Y-84890000D03*
D24*
X256540000Y-66548000D03*
D25*
X248920000Y-64008000D03*
X256540000Y-64008000D03*
X248920000Y-66548000D03*
D12*
X225428000Y-100206000D03*
X227968000Y-100206000D03*
X230508000Y-100206000D03*
X233048000Y-100206000D03*
X235588000Y-100206000D03*
X238128000Y-100206000D03*
X240668000Y-100206000D03*
X243208000Y-100206000D03*
X245748000Y-100206000D03*
X248288000Y-100206000D03*
X250828000Y-100206000D03*
X253368000Y-100206000D03*
X255908000Y-100206000D03*
X258448000Y-100206000D03*
X260988000Y-100206000D03*
X263528000Y-100206000D03*
X266068000Y-100206000D03*
X268608000Y-100206000D03*
X271148000Y-100206000D03*
X273688000Y-100206000D03*
X273688000Y-84966000D03*
X271148000Y-84966000D03*
X268608000Y-84966000D03*
X266068000Y-84966000D03*
X263528000Y-84966000D03*
X260988000Y-84966000D03*
X258448000Y-84966000D03*
X255908000Y-84966000D03*
X253368000Y-84966000D03*
X250828000Y-84966000D03*
X248288000Y-84966000D03*
X245748000Y-84966000D03*
X243208000Y-84966000D03*
X240668000Y-84966000D03*
X238128000Y-84966000D03*
X235588000Y-84966000D03*
X233048000Y-84966000D03*
X230508000Y-84966000D03*
X227968000Y-84966000D03*
X225428000Y-84966000D03*
D26*
X225552000Y-146812000D03*
D27*
X233172000Y-164592000D03*
X225552000Y-149352000D03*
X233172000Y-162052000D03*
X225552000Y-151892000D03*
X233172000Y-159512000D03*
X225552000Y-154432000D03*
X233172000Y-156972000D03*
X225552000Y-156972000D03*
X233172000Y-154432000D03*
X225552000Y-159512000D03*
X233172000Y-151892000D03*
X225552000Y-162052000D03*
X233172000Y-149352000D03*
X225552000Y-164592000D03*
X233172000Y-146812000D03*
D13*
X103124000Y-63500000D03*
D14*
X120904000Y-55880000D03*
X105664000Y-63500000D03*
X118364000Y-55880000D03*
X108204000Y-63500000D03*
X115824000Y-55880000D03*
X110744000Y-63500000D03*
X113284000Y-55880000D03*
X113284000Y-63500000D03*
X110744000Y-55880000D03*
X115824000Y-63500000D03*
X108204000Y-55880000D03*
X118364000Y-63500000D03*
X105664000Y-55880000D03*
X120904000Y-63500000D03*
X103124000Y-55880000D03*
D13*
X62230000Y-219710000D03*
D14*
X80010000Y-212090000D03*
X64770000Y-219710000D03*
X77470000Y-212090000D03*
X67310000Y-219710000D03*
X74930000Y-212090000D03*
X69850000Y-219710000D03*
X72390000Y-212090000D03*
X72390000Y-219710000D03*
X69850000Y-212090000D03*
X74930000Y-219710000D03*
X67310000Y-212090000D03*
X77470000Y-219710000D03*
X64770000Y-212090000D03*
X80010000Y-219710000D03*
X62230000Y-212090000D03*
D13*
X95250000Y-219710000D03*
D14*
X113030000Y-212090000D03*
X97790000Y-219710000D03*
X110490000Y-212090000D03*
X100330000Y-219710000D03*
X107950000Y-212090000D03*
X102870000Y-219710000D03*
X105410000Y-212090000D03*
X105410000Y-219710000D03*
X102870000Y-212090000D03*
X107950000Y-219710000D03*
X100330000Y-212090000D03*
X110490000Y-219710000D03*
X97790000Y-212090000D03*
X113030000Y-219710000D03*
X95250000Y-212090000D03*
D13*
X128270000Y-219710000D03*
D14*
X146050000Y-212090000D03*
X130810000Y-219710000D03*
X143510000Y-212090000D03*
X133350000Y-219710000D03*
X140970000Y-212090000D03*
X135890000Y-219710000D03*
X138430000Y-212090000D03*
X138430000Y-219710000D03*
X135890000Y-212090000D03*
X140970000Y-219710000D03*
X133350000Y-212090000D03*
X143510000Y-219710000D03*
X130810000Y-212090000D03*
X146050000Y-219710000D03*
X128270000Y-212090000D03*
D13*
X161290000Y-219710000D03*
D14*
X179070000Y-212090000D03*
X163830000Y-219710000D03*
X176530000Y-212090000D03*
X166370000Y-219710000D03*
X173990000Y-212090000D03*
X168910000Y-219710000D03*
X171450000Y-212090000D03*
X171450000Y-219710000D03*
X168910000Y-212090000D03*
X173990000Y-219710000D03*
X166370000Y-212090000D03*
X176530000Y-219710000D03*
X163830000Y-212090000D03*
X179070000Y-219710000D03*
X161290000Y-212090000D03*
D13*
X193040000Y-219710000D03*
D14*
X210820000Y-212090000D03*
X195580000Y-219710000D03*
X208280000Y-212090000D03*
X198120000Y-219710000D03*
X205740000Y-212090000D03*
X200660000Y-219710000D03*
X203200000Y-212090000D03*
X203200000Y-219710000D03*
X200660000Y-212090000D03*
X205740000Y-219710000D03*
X198120000Y-212090000D03*
X208280000Y-219710000D03*
X195580000Y-212090000D03*
X210820000Y-219710000D03*
X193040000Y-212090000D03*
D13*
X248920000Y-219710000D03*
D14*
X266700000Y-212090000D03*
X251460000Y-219710000D03*
X264160000Y-212090000D03*
X254000000Y-219710000D03*
X261620000Y-212090000D03*
X256540000Y-219710000D03*
X259080000Y-212090000D03*
X259080000Y-219710000D03*
X256540000Y-212090000D03*
X261620000Y-219710000D03*
X254000000Y-212090000D03*
X264160000Y-219710000D03*
X251460000Y-212090000D03*
X266700000Y-219710000D03*
X248920000Y-212090000D03*
D13*
X314960000Y-219710000D03*
D14*
X332740000Y-212090000D03*
X317500000Y-219710000D03*
X330200000Y-212090000D03*
X320040000Y-219710000D03*
X327660000Y-212090000D03*
X322580000Y-219710000D03*
X325120000Y-212090000D03*
X325120000Y-219710000D03*
X322580000Y-212090000D03*
X327660000Y-219710000D03*
X320040000Y-212090000D03*
X330200000Y-219710000D03*
X317500000Y-212090000D03*
X332740000Y-219710000D03*
X314960000Y-212090000D03*
D21*
X168910000Y-117348000D03*
X164910000Y-117348000D03*
D24*
X282194000Y-108204000D03*
D28*
X279694000Y-108204000D03*
D24*
X241046000Y-57150000D03*
D28*
X243546000Y-57150000D03*
D29*
X293370000Y-108204000D03*
D30*
X288290000Y-108204000D03*
M02*
