G04 #@! TF.FileFunction,Soldermask,Top*
%FSLAX46Y46*%
G04 Gerber Fmt 4.6, Leading zero omitted, Abs format (unit mm)*
G04 Created by KiCad (PCBNEW 4.0.7) date 05/05/18 03:18:50*
%MOMM*%
%LPD*%
G01*
G04 APERTURE LIST*
%ADD10C,0.100000*%
%ADD11C,1.800000*%
%ADD12C,1.524000*%
%ADD13R,1.600000X2.400000*%
%ADD14O,1.600000X2.400000*%
%ADD15C,2.340000*%
%ADD16R,2.000000X1.100000*%
%ADD17R,1.600000X2.000000*%
%ADD18R,2.200000X2.200000*%
%ADD19O,2.200000X2.200000*%
%ADD20R,1.700000X1.700000*%
%ADD21O,1.700000X1.700000*%
%ADD22O,1.727200X3.048000*%
%ADD23R,1.600000X1.600000*%
%ADD24O,1.600000X1.600000*%
%ADD25R,2.400000X1.600000*%
%ADD26O,2.400000X1.600000*%
%ADD27R,1.100000X2.000000*%
%ADD28C,1.600000*%
%ADD29R,3.000000X3.000000*%
%ADD30C,3.000000*%
G04 APERTURE END LIST*
D10*
D11*
X195580000Y-137620000D03*
X198080000Y-137620000D03*
X193080000Y-137620000D03*
X193080000Y-131620000D03*
X195580000Y-131620000D03*
X198080000Y-131620000D03*
D12*
X82550000Y-201930000D03*
X85090000Y-201930000D03*
X80010000Y-201930000D03*
X77470000Y-201930000D03*
X85090000Y-125730000D03*
X80010000Y-125730000D03*
D13*
X67056000Y-63500000D03*
D14*
X84836000Y-55880000D03*
X69596000Y-63500000D03*
X82296000Y-55880000D03*
X72136000Y-63500000D03*
X79756000Y-55880000D03*
X74676000Y-63500000D03*
X77216000Y-55880000D03*
X77216000Y-63500000D03*
X74676000Y-55880000D03*
X79756000Y-63500000D03*
X72136000Y-55880000D03*
X82296000Y-63500000D03*
X69596000Y-55880000D03*
X84836000Y-63500000D03*
X67056000Y-55880000D03*
D12*
X49530000Y-201930000D03*
X52070000Y-201930000D03*
X46990000Y-201930000D03*
X44450000Y-201930000D03*
X52070000Y-125730000D03*
X46990000Y-125730000D03*
X115570000Y-201930000D03*
X118110000Y-201930000D03*
X113030000Y-201930000D03*
X110490000Y-201930000D03*
X118110000Y-125730000D03*
X113030000Y-125730000D03*
X148590000Y-201930000D03*
X151130000Y-201930000D03*
X146050000Y-201930000D03*
X143510000Y-201930000D03*
X151130000Y-125730000D03*
X146050000Y-125730000D03*
X180340000Y-201930000D03*
X182880000Y-201930000D03*
X177800000Y-201930000D03*
X175260000Y-201930000D03*
X182880000Y-125730000D03*
X177800000Y-125730000D03*
X213360000Y-201930000D03*
X215900000Y-201930000D03*
X210820000Y-201930000D03*
X208280000Y-201930000D03*
X215900000Y-125730000D03*
X210820000Y-125730000D03*
X246380000Y-201930000D03*
X248920000Y-201930000D03*
X243840000Y-201930000D03*
X241300000Y-201930000D03*
X248920000Y-125730000D03*
X243840000Y-125730000D03*
X279400000Y-201930000D03*
X281940000Y-201930000D03*
X276860000Y-201930000D03*
X274320000Y-201930000D03*
X281940000Y-125730000D03*
X276860000Y-125730000D03*
X312420000Y-201930000D03*
X314960000Y-201930000D03*
X309880000Y-201930000D03*
X307340000Y-201930000D03*
X314960000Y-125730000D03*
X309880000Y-125730000D03*
X345440000Y-201930000D03*
X347980000Y-201930000D03*
X342900000Y-201930000D03*
X340360000Y-201930000D03*
X347980000Y-125730000D03*
X342900000Y-125730000D03*
D15*
X93980000Y-109060000D03*
X93980000Y-104060000D03*
X93980000Y-99060000D03*
X93980000Y-86200000D03*
X93980000Y-81200000D03*
X93980000Y-76200000D03*
X127000000Y-109060000D03*
X127000000Y-104060000D03*
X127000000Y-99060000D03*
X127000000Y-86200000D03*
X127000000Y-81200000D03*
X127000000Y-76200000D03*
X160020000Y-109060000D03*
X160020000Y-104060000D03*
X160020000Y-99060000D03*
X160020000Y-63340000D03*
X160020000Y-58340000D03*
X160020000Y-53340000D03*
X160020000Y-86200000D03*
X160020000Y-81200000D03*
X160020000Y-76200000D03*
X191770000Y-109060000D03*
X191770000Y-104060000D03*
X191770000Y-99060000D03*
X191770000Y-63340000D03*
X191770000Y-58340000D03*
X191770000Y-53340000D03*
X191770000Y-86200000D03*
X191770000Y-81200000D03*
X191770000Y-76200000D03*
D16*
X346570000Y-120572000D03*
X346570000Y-118872000D03*
X346570000Y-117172000D03*
X341770000Y-117172000D03*
X341770000Y-118872000D03*
X341770000Y-120572000D03*
X313296000Y-120572000D03*
X313296000Y-118872000D03*
X313296000Y-117172000D03*
X308496000Y-117172000D03*
X308496000Y-118872000D03*
X308496000Y-120572000D03*
D15*
X60960000Y-109060000D03*
X60960000Y-104060000D03*
X60960000Y-99060000D03*
X60960000Y-86200000D03*
X60960000Y-81200000D03*
X60960000Y-76200000D03*
D11*
X64770000Y-126190000D03*
X67270000Y-126190000D03*
X62270000Y-126190000D03*
X62270000Y-120190000D03*
X64770000Y-120190000D03*
X67270000Y-120190000D03*
X64770000Y-137620000D03*
X67270000Y-137620000D03*
X62270000Y-137620000D03*
X62270000Y-131620000D03*
X64770000Y-131620000D03*
X67270000Y-131620000D03*
X64770000Y-149050000D03*
X67270000Y-149050000D03*
X62270000Y-149050000D03*
X62270000Y-143050000D03*
X64770000Y-143050000D03*
X67270000Y-143050000D03*
X64770000Y-160480000D03*
X67270000Y-160480000D03*
X62270000Y-160480000D03*
X62270000Y-154480000D03*
X64770000Y-154480000D03*
X67270000Y-154480000D03*
X64770000Y-171910000D03*
X67270000Y-171910000D03*
X62270000Y-171910000D03*
X62270000Y-165910000D03*
X64770000Y-165910000D03*
X67270000Y-165910000D03*
X64770000Y-183340000D03*
X67270000Y-183340000D03*
X62270000Y-183340000D03*
X62270000Y-177340000D03*
X64770000Y-177340000D03*
X67270000Y-177340000D03*
X64770000Y-194770000D03*
X67270000Y-194770000D03*
X62270000Y-194770000D03*
X62270000Y-188770000D03*
X64770000Y-188770000D03*
X67270000Y-188770000D03*
X64770000Y-206200000D03*
X67270000Y-206200000D03*
X62270000Y-206200000D03*
X62270000Y-200200000D03*
X64770000Y-200200000D03*
X67270000Y-200200000D03*
X97790000Y-126190000D03*
X100290000Y-126190000D03*
X95290000Y-126190000D03*
X95290000Y-120190000D03*
X97790000Y-120190000D03*
X100290000Y-120190000D03*
X97790000Y-137620000D03*
X100290000Y-137620000D03*
X95290000Y-137620000D03*
X95290000Y-131620000D03*
X97790000Y-131620000D03*
X100290000Y-131620000D03*
X97790000Y-149050000D03*
X100290000Y-149050000D03*
X95290000Y-149050000D03*
X95290000Y-143050000D03*
X97790000Y-143050000D03*
X100290000Y-143050000D03*
X97790000Y-160480000D03*
X100290000Y-160480000D03*
X95290000Y-160480000D03*
X95290000Y-154480000D03*
X97790000Y-154480000D03*
X100290000Y-154480000D03*
X97790000Y-171910000D03*
X100290000Y-171910000D03*
X95290000Y-171910000D03*
X95290000Y-165910000D03*
X97790000Y-165910000D03*
X100290000Y-165910000D03*
X97790000Y-183340000D03*
X100290000Y-183340000D03*
X95290000Y-183340000D03*
X95290000Y-177340000D03*
X97790000Y-177340000D03*
X100290000Y-177340000D03*
X97790000Y-194770000D03*
X100290000Y-194770000D03*
X95290000Y-194770000D03*
X95290000Y-188770000D03*
X97790000Y-188770000D03*
X100290000Y-188770000D03*
X97790000Y-206200000D03*
X100290000Y-206200000D03*
X95290000Y-206200000D03*
X95290000Y-200200000D03*
X97790000Y-200200000D03*
X100290000Y-200200000D03*
X130810000Y-126190000D03*
X133310000Y-126190000D03*
X128310000Y-126190000D03*
X128310000Y-120190000D03*
X130810000Y-120190000D03*
X133310000Y-120190000D03*
X130810000Y-137620000D03*
X133310000Y-137620000D03*
X128310000Y-137620000D03*
X128310000Y-131620000D03*
X130810000Y-131620000D03*
X133310000Y-131620000D03*
X130810000Y-149050000D03*
X133310000Y-149050000D03*
X128310000Y-149050000D03*
X128310000Y-143050000D03*
X130810000Y-143050000D03*
X133310000Y-143050000D03*
X130810000Y-160480000D03*
X133310000Y-160480000D03*
X128310000Y-160480000D03*
X128310000Y-154480000D03*
X130810000Y-154480000D03*
X133310000Y-154480000D03*
X130810000Y-171910000D03*
X133310000Y-171910000D03*
X128310000Y-171910000D03*
X128310000Y-165910000D03*
X130810000Y-165910000D03*
X133310000Y-165910000D03*
X130810000Y-183340000D03*
X133310000Y-183340000D03*
X128310000Y-183340000D03*
X128310000Y-177340000D03*
X130810000Y-177340000D03*
X133310000Y-177340000D03*
X130810000Y-194770000D03*
X133310000Y-194770000D03*
X128310000Y-194770000D03*
X128310000Y-188770000D03*
X130810000Y-188770000D03*
X133310000Y-188770000D03*
X130810000Y-206200000D03*
X133310000Y-206200000D03*
X128310000Y-206200000D03*
X128310000Y-200200000D03*
X130810000Y-200200000D03*
X133310000Y-200200000D03*
X163830000Y-126190000D03*
X166330000Y-126190000D03*
X161330000Y-126190000D03*
X161330000Y-120190000D03*
X163830000Y-120190000D03*
X166330000Y-120190000D03*
X163830000Y-137620000D03*
X166330000Y-137620000D03*
X161330000Y-137620000D03*
X161330000Y-131620000D03*
X163830000Y-131620000D03*
X166330000Y-131620000D03*
X163830000Y-149050000D03*
X166330000Y-149050000D03*
X161330000Y-149050000D03*
X161330000Y-143050000D03*
X163830000Y-143050000D03*
X166330000Y-143050000D03*
X163830000Y-160480000D03*
X166330000Y-160480000D03*
X161330000Y-160480000D03*
X161330000Y-154480000D03*
X163830000Y-154480000D03*
X166330000Y-154480000D03*
X163830000Y-171910000D03*
X166330000Y-171910000D03*
X161330000Y-171910000D03*
X161330000Y-165910000D03*
X163830000Y-165910000D03*
X166330000Y-165910000D03*
X163830000Y-183340000D03*
X166330000Y-183340000D03*
X161330000Y-183340000D03*
X161330000Y-177340000D03*
X163830000Y-177340000D03*
X166330000Y-177340000D03*
X163830000Y-194770000D03*
X166330000Y-194770000D03*
X161330000Y-194770000D03*
X161330000Y-188770000D03*
X163830000Y-188770000D03*
X166330000Y-188770000D03*
X163830000Y-206200000D03*
X166330000Y-206200000D03*
X161330000Y-206200000D03*
X161330000Y-200200000D03*
X163830000Y-200200000D03*
X166330000Y-200200000D03*
X195580000Y-126190000D03*
X198080000Y-126190000D03*
X193080000Y-126190000D03*
X193080000Y-120190000D03*
X195580000Y-120190000D03*
X198080000Y-120190000D03*
X195580000Y-149050000D03*
X198080000Y-149050000D03*
X193080000Y-149050000D03*
X193080000Y-143050000D03*
X195580000Y-143050000D03*
X198080000Y-143050000D03*
X195580000Y-160480000D03*
X198080000Y-160480000D03*
X193080000Y-160480000D03*
X193080000Y-154480000D03*
X195580000Y-154480000D03*
X198080000Y-154480000D03*
X195580000Y-171910000D03*
X198080000Y-171910000D03*
X193080000Y-171910000D03*
X193080000Y-165910000D03*
X195580000Y-165910000D03*
X198080000Y-165910000D03*
X195580000Y-183340000D03*
X198080000Y-183340000D03*
X193080000Y-183340000D03*
X193080000Y-177340000D03*
X195580000Y-177340000D03*
X198080000Y-177340000D03*
X195580000Y-194770000D03*
X198080000Y-194770000D03*
X193080000Y-194770000D03*
X193080000Y-188770000D03*
X195580000Y-188770000D03*
X198080000Y-188770000D03*
X195580000Y-206200000D03*
X198080000Y-206200000D03*
X193080000Y-206200000D03*
X193080000Y-200200000D03*
X195580000Y-200200000D03*
X198080000Y-200200000D03*
X228600000Y-183340000D03*
X231100000Y-183340000D03*
X226100000Y-183340000D03*
X226100000Y-177340000D03*
X228600000Y-177340000D03*
X231100000Y-177340000D03*
X228600000Y-194770000D03*
X231100000Y-194770000D03*
X226100000Y-194770000D03*
X226100000Y-188770000D03*
X228600000Y-188770000D03*
X231100000Y-188770000D03*
X228600000Y-206200000D03*
X231100000Y-206200000D03*
X226100000Y-206200000D03*
X226100000Y-200200000D03*
X228600000Y-200200000D03*
X231100000Y-200200000D03*
X261620000Y-183340000D03*
X264120000Y-183340000D03*
X259120000Y-183340000D03*
X259120000Y-177340000D03*
X261620000Y-177340000D03*
X264120000Y-177340000D03*
X261620000Y-194770000D03*
X264120000Y-194770000D03*
X259120000Y-194770000D03*
X259120000Y-188770000D03*
X261620000Y-188770000D03*
X264120000Y-188770000D03*
X261620000Y-206200000D03*
X264120000Y-206200000D03*
X259120000Y-206200000D03*
X259120000Y-200200000D03*
X261620000Y-200200000D03*
X264120000Y-200200000D03*
X294640000Y-183340000D03*
X297140000Y-183340000D03*
X292140000Y-183340000D03*
X292140000Y-177340000D03*
X294640000Y-177340000D03*
X297140000Y-177340000D03*
X294640000Y-194770000D03*
X297140000Y-194770000D03*
X292140000Y-194770000D03*
X292140000Y-188770000D03*
X294640000Y-188770000D03*
X297140000Y-188770000D03*
X294640000Y-206200000D03*
X297140000Y-206200000D03*
X292140000Y-206200000D03*
X292140000Y-200200000D03*
X294640000Y-200200000D03*
X297140000Y-200200000D03*
X327660000Y-183340000D03*
X330160000Y-183340000D03*
X325160000Y-183340000D03*
X325160000Y-177340000D03*
X327660000Y-177340000D03*
X330160000Y-177340000D03*
X327660000Y-194770000D03*
X330160000Y-194770000D03*
X325160000Y-194770000D03*
X325160000Y-188770000D03*
X327660000Y-188770000D03*
X330160000Y-188770000D03*
X327660000Y-206200000D03*
X330160000Y-206200000D03*
X325160000Y-206200000D03*
X325160000Y-200200000D03*
X327660000Y-200200000D03*
X330160000Y-200200000D03*
X360680000Y-183340000D03*
X363180000Y-183340000D03*
X358180000Y-183340000D03*
X358180000Y-177340000D03*
X360680000Y-177340000D03*
X363180000Y-177340000D03*
X360680000Y-194770000D03*
X363180000Y-194770000D03*
X358180000Y-194770000D03*
X358180000Y-188770000D03*
X360680000Y-188770000D03*
X363180000Y-188770000D03*
X360680000Y-206200000D03*
X363180000Y-206200000D03*
X358180000Y-206200000D03*
X358180000Y-200200000D03*
X360680000Y-200200000D03*
X363180000Y-200200000D03*
D17*
X65024000Y-108394000D03*
X65024000Y-104394000D03*
X65659000Y-85693000D03*
X65659000Y-81693000D03*
X99060000Y-108013000D03*
X99060000Y-104013000D03*
X99060000Y-85153000D03*
X99060000Y-81153000D03*
X130175000Y-108077000D03*
X130175000Y-104077000D03*
X130429000Y-85153000D03*
X130429000Y-81153000D03*
X164338000Y-108013000D03*
X164338000Y-104013000D03*
X164211000Y-85153000D03*
X164211000Y-81153000D03*
X164719000Y-62357000D03*
X164719000Y-58357000D03*
X194691000Y-94266000D03*
X194691000Y-98266000D03*
X194691000Y-91662000D03*
X194691000Y-87662000D03*
X195580000Y-46927000D03*
X195580000Y-50927000D03*
D18*
X261874000Y-67310000D03*
D19*
X261874000Y-54610000D03*
D20*
X265938000Y-108077000D03*
D21*
X263398000Y-108077000D03*
X260858000Y-108077000D03*
X258318000Y-108077000D03*
X255778000Y-108077000D03*
D20*
X273685000Y-108077000D03*
D21*
X271145000Y-108077000D03*
X268605000Y-108077000D03*
D20*
X235585000Y-71120000D03*
D21*
X238125000Y-71120000D03*
X240665000Y-71120000D03*
X243205000Y-71120000D03*
X245745000Y-71120000D03*
D20*
X260985000Y-71120000D03*
D21*
X263525000Y-71120000D03*
D20*
X250825000Y-71120000D03*
D21*
X253365000Y-71120000D03*
X255905000Y-71120000D03*
D20*
X256540000Y-54610000D03*
D21*
X256540000Y-57150000D03*
D22*
X215218000Y-72390000D03*
X220218000Y-72390000D03*
X215218000Y-84890000D03*
X220218000Y-84890000D03*
D23*
X256540000Y-66548000D03*
D24*
X248920000Y-64008000D03*
X256540000Y-64008000D03*
X248920000Y-66548000D03*
D12*
X225428000Y-100206000D03*
X227968000Y-100206000D03*
X230508000Y-100206000D03*
X233048000Y-100206000D03*
X235588000Y-100206000D03*
X238128000Y-100206000D03*
X240668000Y-100206000D03*
X243208000Y-100206000D03*
X245748000Y-100206000D03*
X248288000Y-100206000D03*
X250828000Y-100206000D03*
X253368000Y-100206000D03*
X255908000Y-100206000D03*
X258448000Y-100206000D03*
X260988000Y-100206000D03*
X263528000Y-100206000D03*
X266068000Y-100206000D03*
X268608000Y-100206000D03*
X271148000Y-100206000D03*
X273688000Y-100206000D03*
X273688000Y-84966000D03*
X271148000Y-84966000D03*
X268608000Y-84966000D03*
X266068000Y-84966000D03*
X263528000Y-84966000D03*
X260988000Y-84966000D03*
X258448000Y-84966000D03*
X255908000Y-84966000D03*
X253368000Y-84966000D03*
X250828000Y-84966000D03*
X248288000Y-84966000D03*
X245748000Y-84966000D03*
X243208000Y-84966000D03*
X240668000Y-84966000D03*
X238128000Y-84966000D03*
X235588000Y-84966000D03*
X233048000Y-84966000D03*
X230508000Y-84966000D03*
X227968000Y-84966000D03*
X225428000Y-84966000D03*
D25*
X225552000Y-146812000D03*
D26*
X233172000Y-164592000D03*
X225552000Y-149352000D03*
X233172000Y-162052000D03*
X225552000Y-151892000D03*
X233172000Y-159512000D03*
X225552000Y-154432000D03*
X233172000Y-156972000D03*
X225552000Y-156972000D03*
X233172000Y-154432000D03*
X225552000Y-159512000D03*
X233172000Y-151892000D03*
X225552000Y-162052000D03*
X233172000Y-149352000D03*
X225552000Y-164592000D03*
X233172000Y-146812000D03*
D13*
X103124000Y-63500000D03*
D14*
X120904000Y-55880000D03*
X105664000Y-63500000D03*
X118364000Y-55880000D03*
X108204000Y-63500000D03*
X115824000Y-55880000D03*
X110744000Y-63500000D03*
X113284000Y-55880000D03*
X113284000Y-63500000D03*
X110744000Y-55880000D03*
X115824000Y-63500000D03*
X108204000Y-55880000D03*
X118364000Y-63500000D03*
X105664000Y-55880000D03*
X120904000Y-63500000D03*
X103124000Y-55880000D03*
D13*
X62230000Y-219710000D03*
D14*
X80010000Y-212090000D03*
X64770000Y-219710000D03*
X77470000Y-212090000D03*
X67310000Y-219710000D03*
X74930000Y-212090000D03*
X69850000Y-219710000D03*
X72390000Y-212090000D03*
X72390000Y-219710000D03*
X69850000Y-212090000D03*
X74930000Y-219710000D03*
X67310000Y-212090000D03*
X77470000Y-219710000D03*
X64770000Y-212090000D03*
X80010000Y-219710000D03*
X62230000Y-212090000D03*
D13*
X95250000Y-219710000D03*
D14*
X113030000Y-212090000D03*
X97790000Y-219710000D03*
X110490000Y-212090000D03*
X100330000Y-219710000D03*
X107950000Y-212090000D03*
X102870000Y-219710000D03*
X105410000Y-212090000D03*
X105410000Y-219710000D03*
X102870000Y-212090000D03*
X107950000Y-219710000D03*
X100330000Y-212090000D03*
X110490000Y-219710000D03*
X97790000Y-212090000D03*
X113030000Y-219710000D03*
X95250000Y-212090000D03*
D13*
X128270000Y-219710000D03*
D14*
X146050000Y-212090000D03*
X130810000Y-219710000D03*
X143510000Y-212090000D03*
X133350000Y-219710000D03*
X140970000Y-212090000D03*
X135890000Y-219710000D03*
X138430000Y-212090000D03*
X138430000Y-219710000D03*
X135890000Y-212090000D03*
X140970000Y-219710000D03*
X133350000Y-212090000D03*
X143510000Y-219710000D03*
X130810000Y-212090000D03*
X146050000Y-219710000D03*
X128270000Y-212090000D03*
D13*
X161290000Y-219710000D03*
D14*
X179070000Y-212090000D03*
X163830000Y-219710000D03*
X176530000Y-212090000D03*
X166370000Y-219710000D03*
X173990000Y-212090000D03*
X168910000Y-219710000D03*
X171450000Y-212090000D03*
X171450000Y-219710000D03*
X168910000Y-212090000D03*
X173990000Y-219710000D03*
X166370000Y-212090000D03*
X176530000Y-219710000D03*
X163830000Y-212090000D03*
X179070000Y-219710000D03*
X161290000Y-212090000D03*
D13*
X193040000Y-219710000D03*
D14*
X210820000Y-212090000D03*
X195580000Y-219710000D03*
X208280000Y-212090000D03*
X198120000Y-219710000D03*
X205740000Y-212090000D03*
X200660000Y-219710000D03*
X203200000Y-212090000D03*
X203200000Y-219710000D03*
X200660000Y-212090000D03*
X205740000Y-219710000D03*
X198120000Y-212090000D03*
X208280000Y-219710000D03*
X195580000Y-212090000D03*
X210820000Y-219710000D03*
X193040000Y-212090000D03*
D13*
X248920000Y-219710000D03*
D14*
X266700000Y-212090000D03*
X251460000Y-219710000D03*
X264160000Y-212090000D03*
X254000000Y-219710000D03*
X261620000Y-212090000D03*
X256540000Y-219710000D03*
X259080000Y-212090000D03*
X259080000Y-219710000D03*
X256540000Y-212090000D03*
X261620000Y-219710000D03*
X254000000Y-212090000D03*
X264160000Y-219710000D03*
X251460000Y-212090000D03*
X266700000Y-219710000D03*
X248920000Y-212090000D03*
D13*
X314960000Y-219710000D03*
D14*
X332740000Y-212090000D03*
X317500000Y-219710000D03*
X330200000Y-212090000D03*
X320040000Y-219710000D03*
X327660000Y-212090000D03*
X322580000Y-219710000D03*
X325120000Y-212090000D03*
X325120000Y-219710000D03*
X322580000Y-212090000D03*
X327660000Y-219710000D03*
X320040000Y-212090000D03*
X330200000Y-219710000D03*
X317500000Y-212090000D03*
X332740000Y-219710000D03*
X314960000Y-212090000D03*
D27*
X132920000Y-83680000D03*
X134620000Y-83680000D03*
X136320000Y-83680000D03*
X136320000Y-78880000D03*
X134620000Y-78880000D03*
X132920000Y-78880000D03*
X132920000Y-60820000D03*
X134620000Y-60820000D03*
X136320000Y-60820000D03*
X136320000Y-56020000D03*
X134620000Y-56020000D03*
X132920000Y-56020000D03*
D16*
X116700000Y-120572000D03*
X116700000Y-118872000D03*
X116700000Y-117172000D03*
X111900000Y-117172000D03*
X111900000Y-118872000D03*
X111900000Y-120572000D03*
X83680000Y-120572000D03*
X83680000Y-118872000D03*
X83680000Y-117172000D03*
X78880000Y-117172000D03*
X78880000Y-118872000D03*
X78880000Y-120572000D03*
X50660000Y-120572000D03*
X50660000Y-118872000D03*
X50660000Y-117172000D03*
X45860000Y-117172000D03*
X45860000Y-118872000D03*
X45860000Y-120572000D03*
X280530000Y-120572000D03*
X280530000Y-118872000D03*
X280530000Y-117172000D03*
X275730000Y-117172000D03*
X275730000Y-118872000D03*
X275730000Y-120572000D03*
X247764000Y-120572000D03*
X247764000Y-118872000D03*
X247764000Y-117172000D03*
X242964000Y-117172000D03*
X242964000Y-118872000D03*
X242964000Y-120572000D03*
X214744000Y-120572000D03*
X214744000Y-118872000D03*
X214744000Y-117172000D03*
X209944000Y-117172000D03*
X209944000Y-118872000D03*
X209944000Y-120572000D03*
D27*
X195658000Y-106426000D03*
X197358000Y-106426000D03*
X199058000Y-106426000D03*
X199058000Y-101626000D03*
X197358000Y-101626000D03*
X195658000Y-101626000D03*
X195658000Y-83680000D03*
X197358000Y-83680000D03*
X199058000Y-83680000D03*
X199058000Y-78880000D03*
X197358000Y-78880000D03*
X195658000Y-78880000D03*
X195658000Y-60820000D03*
X197358000Y-60820000D03*
X199058000Y-60820000D03*
X199058000Y-56020000D03*
X197358000Y-56020000D03*
X195658000Y-56020000D03*
D16*
X181470000Y-120572000D03*
X181470000Y-118872000D03*
X181470000Y-117172000D03*
X176670000Y-117172000D03*
X176670000Y-118872000D03*
X176670000Y-120572000D03*
X149720000Y-120572000D03*
X149720000Y-118872000D03*
X149720000Y-117172000D03*
X144920000Y-117172000D03*
X144920000Y-118872000D03*
X144920000Y-120572000D03*
D27*
X132920000Y-106540000D03*
X134620000Y-106540000D03*
X136320000Y-106540000D03*
X136320000Y-101740000D03*
X134620000Y-101740000D03*
X132920000Y-101740000D03*
D16*
X43678817Y-230378000D03*
X43678817Y-232078000D03*
X43678817Y-233778000D03*
X48478817Y-233778000D03*
X48478817Y-232078000D03*
X48478817Y-230378000D03*
X64526095Y-230378000D03*
X64526095Y-232078000D03*
X64526095Y-233778000D03*
X69326095Y-233778000D03*
X69326095Y-232078000D03*
X69326095Y-230378000D03*
X85373373Y-230378000D03*
X85373373Y-232078000D03*
X85373373Y-233778000D03*
X90173373Y-233778000D03*
X90173373Y-232078000D03*
X90173373Y-230378000D03*
X106220651Y-230378000D03*
X106220651Y-232078000D03*
X106220651Y-233778000D03*
X111020651Y-233778000D03*
X111020651Y-232078000D03*
X111020651Y-230378000D03*
X127067929Y-230378000D03*
X127067929Y-232078000D03*
X127067929Y-233778000D03*
X131867929Y-233778000D03*
X131867929Y-232078000D03*
X131867929Y-230378000D03*
X147915207Y-230378000D03*
X147915207Y-232078000D03*
X147915207Y-233778000D03*
X152715207Y-233778000D03*
X152715207Y-232078000D03*
X152715207Y-230378000D03*
X168762485Y-230378000D03*
X168762485Y-232078000D03*
X168762485Y-233778000D03*
X173562485Y-233778000D03*
X173562485Y-232078000D03*
X173562485Y-230378000D03*
X189609763Y-230378000D03*
X189609763Y-232078000D03*
X189609763Y-233778000D03*
X194409763Y-233778000D03*
X194409763Y-232078000D03*
X194409763Y-230378000D03*
X210457041Y-230378000D03*
X210457041Y-232078000D03*
X210457041Y-233778000D03*
X215257041Y-233778000D03*
X215257041Y-232078000D03*
X215257041Y-230378000D03*
X231304319Y-230378000D03*
X231304319Y-232078000D03*
X231304319Y-233778000D03*
X236104319Y-233778000D03*
X236104319Y-232078000D03*
X236104319Y-230378000D03*
X252151597Y-230378000D03*
X252151597Y-232078000D03*
X252151597Y-233778000D03*
X256951597Y-233778000D03*
X256951597Y-232078000D03*
X256951597Y-230378000D03*
X272998875Y-230378000D03*
X272998875Y-232078000D03*
X272998875Y-233778000D03*
X277798875Y-233778000D03*
X277798875Y-232078000D03*
X277798875Y-230378000D03*
X293846153Y-230378000D03*
X293846153Y-232078000D03*
X293846153Y-233778000D03*
X298646153Y-233778000D03*
X298646153Y-232078000D03*
X298646153Y-230378000D03*
X314693431Y-230378000D03*
X314693431Y-232078000D03*
X314693431Y-233778000D03*
X319493431Y-233778000D03*
X319493431Y-232078000D03*
X319493431Y-230378000D03*
X335540709Y-230378000D03*
X335540709Y-232078000D03*
X335540709Y-233778000D03*
X340340709Y-233778000D03*
X340340709Y-232078000D03*
X340340709Y-230378000D03*
X356387987Y-230378000D03*
X356387987Y-232078000D03*
X356387987Y-233778000D03*
X361187987Y-233778000D03*
X361187987Y-232078000D03*
X361187987Y-230378000D03*
D23*
X282194000Y-108204000D03*
D28*
X279694000Y-108204000D03*
D23*
X241046000Y-57150000D03*
D28*
X243546000Y-57150000D03*
D29*
X293370000Y-108204000D03*
D30*
X288290000Y-108204000D03*
M02*
