G04 #@! TF.FileFunction,Legend,Bot*
%FSLAX46Y46*%
G04 Gerber Fmt 4.6, Leading zero omitted, Abs format (unit mm)*
G04 Created by KiCad (PCBNEW 4.0.7) date 05/05/18 03:18:50*
%MOMM*%
%LPD*%
G01*
G04 APERTURE LIST*
%ADD10C,0.100000*%
%ADD11C,0.120000*%
%ADD12C,0.150000*%
G04 APERTURE END LIST*
D10*
D11*
X49006000Y-197608000D02*
X51006000Y-197608000D01*
X51006000Y-199648000D02*
X49006000Y-199648000D01*
X83582000Y-197608000D02*
X85582000Y-197608000D01*
X85582000Y-199648000D02*
X83582000Y-199648000D01*
X114665000Y-197608000D02*
X116665000Y-197608000D01*
X116665000Y-199648000D02*
X114665000Y-199648000D01*
X147622000Y-197608000D02*
X149622000Y-197608000D01*
X149622000Y-199648000D02*
X147622000Y-199648000D01*
X179562000Y-197608000D02*
X181562000Y-197608000D01*
X181562000Y-199648000D02*
X179562000Y-199648000D01*
X214360000Y-197608000D02*
X216360000Y-197608000D01*
X216360000Y-199648000D02*
X214360000Y-199648000D01*
X247380000Y-197608000D02*
X249380000Y-197608000D01*
X249380000Y-199648000D02*
X247380000Y-199648000D01*
X280400000Y-197608000D02*
X282400000Y-197608000D01*
X282400000Y-199648000D02*
X280400000Y-199648000D01*
X313420000Y-197608000D02*
X315420000Y-197608000D01*
X315420000Y-199648000D02*
X313420000Y-199648000D01*
X346440000Y-197608000D02*
X348440000Y-197608000D01*
X348440000Y-199648000D02*
X346440000Y-199648000D01*
X66945000Y-118545000D02*
X68945000Y-118545000D01*
X68945000Y-116405000D02*
X66945000Y-116405000D01*
X66945000Y-129975000D02*
X68945000Y-129975000D01*
X68945000Y-127835000D02*
X66945000Y-127835000D01*
X66945000Y-141405000D02*
X68945000Y-141405000D01*
X68945000Y-139265000D02*
X66945000Y-139265000D01*
X66945000Y-152835000D02*
X68945000Y-152835000D01*
X68945000Y-150695000D02*
X66945000Y-150695000D01*
X66945000Y-164265000D02*
X68945000Y-164265000D01*
X68945000Y-162125000D02*
X66945000Y-162125000D01*
X66945000Y-175695000D02*
X68945000Y-175695000D01*
X68945000Y-173555000D02*
X66945000Y-173555000D01*
X66945000Y-187125000D02*
X68945000Y-187125000D01*
X68945000Y-184985000D02*
X66945000Y-184985000D01*
X66945000Y-198555000D02*
X68945000Y-198555000D01*
X68945000Y-196415000D02*
X66945000Y-196415000D01*
X99806000Y-118418000D02*
X101806000Y-118418000D01*
X101806000Y-116278000D02*
X99806000Y-116278000D01*
X99965000Y-129975000D02*
X101965000Y-129975000D01*
X101965000Y-127835000D02*
X99965000Y-127835000D01*
X99965000Y-141405000D02*
X101965000Y-141405000D01*
X101965000Y-139265000D02*
X99965000Y-139265000D01*
X99965000Y-152835000D02*
X101965000Y-152835000D01*
X101965000Y-150695000D02*
X99965000Y-150695000D01*
X99965000Y-164265000D02*
X101965000Y-164265000D01*
X101965000Y-162125000D02*
X99965000Y-162125000D01*
X99965000Y-175695000D02*
X101965000Y-175695000D01*
X101965000Y-173555000D02*
X99965000Y-173555000D01*
X99965000Y-187125000D02*
X101965000Y-187125000D01*
X101965000Y-184985000D02*
X99965000Y-184985000D01*
X99965000Y-198555000D02*
X101965000Y-198555000D01*
X101965000Y-196415000D02*
X99965000Y-196415000D01*
X132985000Y-118545000D02*
X134985000Y-118545000D01*
X134985000Y-116405000D02*
X132985000Y-116405000D01*
X132985000Y-129975000D02*
X134985000Y-129975000D01*
X134985000Y-127835000D02*
X132985000Y-127835000D01*
X132985000Y-141405000D02*
X134985000Y-141405000D01*
X134985000Y-139265000D02*
X132985000Y-139265000D01*
X132985000Y-152835000D02*
X134985000Y-152835000D01*
X134985000Y-150695000D02*
X132985000Y-150695000D01*
X132985000Y-164265000D02*
X134985000Y-164265000D01*
X134985000Y-162125000D02*
X132985000Y-162125000D01*
X132985000Y-175695000D02*
X134985000Y-175695000D01*
X134985000Y-173555000D02*
X132985000Y-173555000D01*
X132985000Y-187125000D02*
X134985000Y-187125000D01*
X134985000Y-184985000D02*
X132985000Y-184985000D01*
X132985000Y-198555000D02*
X134985000Y-198555000D01*
X134985000Y-196415000D02*
X132985000Y-196415000D01*
X166024682Y-129953562D02*
X168024682Y-129953562D01*
X168024682Y-127813562D02*
X166024682Y-127813562D01*
X166024682Y-141383562D02*
X168024682Y-141383562D01*
X168024682Y-139243562D02*
X166024682Y-139243562D01*
X166024682Y-152813562D02*
X168024682Y-152813562D01*
X168024682Y-150673562D02*
X166024682Y-150673562D01*
X166024682Y-164243562D02*
X168024682Y-164243562D01*
X168024682Y-162103562D02*
X166024682Y-162103562D01*
X166024682Y-175673562D02*
X168024682Y-175673562D01*
X168024682Y-173533562D02*
X166024682Y-173533562D01*
X166024682Y-187103562D02*
X168024682Y-187103562D01*
X168024682Y-184963562D02*
X166024682Y-184963562D01*
X166024682Y-198533562D02*
X168024682Y-198533562D01*
X168024682Y-196393562D02*
X166024682Y-196393562D01*
X197755000Y-118545000D02*
X199755000Y-118545000D01*
X199755000Y-116405000D02*
X197755000Y-116405000D01*
X197755000Y-129975000D02*
X199755000Y-129975000D01*
X199755000Y-127835000D02*
X197755000Y-127835000D01*
X197755000Y-141405000D02*
X199755000Y-141405000D01*
X199755000Y-139265000D02*
X197755000Y-139265000D01*
X197755000Y-152835000D02*
X199755000Y-152835000D01*
X199755000Y-150695000D02*
X197755000Y-150695000D01*
X197755000Y-164265000D02*
X199755000Y-164265000D01*
X199755000Y-162125000D02*
X197755000Y-162125000D01*
X197755000Y-175695000D02*
X199755000Y-175695000D01*
X199755000Y-173555000D02*
X197755000Y-173555000D01*
X197755000Y-187125000D02*
X199755000Y-187125000D01*
X199755000Y-184985000D02*
X197755000Y-184985000D01*
X197755000Y-198555000D02*
X199755000Y-198555000D01*
X199755000Y-196415000D02*
X197755000Y-196415000D01*
X230775000Y-175695000D02*
X232775000Y-175695000D01*
X232775000Y-173555000D02*
X230775000Y-173555000D01*
X230775000Y-187125000D02*
X232775000Y-187125000D01*
X232775000Y-184985000D02*
X230775000Y-184985000D01*
X230775000Y-198555000D02*
X232775000Y-198555000D01*
X232775000Y-196415000D02*
X230775000Y-196415000D01*
X263795000Y-175695000D02*
X265795000Y-175695000D01*
X265795000Y-173555000D02*
X263795000Y-173555000D01*
X263795000Y-187125000D02*
X265795000Y-187125000D01*
X265795000Y-184985000D02*
X263795000Y-184985000D01*
X263795000Y-198555000D02*
X265795000Y-198555000D01*
X265795000Y-196415000D02*
X263795000Y-196415000D01*
X296815000Y-175695000D02*
X298815000Y-175695000D01*
X298815000Y-173555000D02*
X296815000Y-173555000D01*
X296815000Y-187125000D02*
X298815000Y-187125000D01*
X298815000Y-184985000D02*
X296815000Y-184985000D01*
X296815000Y-198555000D02*
X298815000Y-198555000D01*
X298815000Y-196415000D02*
X296815000Y-196415000D01*
X330089000Y-175695000D02*
X332089000Y-175695000D01*
X332089000Y-173555000D02*
X330089000Y-173555000D01*
X330089000Y-187125000D02*
X332089000Y-187125000D01*
X332089000Y-184985000D02*
X330089000Y-184985000D01*
X330089000Y-198555000D02*
X332089000Y-198555000D01*
X332089000Y-196415000D02*
X330089000Y-196415000D01*
X362855000Y-175695000D02*
X364855000Y-175695000D01*
X364855000Y-173555000D02*
X362855000Y-173555000D01*
X362855000Y-187125000D02*
X364855000Y-187125000D01*
X364855000Y-184985000D02*
X362855000Y-184985000D01*
X362855000Y-198555000D02*
X364855000Y-198555000D01*
X364855000Y-196415000D02*
X362855000Y-196415000D01*
X256975000Y-77803000D02*
X256975000Y-75803000D01*
X254835000Y-75803000D02*
X254835000Y-77803000D01*
X243951000Y-63065000D02*
X241951000Y-63065000D01*
X241951000Y-65205000D02*
X243951000Y-65205000D01*
X241951000Y-67872000D02*
X243951000Y-67872000D01*
X243951000Y-65732000D02*
X241951000Y-65732000D01*
X165910000Y-118418000D02*
X167910000Y-118418000D01*
X167910000Y-116278000D02*
X165910000Y-116278000D01*
D12*
X51125047Y-197235143D02*
X51172666Y-197282762D01*
X51315523Y-197330381D01*
X51410761Y-197330381D01*
X51553619Y-197282762D01*
X51648857Y-197187524D01*
X51696476Y-197092286D01*
X51744095Y-196901810D01*
X51744095Y-196758952D01*
X51696476Y-196568476D01*
X51648857Y-196473238D01*
X51553619Y-196378000D01*
X51410761Y-196330381D01*
X51315523Y-196330381D01*
X51172666Y-196378000D01*
X51125047Y-196425619D01*
X50791714Y-196330381D02*
X50172666Y-196330381D01*
X50506000Y-196711333D01*
X50363142Y-196711333D01*
X50267904Y-196758952D01*
X50220285Y-196806571D01*
X50172666Y-196901810D01*
X50172666Y-197139905D01*
X50220285Y-197235143D01*
X50267904Y-197282762D01*
X50363142Y-197330381D01*
X50648857Y-197330381D01*
X50744095Y-197282762D01*
X50791714Y-197235143D01*
X49553619Y-196330381D02*
X49458380Y-196330381D01*
X49363142Y-196378000D01*
X49315523Y-196425619D01*
X49267904Y-196520857D01*
X49220285Y-196711333D01*
X49220285Y-196949429D01*
X49267904Y-197139905D01*
X49315523Y-197235143D01*
X49363142Y-197282762D01*
X49458380Y-197330381D01*
X49553619Y-197330381D01*
X49648857Y-197282762D01*
X49696476Y-197235143D01*
X49744095Y-197139905D01*
X49791714Y-196949429D01*
X49791714Y-196711333D01*
X49744095Y-196520857D01*
X49696476Y-196425619D01*
X49648857Y-196378000D01*
X49553619Y-196330381D01*
X48267904Y-197330381D02*
X48839333Y-197330381D01*
X48553619Y-197330381D02*
X48553619Y-196330381D01*
X48648857Y-196473238D01*
X48744095Y-196568476D01*
X48839333Y-196616095D01*
X85701047Y-197235143D02*
X85748666Y-197282762D01*
X85891523Y-197330381D01*
X85986761Y-197330381D01*
X86129619Y-197282762D01*
X86224857Y-197187524D01*
X86272476Y-197092286D01*
X86320095Y-196901810D01*
X86320095Y-196758952D01*
X86272476Y-196568476D01*
X86224857Y-196473238D01*
X86129619Y-196378000D01*
X85986761Y-196330381D01*
X85891523Y-196330381D01*
X85748666Y-196378000D01*
X85701047Y-196425619D01*
X85367714Y-196330381D02*
X84748666Y-196330381D01*
X85082000Y-196711333D01*
X84939142Y-196711333D01*
X84843904Y-196758952D01*
X84796285Y-196806571D01*
X84748666Y-196901810D01*
X84748666Y-197139905D01*
X84796285Y-197235143D01*
X84843904Y-197282762D01*
X84939142Y-197330381D01*
X85224857Y-197330381D01*
X85320095Y-197282762D01*
X85367714Y-197235143D01*
X84129619Y-196330381D02*
X84034380Y-196330381D01*
X83939142Y-196378000D01*
X83891523Y-196425619D01*
X83843904Y-196520857D01*
X83796285Y-196711333D01*
X83796285Y-196949429D01*
X83843904Y-197139905D01*
X83891523Y-197235143D01*
X83939142Y-197282762D01*
X84034380Y-197330381D01*
X84129619Y-197330381D01*
X84224857Y-197282762D01*
X84272476Y-197235143D01*
X84320095Y-197139905D01*
X84367714Y-196949429D01*
X84367714Y-196711333D01*
X84320095Y-196520857D01*
X84272476Y-196425619D01*
X84224857Y-196378000D01*
X84129619Y-196330381D01*
X82939142Y-196663714D02*
X82939142Y-197330381D01*
X83177238Y-196282762D02*
X83415333Y-196997048D01*
X82796285Y-196997048D01*
X116784047Y-197235143D02*
X116831666Y-197282762D01*
X116974523Y-197330381D01*
X117069761Y-197330381D01*
X117212619Y-197282762D01*
X117307857Y-197187524D01*
X117355476Y-197092286D01*
X117403095Y-196901810D01*
X117403095Y-196758952D01*
X117355476Y-196568476D01*
X117307857Y-196473238D01*
X117212619Y-196378000D01*
X117069761Y-196330381D01*
X116974523Y-196330381D01*
X116831666Y-196378000D01*
X116784047Y-196425619D01*
X116450714Y-196330381D02*
X115831666Y-196330381D01*
X116165000Y-196711333D01*
X116022142Y-196711333D01*
X115926904Y-196758952D01*
X115879285Y-196806571D01*
X115831666Y-196901810D01*
X115831666Y-197139905D01*
X115879285Y-197235143D01*
X115926904Y-197282762D01*
X116022142Y-197330381D01*
X116307857Y-197330381D01*
X116403095Y-197282762D01*
X116450714Y-197235143D01*
X115212619Y-196330381D02*
X115117380Y-196330381D01*
X115022142Y-196378000D01*
X114974523Y-196425619D01*
X114926904Y-196520857D01*
X114879285Y-196711333D01*
X114879285Y-196949429D01*
X114926904Y-197139905D01*
X114974523Y-197235143D01*
X115022142Y-197282762D01*
X115117380Y-197330381D01*
X115212619Y-197330381D01*
X115307857Y-197282762D01*
X115355476Y-197235143D01*
X115403095Y-197139905D01*
X115450714Y-196949429D01*
X115450714Y-196711333D01*
X115403095Y-196520857D01*
X115355476Y-196425619D01*
X115307857Y-196378000D01*
X115212619Y-196330381D01*
X114545952Y-196330381D02*
X113879285Y-196330381D01*
X114307857Y-197330381D01*
X149741047Y-197235143D02*
X149788666Y-197282762D01*
X149931523Y-197330381D01*
X150026761Y-197330381D01*
X150169619Y-197282762D01*
X150264857Y-197187524D01*
X150312476Y-197092286D01*
X150360095Y-196901810D01*
X150360095Y-196758952D01*
X150312476Y-196568476D01*
X150264857Y-196473238D01*
X150169619Y-196378000D01*
X150026761Y-196330381D01*
X149931523Y-196330381D01*
X149788666Y-196378000D01*
X149741047Y-196425619D01*
X149407714Y-196330381D02*
X148788666Y-196330381D01*
X149122000Y-196711333D01*
X148979142Y-196711333D01*
X148883904Y-196758952D01*
X148836285Y-196806571D01*
X148788666Y-196901810D01*
X148788666Y-197139905D01*
X148836285Y-197235143D01*
X148883904Y-197282762D01*
X148979142Y-197330381D01*
X149264857Y-197330381D01*
X149360095Y-197282762D01*
X149407714Y-197235143D01*
X147836285Y-197330381D02*
X148407714Y-197330381D01*
X148122000Y-197330381D02*
X148122000Y-196330381D01*
X148217238Y-196473238D01*
X148312476Y-196568476D01*
X148407714Y-196616095D01*
X147217238Y-196330381D02*
X147121999Y-196330381D01*
X147026761Y-196378000D01*
X146979142Y-196425619D01*
X146931523Y-196520857D01*
X146883904Y-196711333D01*
X146883904Y-196949429D01*
X146931523Y-197139905D01*
X146979142Y-197235143D01*
X147026761Y-197282762D01*
X147121999Y-197330381D01*
X147217238Y-197330381D01*
X147312476Y-197282762D01*
X147360095Y-197235143D01*
X147407714Y-197139905D01*
X147455333Y-196949429D01*
X147455333Y-196711333D01*
X147407714Y-196520857D01*
X147360095Y-196425619D01*
X147312476Y-196378000D01*
X147217238Y-196330381D01*
X181681047Y-197235143D02*
X181728666Y-197282762D01*
X181871523Y-197330381D01*
X181966761Y-197330381D01*
X182109619Y-197282762D01*
X182204857Y-197187524D01*
X182252476Y-197092286D01*
X182300095Y-196901810D01*
X182300095Y-196758952D01*
X182252476Y-196568476D01*
X182204857Y-196473238D01*
X182109619Y-196378000D01*
X181966761Y-196330381D01*
X181871523Y-196330381D01*
X181728666Y-196378000D01*
X181681047Y-196425619D01*
X181347714Y-196330381D02*
X180728666Y-196330381D01*
X181062000Y-196711333D01*
X180919142Y-196711333D01*
X180823904Y-196758952D01*
X180776285Y-196806571D01*
X180728666Y-196901810D01*
X180728666Y-197139905D01*
X180776285Y-197235143D01*
X180823904Y-197282762D01*
X180919142Y-197330381D01*
X181204857Y-197330381D01*
X181300095Y-197282762D01*
X181347714Y-197235143D01*
X179776285Y-197330381D02*
X180347714Y-197330381D01*
X180062000Y-197330381D02*
X180062000Y-196330381D01*
X180157238Y-196473238D01*
X180252476Y-196568476D01*
X180347714Y-196616095D01*
X178919142Y-196663714D02*
X178919142Y-197330381D01*
X179157238Y-196282762D02*
X179395333Y-196997048D01*
X178776285Y-196997048D01*
X216479047Y-197235143D02*
X216526666Y-197282762D01*
X216669523Y-197330381D01*
X216764761Y-197330381D01*
X216907619Y-197282762D01*
X217002857Y-197187524D01*
X217050476Y-197092286D01*
X217098095Y-196901810D01*
X217098095Y-196758952D01*
X217050476Y-196568476D01*
X217002857Y-196473238D01*
X216907619Y-196378000D01*
X216764761Y-196330381D01*
X216669523Y-196330381D01*
X216526666Y-196378000D01*
X216479047Y-196425619D01*
X216145714Y-196330381D02*
X215526666Y-196330381D01*
X215860000Y-196711333D01*
X215717142Y-196711333D01*
X215621904Y-196758952D01*
X215574285Y-196806571D01*
X215526666Y-196901810D01*
X215526666Y-197139905D01*
X215574285Y-197235143D01*
X215621904Y-197282762D01*
X215717142Y-197330381D01*
X216002857Y-197330381D01*
X216098095Y-197282762D01*
X216145714Y-197235143D01*
X214574285Y-197330381D02*
X215145714Y-197330381D01*
X214860000Y-197330381D02*
X214860000Y-196330381D01*
X214955238Y-196473238D01*
X215050476Y-196568476D01*
X215145714Y-196616095D01*
X214002857Y-196758952D02*
X214098095Y-196711333D01*
X214145714Y-196663714D01*
X214193333Y-196568476D01*
X214193333Y-196520857D01*
X214145714Y-196425619D01*
X214098095Y-196378000D01*
X214002857Y-196330381D01*
X213812380Y-196330381D01*
X213717142Y-196378000D01*
X213669523Y-196425619D01*
X213621904Y-196520857D01*
X213621904Y-196568476D01*
X213669523Y-196663714D01*
X213717142Y-196711333D01*
X213812380Y-196758952D01*
X214002857Y-196758952D01*
X214098095Y-196806571D01*
X214145714Y-196854190D01*
X214193333Y-196949429D01*
X214193333Y-197139905D01*
X214145714Y-197235143D01*
X214098095Y-197282762D01*
X214002857Y-197330381D01*
X213812380Y-197330381D01*
X213717142Y-197282762D01*
X213669523Y-197235143D01*
X213621904Y-197139905D01*
X213621904Y-196949429D01*
X213669523Y-196854190D01*
X213717142Y-196806571D01*
X213812380Y-196758952D01*
X249499047Y-197235143D02*
X249546666Y-197282762D01*
X249689523Y-197330381D01*
X249784761Y-197330381D01*
X249927619Y-197282762D01*
X250022857Y-197187524D01*
X250070476Y-197092286D01*
X250118095Y-196901810D01*
X250118095Y-196758952D01*
X250070476Y-196568476D01*
X250022857Y-196473238D01*
X249927619Y-196378000D01*
X249784761Y-196330381D01*
X249689523Y-196330381D01*
X249546666Y-196378000D01*
X249499047Y-196425619D01*
X249165714Y-196330381D02*
X248546666Y-196330381D01*
X248880000Y-196711333D01*
X248737142Y-196711333D01*
X248641904Y-196758952D01*
X248594285Y-196806571D01*
X248546666Y-196901810D01*
X248546666Y-197139905D01*
X248594285Y-197235143D01*
X248641904Y-197282762D01*
X248737142Y-197330381D01*
X249022857Y-197330381D01*
X249118095Y-197282762D01*
X249165714Y-197235143D01*
X247594285Y-197330381D02*
X248165714Y-197330381D01*
X247880000Y-197330381D02*
X247880000Y-196330381D01*
X247975238Y-196473238D01*
X248070476Y-196568476D01*
X248165714Y-196616095D01*
X247118095Y-197330381D02*
X246927619Y-197330381D01*
X246832380Y-197282762D01*
X246784761Y-197235143D01*
X246689523Y-197092286D01*
X246641904Y-196901810D01*
X246641904Y-196520857D01*
X246689523Y-196425619D01*
X246737142Y-196378000D01*
X246832380Y-196330381D01*
X247022857Y-196330381D01*
X247118095Y-196378000D01*
X247165714Y-196425619D01*
X247213333Y-196520857D01*
X247213333Y-196758952D01*
X247165714Y-196854190D01*
X247118095Y-196901810D01*
X247022857Y-196949429D01*
X246832380Y-196949429D01*
X246737142Y-196901810D01*
X246689523Y-196854190D01*
X246641904Y-196758952D01*
X282519047Y-197235143D02*
X282566666Y-197282762D01*
X282709523Y-197330381D01*
X282804761Y-197330381D01*
X282947619Y-197282762D01*
X283042857Y-197187524D01*
X283090476Y-197092286D01*
X283138095Y-196901810D01*
X283138095Y-196758952D01*
X283090476Y-196568476D01*
X283042857Y-196473238D01*
X282947619Y-196378000D01*
X282804761Y-196330381D01*
X282709523Y-196330381D01*
X282566666Y-196378000D01*
X282519047Y-196425619D01*
X282185714Y-196330381D02*
X281566666Y-196330381D01*
X281900000Y-196711333D01*
X281757142Y-196711333D01*
X281661904Y-196758952D01*
X281614285Y-196806571D01*
X281566666Y-196901810D01*
X281566666Y-197139905D01*
X281614285Y-197235143D01*
X281661904Y-197282762D01*
X281757142Y-197330381D01*
X282042857Y-197330381D01*
X282138095Y-197282762D01*
X282185714Y-197235143D01*
X281185714Y-196425619D02*
X281138095Y-196378000D01*
X281042857Y-196330381D01*
X280804761Y-196330381D01*
X280709523Y-196378000D01*
X280661904Y-196425619D01*
X280614285Y-196520857D01*
X280614285Y-196616095D01*
X280661904Y-196758952D01*
X281233333Y-197330381D01*
X280614285Y-197330381D01*
X279995238Y-196330381D02*
X279899999Y-196330381D01*
X279804761Y-196378000D01*
X279757142Y-196425619D01*
X279709523Y-196520857D01*
X279661904Y-196711333D01*
X279661904Y-196949429D01*
X279709523Y-197139905D01*
X279757142Y-197235143D01*
X279804761Y-197282762D01*
X279899999Y-197330381D01*
X279995238Y-197330381D01*
X280090476Y-197282762D01*
X280138095Y-197235143D01*
X280185714Y-197139905D01*
X280233333Y-196949429D01*
X280233333Y-196711333D01*
X280185714Y-196520857D01*
X280138095Y-196425619D01*
X280090476Y-196378000D01*
X279995238Y-196330381D01*
X315539047Y-197235143D02*
X315586666Y-197282762D01*
X315729523Y-197330381D01*
X315824761Y-197330381D01*
X315967619Y-197282762D01*
X316062857Y-197187524D01*
X316110476Y-197092286D01*
X316158095Y-196901810D01*
X316158095Y-196758952D01*
X316110476Y-196568476D01*
X316062857Y-196473238D01*
X315967619Y-196378000D01*
X315824761Y-196330381D01*
X315729523Y-196330381D01*
X315586666Y-196378000D01*
X315539047Y-196425619D01*
X315205714Y-196330381D02*
X314586666Y-196330381D01*
X314920000Y-196711333D01*
X314777142Y-196711333D01*
X314681904Y-196758952D01*
X314634285Y-196806571D01*
X314586666Y-196901810D01*
X314586666Y-197139905D01*
X314634285Y-197235143D01*
X314681904Y-197282762D01*
X314777142Y-197330381D01*
X315062857Y-197330381D01*
X315158095Y-197282762D01*
X315205714Y-197235143D01*
X314205714Y-196425619D02*
X314158095Y-196378000D01*
X314062857Y-196330381D01*
X313824761Y-196330381D01*
X313729523Y-196378000D01*
X313681904Y-196425619D01*
X313634285Y-196520857D01*
X313634285Y-196616095D01*
X313681904Y-196758952D01*
X314253333Y-197330381D01*
X313634285Y-197330381D01*
X312681904Y-197330381D02*
X313253333Y-197330381D01*
X312967619Y-197330381D02*
X312967619Y-196330381D01*
X313062857Y-196473238D01*
X313158095Y-196568476D01*
X313253333Y-196616095D01*
X348559047Y-197235143D02*
X348606666Y-197282762D01*
X348749523Y-197330381D01*
X348844761Y-197330381D01*
X348987619Y-197282762D01*
X349082857Y-197187524D01*
X349130476Y-197092286D01*
X349178095Y-196901810D01*
X349178095Y-196758952D01*
X349130476Y-196568476D01*
X349082857Y-196473238D01*
X348987619Y-196378000D01*
X348844761Y-196330381D01*
X348749523Y-196330381D01*
X348606666Y-196378000D01*
X348559047Y-196425619D01*
X348225714Y-196330381D02*
X347606666Y-196330381D01*
X347940000Y-196711333D01*
X347797142Y-196711333D01*
X347701904Y-196758952D01*
X347654285Y-196806571D01*
X347606666Y-196901810D01*
X347606666Y-197139905D01*
X347654285Y-197235143D01*
X347701904Y-197282762D01*
X347797142Y-197330381D01*
X348082857Y-197330381D01*
X348178095Y-197282762D01*
X348225714Y-197235143D01*
X347225714Y-196425619D02*
X347178095Y-196378000D01*
X347082857Y-196330381D01*
X346844761Y-196330381D01*
X346749523Y-196378000D01*
X346701904Y-196425619D01*
X346654285Y-196520857D01*
X346654285Y-196616095D01*
X346701904Y-196758952D01*
X347273333Y-197330381D01*
X346654285Y-197330381D01*
X346273333Y-196425619D02*
X346225714Y-196378000D01*
X346130476Y-196330381D01*
X345892380Y-196330381D01*
X345797142Y-196378000D01*
X345749523Y-196425619D01*
X345701904Y-196520857D01*
X345701904Y-196616095D01*
X345749523Y-196758952D01*
X346320952Y-197330381D01*
X345701904Y-197330381D01*
X69064047Y-116077381D02*
X69397381Y-115601190D01*
X69635476Y-116077381D02*
X69635476Y-115077381D01*
X69254523Y-115077381D01*
X69159285Y-115125000D01*
X69111666Y-115172619D01*
X69064047Y-115267857D01*
X69064047Y-115410714D01*
X69111666Y-115505952D01*
X69159285Y-115553571D01*
X69254523Y-115601190D01*
X69635476Y-115601190D01*
X68683095Y-115172619D02*
X68635476Y-115125000D01*
X68540238Y-115077381D01*
X68302142Y-115077381D01*
X68206904Y-115125000D01*
X68159285Y-115172619D01*
X68111666Y-115267857D01*
X68111666Y-115363095D01*
X68159285Y-115505952D01*
X68730714Y-116077381D01*
X68111666Y-116077381D01*
X67492619Y-115077381D02*
X67397380Y-115077381D01*
X67302142Y-115125000D01*
X67254523Y-115172619D01*
X67206904Y-115267857D01*
X67159285Y-115458333D01*
X67159285Y-115696429D01*
X67206904Y-115886905D01*
X67254523Y-115982143D01*
X67302142Y-116029762D01*
X67397380Y-116077381D01*
X67492619Y-116077381D01*
X67587857Y-116029762D01*
X67635476Y-115982143D01*
X67683095Y-115886905D01*
X67730714Y-115696429D01*
X67730714Y-115458333D01*
X67683095Y-115267857D01*
X67635476Y-115172619D01*
X67587857Y-115125000D01*
X67492619Y-115077381D01*
X66206904Y-116077381D02*
X66778333Y-116077381D01*
X66492619Y-116077381D02*
X66492619Y-115077381D01*
X66587857Y-115220238D01*
X66683095Y-115315476D01*
X66778333Y-115363095D01*
X69064047Y-127507381D02*
X69397381Y-127031190D01*
X69635476Y-127507381D02*
X69635476Y-126507381D01*
X69254523Y-126507381D01*
X69159285Y-126555000D01*
X69111666Y-126602619D01*
X69064047Y-126697857D01*
X69064047Y-126840714D01*
X69111666Y-126935952D01*
X69159285Y-126983571D01*
X69254523Y-127031190D01*
X69635476Y-127031190D01*
X68683095Y-126602619D02*
X68635476Y-126555000D01*
X68540238Y-126507381D01*
X68302142Y-126507381D01*
X68206904Y-126555000D01*
X68159285Y-126602619D01*
X68111666Y-126697857D01*
X68111666Y-126793095D01*
X68159285Y-126935952D01*
X68730714Y-127507381D01*
X68111666Y-127507381D01*
X67492619Y-126507381D02*
X67397380Y-126507381D01*
X67302142Y-126555000D01*
X67254523Y-126602619D01*
X67206904Y-126697857D01*
X67159285Y-126888333D01*
X67159285Y-127126429D01*
X67206904Y-127316905D01*
X67254523Y-127412143D01*
X67302142Y-127459762D01*
X67397380Y-127507381D01*
X67492619Y-127507381D01*
X67587857Y-127459762D01*
X67635476Y-127412143D01*
X67683095Y-127316905D01*
X67730714Y-127126429D01*
X67730714Y-126888333D01*
X67683095Y-126697857D01*
X67635476Y-126602619D01*
X67587857Y-126555000D01*
X67492619Y-126507381D01*
X66778333Y-126602619D02*
X66730714Y-126555000D01*
X66635476Y-126507381D01*
X66397380Y-126507381D01*
X66302142Y-126555000D01*
X66254523Y-126602619D01*
X66206904Y-126697857D01*
X66206904Y-126793095D01*
X66254523Y-126935952D01*
X66825952Y-127507381D01*
X66206904Y-127507381D01*
X69064047Y-138937381D02*
X69397381Y-138461190D01*
X69635476Y-138937381D02*
X69635476Y-137937381D01*
X69254523Y-137937381D01*
X69159285Y-137985000D01*
X69111666Y-138032619D01*
X69064047Y-138127857D01*
X69064047Y-138270714D01*
X69111666Y-138365952D01*
X69159285Y-138413571D01*
X69254523Y-138461190D01*
X69635476Y-138461190D01*
X68683095Y-138032619D02*
X68635476Y-137985000D01*
X68540238Y-137937381D01*
X68302142Y-137937381D01*
X68206904Y-137985000D01*
X68159285Y-138032619D01*
X68111666Y-138127857D01*
X68111666Y-138223095D01*
X68159285Y-138365952D01*
X68730714Y-138937381D01*
X68111666Y-138937381D01*
X67492619Y-137937381D02*
X67397380Y-137937381D01*
X67302142Y-137985000D01*
X67254523Y-138032619D01*
X67206904Y-138127857D01*
X67159285Y-138318333D01*
X67159285Y-138556429D01*
X67206904Y-138746905D01*
X67254523Y-138842143D01*
X67302142Y-138889762D01*
X67397380Y-138937381D01*
X67492619Y-138937381D01*
X67587857Y-138889762D01*
X67635476Y-138842143D01*
X67683095Y-138746905D01*
X67730714Y-138556429D01*
X67730714Y-138318333D01*
X67683095Y-138127857D01*
X67635476Y-138032619D01*
X67587857Y-137985000D01*
X67492619Y-137937381D01*
X66825952Y-137937381D02*
X66206904Y-137937381D01*
X66540238Y-138318333D01*
X66397380Y-138318333D01*
X66302142Y-138365952D01*
X66254523Y-138413571D01*
X66206904Y-138508810D01*
X66206904Y-138746905D01*
X66254523Y-138842143D01*
X66302142Y-138889762D01*
X66397380Y-138937381D01*
X66683095Y-138937381D01*
X66778333Y-138889762D01*
X66825952Y-138842143D01*
X69064047Y-150367381D02*
X69397381Y-149891190D01*
X69635476Y-150367381D02*
X69635476Y-149367381D01*
X69254523Y-149367381D01*
X69159285Y-149415000D01*
X69111666Y-149462619D01*
X69064047Y-149557857D01*
X69064047Y-149700714D01*
X69111666Y-149795952D01*
X69159285Y-149843571D01*
X69254523Y-149891190D01*
X69635476Y-149891190D01*
X68683095Y-149462619D02*
X68635476Y-149415000D01*
X68540238Y-149367381D01*
X68302142Y-149367381D01*
X68206904Y-149415000D01*
X68159285Y-149462619D01*
X68111666Y-149557857D01*
X68111666Y-149653095D01*
X68159285Y-149795952D01*
X68730714Y-150367381D01*
X68111666Y-150367381D01*
X67492619Y-149367381D02*
X67397380Y-149367381D01*
X67302142Y-149415000D01*
X67254523Y-149462619D01*
X67206904Y-149557857D01*
X67159285Y-149748333D01*
X67159285Y-149986429D01*
X67206904Y-150176905D01*
X67254523Y-150272143D01*
X67302142Y-150319762D01*
X67397380Y-150367381D01*
X67492619Y-150367381D01*
X67587857Y-150319762D01*
X67635476Y-150272143D01*
X67683095Y-150176905D01*
X67730714Y-149986429D01*
X67730714Y-149748333D01*
X67683095Y-149557857D01*
X67635476Y-149462619D01*
X67587857Y-149415000D01*
X67492619Y-149367381D01*
X66302142Y-149700714D02*
X66302142Y-150367381D01*
X66540238Y-149319762D02*
X66778333Y-150034048D01*
X66159285Y-150034048D01*
X69064047Y-161797381D02*
X69397381Y-161321190D01*
X69635476Y-161797381D02*
X69635476Y-160797381D01*
X69254523Y-160797381D01*
X69159285Y-160845000D01*
X69111666Y-160892619D01*
X69064047Y-160987857D01*
X69064047Y-161130714D01*
X69111666Y-161225952D01*
X69159285Y-161273571D01*
X69254523Y-161321190D01*
X69635476Y-161321190D01*
X68683095Y-160892619D02*
X68635476Y-160845000D01*
X68540238Y-160797381D01*
X68302142Y-160797381D01*
X68206904Y-160845000D01*
X68159285Y-160892619D01*
X68111666Y-160987857D01*
X68111666Y-161083095D01*
X68159285Y-161225952D01*
X68730714Y-161797381D01*
X68111666Y-161797381D01*
X67492619Y-160797381D02*
X67397380Y-160797381D01*
X67302142Y-160845000D01*
X67254523Y-160892619D01*
X67206904Y-160987857D01*
X67159285Y-161178333D01*
X67159285Y-161416429D01*
X67206904Y-161606905D01*
X67254523Y-161702143D01*
X67302142Y-161749762D01*
X67397380Y-161797381D01*
X67492619Y-161797381D01*
X67587857Y-161749762D01*
X67635476Y-161702143D01*
X67683095Y-161606905D01*
X67730714Y-161416429D01*
X67730714Y-161178333D01*
X67683095Y-160987857D01*
X67635476Y-160892619D01*
X67587857Y-160845000D01*
X67492619Y-160797381D01*
X66254523Y-160797381D02*
X66730714Y-160797381D01*
X66778333Y-161273571D01*
X66730714Y-161225952D01*
X66635476Y-161178333D01*
X66397380Y-161178333D01*
X66302142Y-161225952D01*
X66254523Y-161273571D01*
X66206904Y-161368810D01*
X66206904Y-161606905D01*
X66254523Y-161702143D01*
X66302142Y-161749762D01*
X66397380Y-161797381D01*
X66635476Y-161797381D01*
X66730714Y-161749762D01*
X66778333Y-161702143D01*
X69064047Y-173227381D02*
X69397381Y-172751190D01*
X69635476Y-173227381D02*
X69635476Y-172227381D01*
X69254523Y-172227381D01*
X69159285Y-172275000D01*
X69111666Y-172322619D01*
X69064047Y-172417857D01*
X69064047Y-172560714D01*
X69111666Y-172655952D01*
X69159285Y-172703571D01*
X69254523Y-172751190D01*
X69635476Y-172751190D01*
X68683095Y-172322619D02*
X68635476Y-172275000D01*
X68540238Y-172227381D01*
X68302142Y-172227381D01*
X68206904Y-172275000D01*
X68159285Y-172322619D01*
X68111666Y-172417857D01*
X68111666Y-172513095D01*
X68159285Y-172655952D01*
X68730714Y-173227381D01*
X68111666Y-173227381D01*
X67492619Y-172227381D02*
X67397380Y-172227381D01*
X67302142Y-172275000D01*
X67254523Y-172322619D01*
X67206904Y-172417857D01*
X67159285Y-172608333D01*
X67159285Y-172846429D01*
X67206904Y-173036905D01*
X67254523Y-173132143D01*
X67302142Y-173179762D01*
X67397380Y-173227381D01*
X67492619Y-173227381D01*
X67587857Y-173179762D01*
X67635476Y-173132143D01*
X67683095Y-173036905D01*
X67730714Y-172846429D01*
X67730714Y-172608333D01*
X67683095Y-172417857D01*
X67635476Y-172322619D01*
X67587857Y-172275000D01*
X67492619Y-172227381D01*
X66302142Y-172227381D02*
X66492619Y-172227381D01*
X66587857Y-172275000D01*
X66635476Y-172322619D01*
X66730714Y-172465476D01*
X66778333Y-172655952D01*
X66778333Y-173036905D01*
X66730714Y-173132143D01*
X66683095Y-173179762D01*
X66587857Y-173227381D01*
X66397380Y-173227381D01*
X66302142Y-173179762D01*
X66254523Y-173132143D01*
X66206904Y-173036905D01*
X66206904Y-172798810D01*
X66254523Y-172703571D01*
X66302142Y-172655952D01*
X66397380Y-172608333D01*
X66587857Y-172608333D01*
X66683095Y-172655952D01*
X66730714Y-172703571D01*
X66778333Y-172798810D01*
X69064047Y-184657381D02*
X69397381Y-184181190D01*
X69635476Y-184657381D02*
X69635476Y-183657381D01*
X69254523Y-183657381D01*
X69159285Y-183705000D01*
X69111666Y-183752619D01*
X69064047Y-183847857D01*
X69064047Y-183990714D01*
X69111666Y-184085952D01*
X69159285Y-184133571D01*
X69254523Y-184181190D01*
X69635476Y-184181190D01*
X68683095Y-183752619D02*
X68635476Y-183705000D01*
X68540238Y-183657381D01*
X68302142Y-183657381D01*
X68206904Y-183705000D01*
X68159285Y-183752619D01*
X68111666Y-183847857D01*
X68111666Y-183943095D01*
X68159285Y-184085952D01*
X68730714Y-184657381D01*
X68111666Y-184657381D01*
X67492619Y-183657381D02*
X67397380Y-183657381D01*
X67302142Y-183705000D01*
X67254523Y-183752619D01*
X67206904Y-183847857D01*
X67159285Y-184038333D01*
X67159285Y-184276429D01*
X67206904Y-184466905D01*
X67254523Y-184562143D01*
X67302142Y-184609762D01*
X67397380Y-184657381D01*
X67492619Y-184657381D01*
X67587857Y-184609762D01*
X67635476Y-184562143D01*
X67683095Y-184466905D01*
X67730714Y-184276429D01*
X67730714Y-184038333D01*
X67683095Y-183847857D01*
X67635476Y-183752619D01*
X67587857Y-183705000D01*
X67492619Y-183657381D01*
X66825952Y-183657381D02*
X66159285Y-183657381D01*
X66587857Y-184657381D01*
X69064047Y-196087381D02*
X69397381Y-195611190D01*
X69635476Y-196087381D02*
X69635476Y-195087381D01*
X69254523Y-195087381D01*
X69159285Y-195135000D01*
X69111666Y-195182619D01*
X69064047Y-195277857D01*
X69064047Y-195420714D01*
X69111666Y-195515952D01*
X69159285Y-195563571D01*
X69254523Y-195611190D01*
X69635476Y-195611190D01*
X68683095Y-195182619D02*
X68635476Y-195135000D01*
X68540238Y-195087381D01*
X68302142Y-195087381D01*
X68206904Y-195135000D01*
X68159285Y-195182619D01*
X68111666Y-195277857D01*
X68111666Y-195373095D01*
X68159285Y-195515952D01*
X68730714Y-196087381D01*
X68111666Y-196087381D01*
X67492619Y-195087381D02*
X67397380Y-195087381D01*
X67302142Y-195135000D01*
X67254523Y-195182619D01*
X67206904Y-195277857D01*
X67159285Y-195468333D01*
X67159285Y-195706429D01*
X67206904Y-195896905D01*
X67254523Y-195992143D01*
X67302142Y-196039762D01*
X67397380Y-196087381D01*
X67492619Y-196087381D01*
X67587857Y-196039762D01*
X67635476Y-195992143D01*
X67683095Y-195896905D01*
X67730714Y-195706429D01*
X67730714Y-195468333D01*
X67683095Y-195277857D01*
X67635476Y-195182619D01*
X67587857Y-195135000D01*
X67492619Y-195087381D01*
X66587857Y-195515952D02*
X66683095Y-195468333D01*
X66730714Y-195420714D01*
X66778333Y-195325476D01*
X66778333Y-195277857D01*
X66730714Y-195182619D01*
X66683095Y-195135000D01*
X66587857Y-195087381D01*
X66397380Y-195087381D01*
X66302142Y-195135000D01*
X66254523Y-195182619D01*
X66206904Y-195277857D01*
X66206904Y-195325476D01*
X66254523Y-195420714D01*
X66302142Y-195468333D01*
X66397380Y-195515952D01*
X66587857Y-195515952D01*
X66683095Y-195563571D01*
X66730714Y-195611190D01*
X66778333Y-195706429D01*
X66778333Y-195896905D01*
X66730714Y-195992143D01*
X66683095Y-196039762D01*
X66587857Y-196087381D01*
X66397380Y-196087381D01*
X66302142Y-196039762D01*
X66254523Y-195992143D01*
X66206904Y-195896905D01*
X66206904Y-195706429D01*
X66254523Y-195611190D01*
X66302142Y-195563571D01*
X66397380Y-195515952D01*
X101925047Y-115950381D02*
X102258381Y-115474190D01*
X102496476Y-115950381D02*
X102496476Y-114950381D01*
X102115523Y-114950381D01*
X102020285Y-114998000D01*
X101972666Y-115045619D01*
X101925047Y-115140857D01*
X101925047Y-115283714D01*
X101972666Y-115378952D01*
X102020285Y-115426571D01*
X102115523Y-115474190D01*
X102496476Y-115474190D01*
X101544095Y-115045619D02*
X101496476Y-114998000D01*
X101401238Y-114950381D01*
X101163142Y-114950381D01*
X101067904Y-114998000D01*
X101020285Y-115045619D01*
X100972666Y-115140857D01*
X100972666Y-115236095D01*
X101020285Y-115378952D01*
X101591714Y-115950381D01*
X100972666Y-115950381D01*
X100353619Y-114950381D02*
X100258380Y-114950381D01*
X100163142Y-114998000D01*
X100115523Y-115045619D01*
X100067904Y-115140857D01*
X100020285Y-115331333D01*
X100020285Y-115569429D01*
X100067904Y-115759905D01*
X100115523Y-115855143D01*
X100163142Y-115902762D01*
X100258380Y-115950381D01*
X100353619Y-115950381D01*
X100448857Y-115902762D01*
X100496476Y-115855143D01*
X100544095Y-115759905D01*
X100591714Y-115569429D01*
X100591714Y-115331333D01*
X100544095Y-115140857D01*
X100496476Y-115045619D01*
X100448857Y-114998000D01*
X100353619Y-114950381D01*
X99544095Y-115950381D02*
X99353619Y-115950381D01*
X99258380Y-115902762D01*
X99210761Y-115855143D01*
X99115523Y-115712286D01*
X99067904Y-115521810D01*
X99067904Y-115140857D01*
X99115523Y-115045619D01*
X99163142Y-114998000D01*
X99258380Y-114950381D01*
X99448857Y-114950381D01*
X99544095Y-114998000D01*
X99591714Y-115045619D01*
X99639333Y-115140857D01*
X99639333Y-115378952D01*
X99591714Y-115474190D01*
X99544095Y-115521810D01*
X99448857Y-115569429D01*
X99258380Y-115569429D01*
X99163142Y-115521810D01*
X99115523Y-115474190D01*
X99067904Y-115378952D01*
X102084047Y-127507381D02*
X102417381Y-127031190D01*
X102655476Y-127507381D02*
X102655476Y-126507381D01*
X102274523Y-126507381D01*
X102179285Y-126555000D01*
X102131666Y-126602619D01*
X102084047Y-126697857D01*
X102084047Y-126840714D01*
X102131666Y-126935952D01*
X102179285Y-126983571D01*
X102274523Y-127031190D01*
X102655476Y-127031190D01*
X101703095Y-126602619D02*
X101655476Y-126555000D01*
X101560238Y-126507381D01*
X101322142Y-126507381D01*
X101226904Y-126555000D01*
X101179285Y-126602619D01*
X101131666Y-126697857D01*
X101131666Y-126793095D01*
X101179285Y-126935952D01*
X101750714Y-127507381D01*
X101131666Y-127507381D01*
X100179285Y-127507381D02*
X100750714Y-127507381D01*
X100465000Y-127507381D02*
X100465000Y-126507381D01*
X100560238Y-126650238D01*
X100655476Y-126745476D01*
X100750714Y-126793095D01*
X99560238Y-126507381D02*
X99464999Y-126507381D01*
X99369761Y-126555000D01*
X99322142Y-126602619D01*
X99274523Y-126697857D01*
X99226904Y-126888333D01*
X99226904Y-127126429D01*
X99274523Y-127316905D01*
X99322142Y-127412143D01*
X99369761Y-127459762D01*
X99464999Y-127507381D01*
X99560238Y-127507381D01*
X99655476Y-127459762D01*
X99703095Y-127412143D01*
X99750714Y-127316905D01*
X99798333Y-127126429D01*
X99798333Y-126888333D01*
X99750714Y-126697857D01*
X99703095Y-126602619D01*
X99655476Y-126555000D01*
X99560238Y-126507381D01*
X102084047Y-138937381D02*
X102417381Y-138461190D01*
X102655476Y-138937381D02*
X102655476Y-137937381D01*
X102274523Y-137937381D01*
X102179285Y-137985000D01*
X102131666Y-138032619D01*
X102084047Y-138127857D01*
X102084047Y-138270714D01*
X102131666Y-138365952D01*
X102179285Y-138413571D01*
X102274523Y-138461190D01*
X102655476Y-138461190D01*
X101703095Y-138032619D02*
X101655476Y-137985000D01*
X101560238Y-137937381D01*
X101322142Y-137937381D01*
X101226904Y-137985000D01*
X101179285Y-138032619D01*
X101131666Y-138127857D01*
X101131666Y-138223095D01*
X101179285Y-138365952D01*
X101750714Y-138937381D01*
X101131666Y-138937381D01*
X100179285Y-138937381D02*
X100750714Y-138937381D01*
X100465000Y-138937381D02*
X100465000Y-137937381D01*
X100560238Y-138080238D01*
X100655476Y-138175476D01*
X100750714Y-138223095D01*
X99226904Y-138937381D02*
X99798333Y-138937381D01*
X99512619Y-138937381D02*
X99512619Y-137937381D01*
X99607857Y-138080238D01*
X99703095Y-138175476D01*
X99798333Y-138223095D01*
X102084047Y-150367381D02*
X102417381Y-149891190D01*
X102655476Y-150367381D02*
X102655476Y-149367381D01*
X102274523Y-149367381D01*
X102179285Y-149415000D01*
X102131666Y-149462619D01*
X102084047Y-149557857D01*
X102084047Y-149700714D01*
X102131666Y-149795952D01*
X102179285Y-149843571D01*
X102274523Y-149891190D01*
X102655476Y-149891190D01*
X101703095Y-149462619D02*
X101655476Y-149415000D01*
X101560238Y-149367381D01*
X101322142Y-149367381D01*
X101226904Y-149415000D01*
X101179285Y-149462619D01*
X101131666Y-149557857D01*
X101131666Y-149653095D01*
X101179285Y-149795952D01*
X101750714Y-150367381D01*
X101131666Y-150367381D01*
X100179285Y-150367381D02*
X100750714Y-150367381D01*
X100465000Y-150367381D02*
X100465000Y-149367381D01*
X100560238Y-149510238D01*
X100655476Y-149605476D01*
X100750714Y-149653095D01*
X99798333Y-149462619D02*
X99750714Y-149415000D01*
X99655476Y-149367381D01*
X99417380Y-149367381D01*
X99322142Y-149415000D01*
X99274523Y-149462619D01*
X99226904Y-149557857D01*
X99226904Y-149653095D01*
X99274523Y-149795952D01*
X99845952Y-150367381D01*
X99226904Y-150367381D01*
X102084047Y-161797381D02*
X102417381Y-161321190D01*
X102655476Y-161797381D02*
X102655476Y-160797381D01*
X102274523Y-160797381D01*
X102179285Y-160845000D01*
X102131666Y-160892619D01*
X102084047Y-160987857D01*
X102084047Y-161130714D01*
X102131666Y-161225952D01*
X102179285Y-161273571D01*
X102274523Y-161321190D01*
X102655476Y-161321190D01*
X101703095Y-160892619D02*
X101655476Y-160845000D01*
X101560238Y-160797381D01*
X101322142Y-160797381D01*
X101226904Y-160845000D01*
X101179285Y-160892619D01*
X101131666Y-160987857D01*
X101131666Y-161083095D01*
X101179285Y-161225952D01*
X101750714Y-161797381D01*
X101131666Y-161797381D01*
X100179285Y-161797381D02*
X100750714Y-161797381D01*
X100465000Y-161797381D02*
X100465000Y-160797381D01*
X100560238Y-160940238D01*
X100655476Y-161035476D01*
X100750714Y-161083095D01*
X99845952Y-160797381D02*
X99226904Y-160797381D01*
X99560238Y-161178333D01*
X99417380Y-161178333D01*
X99322142Y-161225952D01*
X99274523Y-161273571D01*
X99226904Y-161368810D01*
X99226904Y-161606905D01*
X99274523Y-161702143D01*
X99322142Y-161749762D01*
X99417380Y-161797381D01*
X99703095Y-161797381D01*
X99798333Y-161749762D01*
X99845952Y-161702143D01*
X102084047Y-173227381D02*
X102417381Y-172751190D01*
X102655476Y-173227381D02*
X102655476Y-172227381D01*
X102274523Y-172227381D01*
X102179285Y-172275000D01*
X102131666Y-172322619D01*
X102084047Y-172417857D01*
X102084047Y-172560714D01*
X102131666Y-172655952D01*
X102179285Y-172703571D01*
X102274523Y-172751190D01*
X102655476Y-172751190D01*
X101703095Y-172322619D02*
X101655476Y-172275000D01*
X101560238Y-172227381D01*
X101322142Y-172227381D01*
X101226904Y-172275000D01*
X101179285Y-172322619D01*
X101131666Y-172417857D01*
X101131666Y-172513095D01*
X101179285Y-172655952D01*
X101750714Y-173227381D01*
X101131666Y-173227381D01*
X100179285Y-173227381D02*
X100750714Y-173227381D01*
X100465000Y-173227381D02*
X100465000Y-172227381D01*
X100560238Y-172370238D01*
X100655476Y-172465476D01*
X100750714Y-172513095D01*
X99322142Y-172560714D02*
X99322142Y-173227381D01*
X99560238Y-172179762D02*
X99798333Y-172894048D01*
X99179285Y-172894048D01*
X102084047Y-184657381D02*
X102417381Y-184181190D01*
X102655476Y-184657381D02*
X102655476Y-183657381D01*
X102274523Y-183657381D01*
X102179285Y-183705000D01*
X102131666Y-183752619D01*
X102084047Y-183847857D01*
X102084047Y-183990714D01*
X102131666Y-184085952D01*
X102179285Y-184133571D01*
X102274523Y-184181190D01*
X102655476Y-184181190D01*
X101703095Y-183752619D02*
X101655476Y-183705000D01*
X101560238Y-183657381D01*
X101322142Y-183657381D01*
X101226904Y-183705000D01*
X101179285Y-183752619D01*
X101131666Y-183847857D01*
X101131666Y-183943095D01*
X101179285Y-184085952D01*
X101750714Y-184657381D01*
X101131666Y-184657381D01*
X100179285Y-184657381D02*
X100750714Y-184657381D01*
X100465000Y-184657381D02*
X100465000Y-183657381D01*
X100560238Y-183800238D01*
X100655476Y-183895476D01*
X100750714Y-183943095D01*
X99274523Y-183657381D02*
X99750714Y-183657381D01*
X99798333Y-184133571D01*
X99750714Y-184085952D01*
X99655476Y-184038333D01*
X99417380Y-184038333D01*
X99322142Y-184085952D01*
X99274523Y-184133571D01*
X99226904Y-184228810D01*
X99226904Y-184466905D01*
X99274523Y-184562143D01*
X99322142Y-184609762D01*
X99417380Y-184657381D01*
X99655476Y-184657381D01*
X99750714Y-184609762D01*
X99798333Y-184562143D01*
X102084047Y-196087381D02*
X102417381Y-195611190D01*
X102655476Y-196087381D02*
X102655476Y-195087381D01*
X102274523Y-195087381D01*
X102179285Y-195135000D01*
X102131666Y-195182619D01*
X102084047Y-195277857D01*
X102084047Y-195420714D01*
X102131666Y-195515952D01*
X102179285Y-195563571D01*
X102274523Y-195611190D01*
X102655476Y-195611190D01*
X101703095Y-195182619D02*
X101655476Y-195135000D01*
X101560238Y-195087381D01*
X101322142Y-195087381D01*
X101226904Y-195135000D01*
X101179285Y-195182619D01*
X101131666Y-195277857D01*
X101131666Y-195373095D01*
X101179285Y-195515952D01*
X101750714Y-196087381D01*
X101131666Y-196087381D01*
X100179285Y-196087381D02*
X100750714Y-196087381D01*
X100465000Y-196087381D02*
X100465000Y-195087381D01*
X100560238Y-195230238D01*
X100655476Y-195325476D01*
X100750714Y-195373095D01*
X99322142Y-195087381D02*
X99512619Y-195087381D01*
X99607857Y-195135000D01*
X99655476Y-195182619D01*
X99750714Y-195325476D01*
X99798333Y-195515952D01*
X99798333Y-195896905D01*
X99750714Y-195992143D01*
X99703095Y-196039762D01*
X99607857Y-196087381D01*
X99417380Y-196087381D01*
X99322142Y-196039762D01*
X99274523Y-195992143D01*
X99226904Y-195896905D01*
X99226904Y-195658810D01*
X99274523Y-195563571D01*
X99322142Y-195515952D01*
X99417380Y-195468333D01*
X99607857Y-195468333D01*
X99703095Y-195515952D01*
X99750714Y-195563571D01*
X99798333Y-195658810D01*
X135104047Y-116077381D02*
X135437381Y-115601190D01*
X135675476Y-116077381D02*
X135675476Y-115077381D01*
X135294523Y-115077381D01*
X135199285Y-115125000D01*
X135151666Y-115172619D01*
X135104047Y-115267857D01*
X135104047Y-115410714D01*
X135151666Y-115505952D01*
X135199285Y-115553571D01*
X135294523Y-115601190D01*
X135675476Y-115601190D01*
X134723095Y-115172619D02*
X134675476Y-115125000D01*
X134580238Y-115077381D01*
X134342142Y-115077381D01*
X134246904Y-115125000D01*
X134199285Y-115172619D01*
X134151666Y-115267857D01*
X134151666Y-115363095D01*
X134199285Y-115505952D01*
X134770714Y-116077381D01*
X134151666Y-116077381D01*
X133199285Y-116077381D02*
X133770714Y-116077381D01*
X133485000Y-116077381D02*
X133485000Y-115077381D01*
X133580238Y-115220238D01*
X133675476Y-115315476D01*
X133770714Y-115363095D01*
X132865952Y-115077381D02*
X132199285Y-115077381D01*
X132627857Y-116077381D01*
X135104047Y-127507381D02*
X135437381Y-127031190D01*
X135675476Y-127507381D02*
X135675476Y-126507381D01*
X135294523Y-126507381D01*
X135199285Y-126555000D01*
X135151666Y-126602619D01*
X135104047Y-126697857D01*
X135104047Y-126840714D01*
X135151666Y-126935952D01*
X135199285Y-126983571D01*
X135294523Y-127031190D01*
X135675476Y-127031190D01*
X134723095Y-126602619D02*
X134675476Y-126555000D01*
X134580238Y-126507381D01*
X134342142Y-126507381D01*
X134246904Y-126555000D01*
X134199285Y-126602619D01*
X134151666Y-126697857D01*
X134151666Y-126793095D01*
X134199285Y-126935952D01*
X134770714Y-127507381D01*
X134151666Y-127507381D01*
X133199285Y-127507381D02*
X133770714Y-127507381D01*
X133485000Y-127507381D02*
X133485000Y-126507381D01*
X133580238Y-126650238D01*
X133675476Y-126745476D01*
X133770714Y-126793095D01*
X132627857Y-126935952D02*
X132723095Y-126888333D01*
X132770714Y-126840714D01*
X132818333Y-126745476D01*
X132818333Y-126697857D01*
X132770714Y-126602619D01*
X132723095Y-126555000D01*
X132627857Y-126507381D01*
X132437380Y-126507381D01*
X132342142Y-126555000D01*
X132294523Y-126602619D01*
X132246904Y-126697857D01*
X132246904Y-126745476D01*
X132294523Y-126840714D01*
X132342142Y-126888333D01*
X132437380Y-126935952D01*
X132627857Y-126935952D01*
X132723095Y-126983571D01*
X132770714Y-127031190D01*
X132818333Y-127126429D01*
X132818333Y-127316905D01*
X132770714Y-127412143D01*
X132723095Y-127459762D01*
X132627857Y-127507381D01*
X132437380Y-127507381D01*
X132342142Y-127459762D01*
X132294523Y-127412143D01*
X132246904Y-127316905D01*
X132246904Y-127126429D01*
X132294523Y-127031190D01*
X132342142Y-126983571D01*
X132437380Y-126935952D01*
X135104047Y-138937381D02*
X135437381Y-138461190D01*
X135675476Y-138937381D02*
X135675476Y-137937381D01*
X135294523Y-137937381D01*
X135199285Y-137985000D01*
X135151666Y-138032619D01*
X135104047Y-138127857D01*
X135104047Y-138270714D01*
X135151666Y-138365952D01*
X135199285Y-138413571D01*
X135294523Y-138461190D01*
X135675476Y-138461190D01*
X134723095Y-138032619D02*
X134675476Y-137985000D01*
X134580238Y-137937381D01*
X134342142Y-137937381D01*
X134246904Y-137985000D01*
X134199285Y-138032619D01*
X134151666Y-138127857D01*
X134151666Y-138223095D01*
X134199285Y-138365952D01*
X134770714Y-138937381D01*
X134151666Y-138937381D01*
X133199285Y-138937381D02*
X133770714Y-138937381D01*
X133485000Y-138937381D02*
X133485000Y-137937381D01*
X133580238Y-138080238D01*
X133675476Y-138175476D01*
X133770714Y-138223095D01*
X132723095Y-138937381D02*
X132532619Y-138937381D01*
X132437380Y-138889762D01*
X132389761Y-138842143D01*
X132294523Y-138699286D01*
X132246904Y-138508810D01*
X132246904Y-138127857D01*
X132294523Y-138032619D01*
X132342142Y-137985000D01*
X132437380Y-137937381D01*
X132627857Y-137937381D01*
X132723095Y-137985000D01*
X132770714Y-138032619D01*
X132818333Y-138127857D01*
X132818333Y-138365952D01*
X132770714Y-138461190D01*
X132723095Y-138508810D01*
X132627857Y-138556429D01*
X132437380Y-138556429D01*
X132342142Y-138508810D01*
X132294523Y-138461190D01*
X132246904Y-138365952D01*
X135104047Y-150367381D02*
X135437381Y-149891190D01*
X135675476Y-150367381D02*
X135675476Y-149367381D01*
X135294523Y-149367381D01*
X135199285Y-149415000D01*
X135151666Y-149462619D01*
X135104047Y-149557857D01*
X135104047Y-149700714D01*
X135151666Y-149795952D01*
X135199285Y-149843571D01*
X135294523Y-149891190D01*
X135675476Y-149891190D01*
X134723095Y-149462619D02*
X134675476Y-149415000D01*
X134580238Y-149367381D01*
X134342142Y-149367381D01*
X134246904Y-149415000D01*
X134199285Y-149462619D01*
X134151666Y-149557857D01*
X134151666Y-149653095D01*
X134199285Y-149795952D01*
X134770714Y-150367381D01*
X134151666Y-150367381D01*
X133770714Y-149462619D02*
X133723095Y-149415000D01*
X133627857Y-149367381D01*
X133389761Y-149367381D01*
X133294523Y-149415000D01*
X133246904Y-149462619D01*
X133199285Y-149557857D01*
X133199285Y-149653095D01*
X133246904Y-149795952D01*
X133818333Y-150367381D01*
X133199285Y-150367381D01*
X132580238Y-149367381D02*
X132484999Y-149367381D01*
X132389761Y-149415000D01*
X132342142Y-149462619D01*
X132294523Y-149557857D01*
X132246904Y-149748333D01*
X132246904Y-149986429D01*
X132294523Y-150176905D01*
X132342142Y-150272143D01*
X132389761Y-150319762D01*
X132484999Y-150367381D01*
X132580238Y-150367381D01*
X132675476Y-150319762D01*
X132723095Y-150272143D01*
X132770714Y-150176905D01*
X132818333Y-149986429D01*
X132818333Y-149748333D01*
X132770714Y-149557857D01*
X132723095Y-149462619D01*
X132675476Y-149415000D01*
X132580238Y-149367381D01*
X135104047Y-161797381D02*
X135437381Y-161321190D01*
X135675476Y-161797381D02*
X135675476Y-160797381D01*
X135294523Y-160797381D01*
X135199285Y-160845000D01*
X135151666Y-160892619D01*
X135104047Y-160987857D01*
X135104047Y-161130714D01*
X135151666Y-161225952D01*
X135199285Y-161273571D01*
X135294523Y-161321190D01*
X135675476Y-161321190D01*
X134723095Y-160892619D02*
X134675476Y-160845000D01*
X134580238Y-160797381D01*
X134342142Y-160797381D01*
X134246904Y-160845000D01*
X134199285Y-160892619D01*
X134151666Y-160987857D01*
X134151666Y-161083095D01*
X134199285Y-161225952D01*
X134770714Y-161797381D01*
X134151666Y-161797381D01*
X133770714Y-160892619D02*
X133723095Y-160845000D01*
X133627857Y-160797381D01*
X133389761Y-160797381D01*
X133294523Y-160845000D01*
X133246904Y-160892619D01*
X133199285Y-160987857D01*
X133199285Y-161083095D01*
X133246904Y-161225952D01*
X133818333Y-161797381D01*
X133199285Y-161797381D01*
X132246904Y-161797381D02*
X132818333Y-161797381D01*
X132532619Y-161797381D02*
X132532619Y-160797381D01*
X132627857Y-160940238D01*
X132723095Y-161035476D01*
X132818333Y-161083095D01*
X135104047Y-173227381D02*
X135437381Y-172751190D01*
X135675476Y-173227381D02*
X135675476Y-172227381D01*
X135294523Y-172227381D01*
X135199285Y-172275000D01*
X135151666Y-172322619D01*
X135104047Y-172417857D01*
X135104047Y-172560714D01*
X135151666Y-172655952D01*
X135199285Y-172703571D01*
X135294523Y-172751190D01*
X135675476Y-172751190D01*
X134723095Y-172322619D02*
X134675476Y-172275000D01*
X134580238Y-172227381D01*
X134342142Y-172227381D01*
X134246904Y-172275000D01*
X134199285Y-172322619D01*
X134151666Y-172417857D01*
X134151666Y-172513095D01*
X134199285Y-172655952D01*
X134770714Y-173227381D01*
X134151666Y-173227381D01*
X133770714Y-172322619D02*
X133723095Y-172275000D01*
X133627857Y-172227381D01*
X133389761Y-172227381D01*
X133294523Y-172275000D01*
X133246904Y-172322619D01*
X133199285Y-172417857D01*
X133199285Y-172513095D01*
X133246904Y-172655952D01*
X133818333Y-173227381D01*
X133199285Y-173227381D01*
X132818333Y-172322619D02*
X132770714Y-172275000D01*
X132675476Y-172227381D01*
X132437380Y-172227381D01*
X132342142Y-172275000D01*
X132294523Y-172322619D01*
X132246904Y-172417857D01*
X132246904Y-172513095D01*
X132294523Y-172655952D01*
X132865952Y-173227381D01*
X132246904Y-173227381D01*
X135104047Y-184657381D02*
X135437381Y-184181190D01*
X135675476Y-184657381D02*
X135675476Y-183657381D01*
X135294523Y-183657381D01*
X135199285Y-183705000D01*
X135151666Y-183752619D01*
X135104047Y-183847857D01*
X135104047Y-183990714D01*
X135151666Y-184085952D01*
X135199285Y-184133571D01*
X135294523Y-184181190D01*
X135675476Y-184181190D01*
X134723095Y-183752619D02*
X134675476Y-183705000D01*
X134580238Y-183657381D01*
X134342142Y-183657381D01*
X134246904Y-183705000D01*
X134199285Y-183752619D01*
X134151666Y-183847857D01*
X134151666Y-183943095D01*
X134199285Y-184085952D01*
X134770714Y-184657381D01*
X134151666Y-184657381D01*
X133770714Y-183752619D02*
X133723095Y-183705000D01*
X133627857Y-183657381D01*
X133389761Y-183657381D01*
X133294523Y-183705000D01*
X133246904Y-183752619D01*
X133199285Y-183847857D01*
X133199285Y-183943095D01*
X133246904Y-184085952D01*
X133818333Y-184657381D01*
X133199285Y-184657381D01*
X132865952Y-183657381D02*
X132246904Y-183657381D01*
X132580238Y-184038333D01*
X132437380Y-184038333D01*
X132342142Y-184085952D01*
X132294523Y-184133571D01*
X132246904Y-184228810D01*
X132246904Y-184466905D01*
X132294523Y-184562143D01*
X132342142Y-184609762D01*
X132437380Y-184657381D01*
X132723095Y-184657381D01*
X132818333Y-184609762D01*
X132865952Y-184562143D01*
X135104047Y-196087381D02*
X135437381Y-195611190D01*
X135675476Y-196087381D02*
X135675476Y-195087381D01*
X135294523Y-195087381D01*
X135199285Y-195135000D01*
X135151666Y-195182619D01*
X135104047Y-195277857D01*
X135104047Y-195420714D01*
X135151666Y-195515952D01*
X135199285Y-195563571D01*
X135294523Y-195611190D01*
X135675476Y-195611190D01*
X134723095Y-195182619D02*
X134675476Y-195135000D01*
X134580238Y-195087381D01*
X134342142Y-195087381D01*
X134246904Y-195135000D01*
X134199285Y-195182619D01*
X134151666Y-195277857D01*
X134151666Y-195373095D01*
X134199285Y-195515952D01*
X134770714Y-196087381D01*
X134151666Y-196087381D01*
X133770714Y-195182619D02*
X133723095Y-195135000D01*
X133627857Y-195087381D01*
X133389761Y-195087381D01*
X133294523Y-195135000D01*
X133246904Y-195182619D01*
X133199285Y-195277857D01*
X133199285Y-195373095D01*
X133246904Y-195515952D01*
X133818333Y-196087381D01*
X133199285Y-196087381D01*
X132342142Y-195420714D02*
X132342142Y-196087381D01*
X132580238Y-195039762D02*
X132818333Y-195754048D01*
X132199285Y-195754048D01*
X168143729Y-127485943D02*
X168477063Y-127009752D01*
X168715158Y-127485943D02*
X168715158Y-126485943D01*
X168334205Y-126485943D01*
X168238967Y-126533562D01*
X168191348Y-126581181D01*
X168143729Y-126676419D01*
X168143729Y-126819276D01*
X168191348Y-126914514D01*
X168238967Y-126962133D01*
X168334205Y-127009752D01*
X168715158Y-127009752D01*
X167762777Y-126581181D02*
X167715158Y-126533562D01*
X167619920Y-126485943D01*
X167381824Y-126485943D01*
X167286586Y-126533562D01*
X167238967Y-126581181D01*
X167191348Y-126676419D01*
X167191348Y-126771657D01*
X167238967Y-126914514D01*
X167810396Y-127485943D01*
X167191348Y-127485943D01*
X166810396Y-126581181D02*
X166762777Y-126533562D01*
X166667539Y-126485943D01*
X166429443Y-126485943D01*
X166334205Y-126533562D01*
X166286586Y-126581181D01*
X166238967Y-126676419D01*
X166238967Y-126771657D01*
X166286586Y-126914514D01*
X166858015Y-127485943D01*
X166238967Y-127485943D01*
X165381824Y-126485943D02*
X165572301Y-126485943D01*
X165667539Y-126533562D01*
X165715158Y-126581181D01*
X165810396Y-126724038D01*
X165858015Y-126914514D01*
X165858015Y-127295467D01*
X165810396Y-127390705D01*
X165762777Y-127438324D01*
X165667539Y-127485943D01*
X165477062Y-127485943D01*
X165381824Y-127438324D01*
X165334205Y-127390705D01*
X165286586Y-127295467D01*
X165286586Y-127057372D01*
X165334205Y-126962133D01*
X165381824Y-126914514D01*
X165477062Y-126866895D01*
X165667539Y-126866895D01*
X165762777Y-126914514D01*
X165810396Y-126962133D01*
X165858015Y-127057372D01*
X168143729Y-138915943D02*
X168477063Y-138439752D01*
X168715158Y-138915943D02*
X168715158Y-137915943D01*
X168334205Y-137915943D01*
X168238967Y-137963562D01*
X168191348Y-138011181D01*
X168143729Y-138106419D01*
X168143729Y-138249276D01*
X168191348Y-138344514D01*
X168238967Y-138392133D01*
X168334205Y-138439752D01*
X168715158Y-138439752D01*
X167762777Y-138011181D02*
X167715158Y-137963562D01*
X167619920Y-137915943D01*
X167381824Y-137915943D01*
X167286586Y-137963562D01*
X167238967Y-138011181D01*
X167191348Y-138106419D01*
X167191348Y-138201657D01*
X167238967Y-138344514D01*
X167810396Y-138915943D01*
X167191348Y-138915943D01*
X166810396Y-138011181D02*
X166762777Y-137963562D01*
X166667539Y-137915943D01*
X166429443Y-137915943D01*
X166334205Y-137963562D01*
X166286586Y-138011181D01*
X166238967Y-138106419D01*
X166238967Y-138201657D01*
X166286586Y-138344514D01*
X166858015Y-138915943D01*
X166238967Y-138915943D01*
X165905634Y-137915943D02*
X165238967Y-137915943D01*
X165667539Y-138915943D01*
X168143729Y-150345943D02*
X168477063Y-149869752D01*
X168715158Y-150345943D02*
X168715158Y-149345943D01*
X168334205Y-149345943D01*
X168238967Y-149393562D01*
X168191348Y-149441181D01*
X168143729Y-149536419D01*
X168143729Y-149679276D01*
X168191348Y-149774514D01*
X168238967Y-149822133D01*
X168334205Y-149869752D01*
X168715158Y-149869752D01*
X167762777Y-149441181D02*
X167715158Y-149393562D01*
X167619920Y-149345943D01*
X167381824Y-149345943D01*
X167286586Y-149393562D01*
X167238967Y-149441181D01*
X167191348Y-149536419D01*
X167191348Y-149631657D01*
X167238967Y-149774514D01*
X167810396Y-150345943D01*
X167191348Y-150345943D01*
X166810396Y-149441181D02*
X166762777Y-149393562D01*
X166667539Y-149345943D01*
X166429443Y-149345943D01*
X166334205Y-149393562D01*
X166286586Y-149441181D01*
X166238967Y-149536419D01*
X166238967Y-149631657D01*
X166286586Y-149774514D01*
X166858015Y-150345943D01*
X166238967Y-150345943D01*
X165667539Y-149774514D02*
X165762777Y-149726895D01*
X165810396Y-149679276D01*
X165858015Y-149584038D01*
X165858015Y-149536419D01*
X165810396Y-149441181D01*
X165762777Y-149393562D01*
X165667539Y-149345943D01*
X165477062Y-149345943D01*
X165381824Y-149393562D01*
X165334205Y-149441181D01*
X165286586Y-149536419D01*
X165286586Y-149584038D01*
X165334205Y-149679276D01*
X165381824Y-149726895D01*
X165477062Y-149774514D01*
X165667539Y-149774514D01*
X165762777Y-149822133D01*
X165810396Y-149869752D01*
X165858015Y-149964991D01*
X165858015Y-150155467D01*
X165810396Y-150250705D01*
X165762777Y-150298324D01*
X165667539Y-150345943D01*
X165477062Y-150345943D01*
X165381824Y-150298324D01*
X165334205Y-150250705D01*
X165286586Y-150155467D01*
X165286586Y-149964991D01*
X165334205Y-149869752D01*
X165381824Y-149822133D01*
X165477062Y-149774514D01*
X168143729Y-161775943D02*
X168477063Y-161299752D01*
X168715158Y-161775943D02*
X168715158Y-160775943D01*
X168334205Y-160775943D01*
X168238967Y-160823562D01*
X168191348Y-160871181D01*
X168143729Y-160966419D01*
X168143729Y-161109276D01*
X168191348Y-161204514D01*
X168238967Y-161252133D01*
X168334205Y-161299752D01*
X168715158Y-161299752D01*
X167762777Y-160871181D02*
X167715158Y-160823562D01*
X167619920Y-160775943D01*
X167381824Y-160775943D01*
X167286586Y-160823562D01*
X167238967Y-160871181D01*
X167191348Y-160966419D01*
X167191348Y-161061657D01*
X167238967Y-161204514D01*
X167810396Y-161775943D01*
X167191348Y-161775943D01*
X166810396Y-160871181D02*
X166762777Y-160823562D01*
X166667539Y-160775943D01*
X166429443Y-160775943D01*
X166334205Y-160823562D01*
X166286586Y-160871181D01*
X166238967Y-160966419D01*
X166238967Y-161061657D01*
X166286586Y-161204514D01*
X166858015Y-161775943D01*
X166238967Y-161775943D01*
X165762777Y-161775943D02*
X165572301Y-161775943D01*
X165477062Y-161728324D01*
X165429443Y-161680705D01*
X165334205Y-161537848D01*
X165286586Y-161347372D01*
X165286586Y-160966419D01*
X165334205Y-160871181D01*
X165381824Y-160823562D01*
X165477062Y-160775943D01*
X165667539Y-160775943D01*
X165762777Y-160823562D01*
X165810396Y-160871181D01*
X165858015Y-160966419D01*
X165858015Y-161204514D01*
X165810396Y-161299752D01*
X165762777Y-161347372D01*
X165667539Y-161394991D01*
X165477062Y-161394991D01*
X165381824Y-161347372D01*
X165334205Y-161299752D01*
X165286586Y-161204514D01*
X168143729Y-173205943D02*
X168477063Y-172729752D01*
X168715158Y-173205943D02*
X168715158Y-172205943D01*
X168334205Y-172205943D01*
X168238967Y-172253562D01*
X168191348Y-172301181D01*
X168143729Y-172396419D01*
X168143729Y-172539276D01*
X168191348Y-172634514D01*
X168238967Y-172682133D01*
X168334205Y-172729752D01*
X168715158Y-172729752D01*
X167762777Y-172301181D02*
X167715158Y-172253562D01*
X167619920Y-172205943D01*
X167381824Y-172205943D01*
X167286586Y-172253562D01*
X167238967Y-172301181D01*
X167191348Y-172396419D01*
X167191348Y-172491657D01*
X167238967Y-172634514D01*
X167810396Y-173205943D01*
X167191348Y-173205943D01*
X166858015Y-172205943D02*
X166238967Y-172205943D01*
X166572301Y-172586895D01*
X166429443Y-172586895D01*
X166334205Y-172634514D01*
X166286586Y-172682133D01*
X166238967Y-172777372D01*
X166238967Y-173015467D01*
X166286586Y-173110705D01*
X166334205Y-173158324D01*
X166429443Y-173205943D01*
X166715158Y-173205943D01*
X166810396Y-173158324D01*
X166858015Y-173110705D01*
X165619920Y-172205943D02*
X165524681Y-172205943D01*
X165429443Y-172253562D01*
X165381824Y-172301181D01*
X165334205Y-172396419D01*
X165286586Y-172586895D01*
X165286586Y-172824991D01*
X165334205Y-173015467D01*
X165381824Y-173110705D01*
X165429443Y-173158324D01*
X165524681Y-173205943D01*
X165619920Y-173205943D01*
X165715158Y-173158324D01*
X165762777Y-173110705D01*
X165810396Y-173015467D01*
X165858015Y-172824991D01*
X165858015Y-172586895D01*
X165810396Y-172396419D01*
X165762777Y-172301181D01*
X165715158Y-172253562D01*
X165619920Y-172205943D01*
X168143729Y-184635943D02*
X168477063Y-184159752D01*
X168715158Y-184635943D02*
X168715158Y-183635943D01*
X168334205Y-183635943D01*
X168238967Y-183683562D01*
X168191348Y-183731181D01*
X168143729Y-183826419D01*
X168143729Y-183969276D01*
X168191348Y-184064514D01*
X168238967Y-184112133D01*
X168334205Y-184159752D01*
X168715158Y-184159752D01*
X167762777Y-183731181D02*
X167715158Y-183683562D01*
X167619920Y-183635943D01*
X167381824Y-183635943D01*
X167286586Y-183683562D01*
X167238967Y-183731181D01*
X167191348Y-183826419D01*
X167191348Y-183921657D01*
X167238967Y-184064514D01*
X167810396Y-184635943D01*
X167191348Y-184635943D01*
X166858015Y-183635943D02*
X166238967Y-183635943D01*
X166572301Y-184016895D01*
X166429443Y-184016895D01*
X166334205Y-184064514D01*
X166286586Y-184112133D01*
X166238967Y-184207372D01*
X166238967Y-184445467D01*
X166286586Y-184540705D01*
X166334205Y-184588324D01*
X166429443Y-184635943D01*
X166715158Y-184635943D01*
X166810396Y-184588324D01*
X166858015Y-184540705D01*
X165286586Y-184635943D02*
X165858015Y-184635943D01*
X165572301Y-184635943D02*
X165572301Y-183635943D01*
X165667539Y-183778800D01*
X165762777Y-183874038D01*
X165858015Y-183921657D01*
X168143729Y-196065943D02*
X168477063Y-195589752D01*
X168715158Y-196065943D02*
X168715158Y-195065943D01*
X168334205Y-195065943D01*
X168238967Y-195113562D01*
X168191348Y-195161181D01*
X168143729Y-195256419D01*
X168143729Y-195399276D01*
X168191348Y-195494514D01*
X168238967Y-195542133D01*
X168334205Y-195589752D01*
X168715158Y-195589752D01*
X167762777Y-195161181D02*
X167715158Y-195113562D01*
X167619920Y-195065943D01*
X167381824Y-195065943D01*
X167286586Y-195113562D01*
X167238967Y-195161181D01*
X167191348Y-195256419D01*
X167191348Y-195351657D01*
X167238967Y-195494514D01*
X167810396Y-196065943D01*
X167191348Y-196065943D01*
X166858015Y-195065943D02*
X166238967Y-195065943D01*
X166572301Y-195446895D01*
X166429443Y-195446895D01*
X166334205Y-195494514D01*
X166286586Y-195542133D01*
X166238967Y-195637372D01*
X166238967Y-195875467D01*
X166286586Y-195970705D01*
X166334205Y-196018324D01*
X166429443Y-196065943D01*
X166715158Y-196065943D01*
X166810396Y-196018324D01*
X166858015Y-195970705D01*
X165858015Y-195161181D02*
X165810396Y-195113562D01*
X165715158Y-195065943D01*
X165477062Y-195065943D01*
X165381824Y-195113562D01*
X165334205Y-195161181D01*
X165286586Y-195256419D01*
X165286586Y-195351657D01*
X165334205Y-195494514D01*
X165905634Y-196065943D01*
X165286586Y-196065943D01*
X199874047Y-116077381D02*
X200207381Y-115601190D01*
X200445476Y-116077381D02*
X200445476Y-115077381D01*
X200064523Y-115077381D01*
X199969285Y-115125000D01*
X199921666Y-115172619D01*
X199874047Y-115267857D01*
X199874047Y-115410714D01*
X199921666Y-115505952D01*
X199969285Y-115553571D01*
X200064523Y-115601190D01*
X200445476Y-115601190D01*
X199493095Y-115172619D02*
X199445476Y-115125000D01*
X199350238Y-115077381D01*
X199112142Y-115077381D01*
X199016904Y-115125000D01*
X198969285Y-115172619D01*
X198921666Y-115267857D01*
X198921666Y-115363095D01*
X198969285Y-115505952D01*
X199540714Y-116077381D01*
X198921666Y-116077381D01*
X198588333Y-115077381D02*
X197969285Y-115077381D01*
X198302619Y-115458333D01*
X198159761Y-115458333D01*
X198064523Y-115505952D01*
X198016904Y-115553571D01*
X197969285Y-115648810D01*
X197969285Y-115886905D01*
X198016904Y-115982143D01*
X198064523Y-116029762D01*
X198159761Y-116077381D01*
X198445476Y-116077381D01*
X198540714Y-116029762D01*
X198588333Y-115982143D01*
X197635952Y-115077381D02*
X197016904Y-115077381D01*
X197350238Y-115458333D01*
X197207380Y-115458333D01*
X197112142Y-115505952D01*
X197064523Y-115553571D01*
X197016904Y-115648810D01*
X197016904Y-115886905D01*
X197064523Y-115982143D01*
X197112142Y-116029762D01*
X197207380Y-116077381D01*
X197493095Y-116077381D01*
X197588333Y-116029762D01*
X197635952Y-115982143D01*
X199874047Y-127507381D02*
X200207381Y-127031190D01*
X200445476Y-127507381D02*
X200445476Y-126507381D01*
X200064523Y-126507381D01*
X199969285Y-126555000D01*
X199921666Y-126602619D01*
X199874047Y-126697857D01*
X199874047Y-126840714D01*
X199921666Y-126935952D01*
X199969285Y-126983571D01*
X200064523Y-127031190D01*
X200445476Y-127031190D01*
X199493095Y-126602619D02*
X199445476Y-126555000D01*
X199350238Y-126507381D01*
X199112142Y-126507381D01*
X199016904Y-126555000D01*
X198969285Y-126602619D01*
X198921666Y-126697857D01*
X198921666Y-126793095D01*
X198969285Y-126935952D01*
X199540714Y-127507381D01*
X198921666Y-127507381D01*
X198588333Y-126507381D02*
X197969285Y-126507381D01*
X198302619Y-126888333D01*
X198159761Y-126888333D01*
X198064523Y-126935952D01*
X198016904Y-126983571D01*
X197969285Y-127078810D01*
X197969285Y-127316905D01*
X198016904Y-127412143D01*
X198064523Y-127459762D01*
X198159761Y-127507381D01*
X198445476Y-127507381D01*
X198540714Y-127459762D01*
X198588333Y-127412143D01*
X197112142Y-126840714D02*
X197112142Y-127507381D01*
X197350238Y-126459762D02*
X197588333Y-127174048D01*
X196969285Y-127174048D01*
X199874047Y-138937381D02*
X200207381Y-138461190D01*
X200445476Y-138937381D02*
X200445476Y-137937381D01*
X200064523Y-137937381D01*
X199969285Y-137985000D01*
X199921666Y-138032619D01*
X199874047Y-138127857D01*
X199874047Y-138270714D01*
X199921666Y-138365952D01*
X199969285Y-138413571D01*
X200064523Y-138461190D01*
X200445476Y-138461190D01*
X199493095Y-138032619D02*
X199445476Y-137985000D01*
X199350238Y-137937381D01*
X199112142Y-137937381D01*
X199016904Y-137985000D01*
X198969285Y-138032619D01*
X198921666Y-138127857D01*
X198921666Y-138223095D01*
X198969285Y-138365952D01*
X199540714Y-138937381D01*
X198921666Y-138937381D01*
X198588333Y-137937381D02*
X197969285Y-137937381D01*
X198302619Y-138318333D01*
X198159761Y-138318333D01*
X198064523Y-138365952D01*
X198016904Y-138413571D01*
X197969285Y-138508810D01*
X197969285Y-138746905D01*
X198016904Y-138842143D01*
X198064523Y-138889762D01*
X198159761Y-138937381D01*
X198445476Y-138937381D01*
X198540714Y-138889762D01*
X198588333Y-138842143D01*
X197064523Y-137937381D02*
X197540714Y-137937381D01*
X197588333Y-138413571D01*
X197540714Y-138365952D01*
X197445476Y-138318333D01*
X197207380Y-138318333D01*
X197112142Y-138365952D01*
X197064523Y-138413571D01*
X197016904Y-138508810D01*
X197016904Y-138746905D01*
X197064523Y-138842143D01*
X197112142Y-138889762D01*
X197207380Y-138937381D01*
X197445476Y-138937381D01*
X197540714Y-138889762D01*
X197588333Y-138842143D01*
X199874047Y-150367381D02*
X200207381Y-149891190D01*
X200445476Y-150367381D02*
X200445476Y-149367381D01*
X200064523Y-149367381D01*
X199969285Y-149415000D01*
X199921666Y-149462619D01*
X199874047Y-149557857D01*
X199874047Y-149700714D01*
X199921666Y-149795952D01*
X199969285Y-149843571D01*
X200064523Y-149891190D01*
X200445476Y-149891190D01*
X199493095Y-149462619D02*
X199445476Y-149415000D01*
X199350238Y-149367381D01*
X199112142Y-149367381D01*
X199016904Y-149415000D01*
X198969285Y-149462619D01*
X198921666Y-149557857D01*
X198921666Y-149653095D01*
X198969285Y-149795952D01*
X199540714Y-150367381D01*
X198921666Y-150367381D01*
X198588333Y-149367381D02*
X197969285Y-149367381D01*
X198302619Y-149748333D01*
X198159761Y-149748333D01*
X198064523Y-149795952D01*
X198016904Y-149843571D01*
X197969285Y-149938810D01*
X197969285Y-150176905D01*
X198016904Y-150272143D01*
X198064523Y-150319762D01*
X198159761Y-150367381D01*
X198445476Y-150367381D01*
X198540714Y-150319762D01*
X198588333Y-150272143D01*
X197112142Y-149367381D02*
X197302619Y-149367381D01*
X197397857Y-149415000D01*
X197445476Y-149462619D01*
X197540714Y-149605476D01*
X197588333Y-149795952D01*
X197588333Y-150176905D01*
X197540714Y-150272143D01*
X197493095Y-150319762D01*
X197397857Y-150367381D01*
X197207380Y-150367381D01*
X197112142Y-150319762D01*
X197064523Y-150272143D01*
X197016904Y-150176905D01*
X197016904Y-149938810D01*
X197064523Y-149843571D01*
X197112142Y-149795952D01*
X197207380Y-149748333D01*
X197397857Y-149748333D01*
X197493095Y-149795952D01*
X197540714Y-149843571D01*
X197588333Y-149938810D01*
X199874047Y-161797381D02*
X200207381Y-161321190D01*
X200445476Y-161797381D02*
X200445476Y-160797381D01*
X200064523Y-160797381D01*
X199969285Y-160845000D01*
X199921666Y-160892619D01*
X199874047Y-160987857D01*
X199874047Y-161130714D01*
X199921666Y-161225952D01*
X199969285Y-161273571D01*
X200064523Y-161321190D01*
X200445476Y-161321190D01*
X199493095Y-160892619D02*
X199445476Y-160845000D01*
X199350238Y-160797381D01*
X199112142Y-160797381D01*
X199016904Y-160845000D01*
X198969285Y-160892619D01*
X198921666Y-160987857D01*
X198921666Y-161083095D01*
X198969285Y-161225952D01*
X199540714Y-161797381D01*
X198921666Y-161797381D01*
X198588333Y-160797381D02*
X197969285Y-160797381D01*
X198302619Y-161178333D01*
X198159761Y-161178333D01*
X198064523Y-161225952D01*
X198016904Y-161273571D01*
X197969285Y-161368810D01*
X197969285Y-161606905D01*
X198016904Y-161702143D01*
X198064523Y-161749762D01*
X198159761Y-161797381D01*
X198445476Y-161797381D01*
X198540714Y-161749762D01*
X198588333Y-161702143D01*
X197635952Y-160797381D02*
X196969285Y-160797381D01*
X197397857Y-161797381D01*
X199874047Y-173227381D02*
X200207381Y-172751190D01*
X200445476Y-173227381D02*
X200445476Y-172227381D01*
X200064523Y-172227381D01*
X199969285Y-172275000D01*
X199921666Y-172322619D01*
X199874047Y-172417857D01*
X199874047Y-172560714D01*
X199921666Y-172655952D01*
X199969285Y-172703571D01*
X200064523Y-172751190D01*
X200445476Y-172751190D01*
X199493095Y-172322619D02*
X199445476Y-172275000D01*
X199350238Y-172227381D01*
X199112142Y-172227381D01*
X199016904Y-172275000D01*
X198969285Y-172322619D01*
X198921666Y-172417857D01*
X198921666Y-172513095D01*
X198969285Y-172655952D01*
X199540714Y-173227381D01*
X198921666Y-173227381D01*
X198588333Y-172227381D02*
X197969285Y-172227381D01*
X198302619Y-172608333D01*
X198159761Y-172608333D01*
X198064523Y-172655952D01*
X198016904Y-172703571D01*
X197969285Y-172798810D01*
X197969285Y-173036905D01*
X198016904Y-173132143D01*
X198064523Y-173179762D01*
X198159761Y-173227381D01*
X198445476Y-173227381D01*
X198540714Y-173179762D01*
X198588333Y-173132143D01*
X197397857Y-172655952D02*
X197493095Y-172608333D01*
X197540714Y-172560714D01*
X197588333Y-172465476D01*
X197588333Y-172417857D01*
X197540714Y-172322619D01*
X197493095Y-172275000D01*
X197397857Y-172227381D01*
X197207380Y-172227381D01*
X197112142Y-172275000D01*
X197064523Y-172322619D01*
X197016904Y-172417857D01*
X197016904Y-172465476D01*
X197064523Y-172560714D01*
X197112142Y-172608333D01*
X197207380Y-172655952D01*
X197397857Y-172655952D01*
X197493095Y-172703571D01*
X197540714Y-172751190D01*
X197588333Y-172846429D01*
X197588333Y-173036905D01*
X197540714Y-173132143D01*
X197493095Y-173179762D01*
X197397857Y-173227381D01*
X197207380Y-173227381D01*
X197112142Y-173179762D01*
X197064523Y-173132143D01*
X197016904Y-173036905D01*
X197016904Y-172846429D01*
X197064523Y-172751190D01*
X197112142Y-172703571D01*
X197207380Y-172655952D01*
X199874047Y-184657381D02*
X200207381Y-184181190D01*
X200445476Y-184657381D02*
X200445476Y-183657381D01*
X200064523Y-183657381D01*
X199969285Y-183705000D01*
X199921666Y-183752619D01*
X199874047Y-183847857D01*
X199874047Y-183990714D01*
X199921666Y-184085952D01*
X199969285Y-184133571D01*
X200064523Y-184181190D01*
X200445476Y-184181190D01*
X199493095Y-183752619D02*
X199445476Y-183705000D01*
X199350238Y-183657381D01*
X199112142Y-183657381D01*
X199016904Y-183705000D01*
X198969285Y-183752619D01*
X198921666Y-183847857D01*
X198921666Y-183943095D01*
X198969285Y-184085952D01*
X199540714Y-184657381D01*
X198921666Y-184657381D01*
X198588333Y-183657381D02*
X197969285Y-183657381D01*
X198302619Y-184038333D01*
X198159761Y-184038333D01*
X198064523Y-184085952D01*
X198016904Y-184133571D01*
X197969285Y-184228810D01*
X197969285Y-184466905D01*
X198016904Y-184562143D01*
X198064523Y-184609762D01*
X198159761Y-184657381D01*
X198445476Y-184657381D01*
X198540714Y-184609762D01*
X198588333Y-184562143D01*
X197493095Y-184657381D02*
X197302619Y-184657381D01*
X197207380Y-184609762D01*
X197159761Y-184562143D01*
X197064523Y-184419286D01*
X197016904Y-184228810D01*
X197016904Y-183847857D01*
X197064523Y-183752619D01*
X197112142Y-183705000D01*
X197207380Y-183657381D01*
X197397857Y-183657381D01*
X197493095Y-183705000D01*
X197540714Y-183752619D01*
X197588333Y-183847857D01*
X197588333Y-184085952D01*
X197540714Y-184181190D01*
X197493095Y-184228810D01*
X197397857Y-184276429D01*
X197207380Y-184276429D01*
X197112142Y-184228810D01*
X197064523Y-184181190D01*
X197016904Y-184085952D01*
X199874047Y-196087381D02*
X200207381Y-195611190D01*
X200445476Y-196087381D02*
X200445476Y-195087381D01*
X200064523Y-195087381D01*
X199969285Y-195135000D01*
X199921666Y-195182619D01*
X199874047Y-195277857D01*
X199874047Y-195420714D01*
X199921666Y-195515952D01*
X199969285Y-195563571D01*
X200064523Y-195611190D01*
X200445476Y-195611190D01*
X199493095Y-195182619D02*
X199445476Y-195135000D01*
X199350238Y-195087381D01*
X199112142Y-195087381D01*
X199016904Y-195135000D01*
X198969285Y-195182619D01*
X198921666Y-195277857D01*
X198921666Y-195373095D01*
X198969285Y-195515952D01*
X199540714Y-196087381D01*
X198921666Y-196087381D01*
X198064523Y-195420714D02*
X198064523Y-196087381D01*
X198302619Y-195039762D02*
X198540714Y-195754048D01*
X197921666Y-195754048D01*
X197350238Y-195087381D02*
X197254999Y-195087381D01*
X197159761Y-195135000D01*
X197112142Y-195182619D01*
X197064523Y-195277857D01*
X197016904Y-195468333D01*
X197016904Y-195706429D01*
X197064523Y-195896905D01*
X197112142Y-195992143D01*
X197159761Y-196039762D01*
X197254999Y-196087381D01*
X197350238Y-196087381D01*
X197445476Y-196039762D01*
X197493095Y-195992143D01*
X197540714Y-195896905D01*
X197588333Y-195706429D01*
X197588333Y-195468333D01*
X197540714Y-195277857D01*
X197493095Y-195182619D01*
X197445476Y-195135000D01*
X197350238Y-195087381D01*
X232894047Y-173227381D02*
X233227381Y-172751190D01*
X233465476Y-173227381D02*
X233465476Y-172227381D01*
X233084523Y-172227381D01*
X232989285Y-172275000D01*
X232941666Y-172322619D01*
X232894047Y-172417857D01*
X232894047Y-172560714D01*
X232941666Y-172655952D01*
X232989285Y-172703571D01*
X233084523Y-172751190D01*
X233465476Y-172751190D01*
X232513095Y-172322619D02*
X232465476Y-172275000D01*
X232370238Y-172227381D01*
X232132142Y-172227381D01*
X232036904Y-172275000D01*
X231989285Y-172322619D01*
X231941666Y-172417857D01*
X231941666Y-172513095D01*
X231989285Y-172655952D01*
X232560714Y-173227381D01*
X231941666Y-173227381D01*
X231084523Y-172560714D02*
X231084523Y-173227381D01*
X231322619Y-172179762D02*
X231560714Y-172894048D01*
X230941666Y-172894048D01*
X230036904Y-173227381D02*
X230608333Y-173227381D01*
X230322619Y-173227381D02*
X230322619Y-172227381D01*
X230417857Y-172370238D01*
X230513095Y-172465476D01*
X230608333Y-172513095D01*
X232894047Y-184657381D02*
X233227381Y-184181190D01*
X233465476Y-184657381D02*
X233465476Y-183657381D01*
X233084523Y-183657381D01*
X232989285Y-183705000D01*
X232941666Y-183752619D01*
X232894047Y-183847857D01*
X232894047Y-183990714D01*
X232941666Y-184085952D01*
X232989285Y-184133571D01*
X233084523Y-184181190D01*
X233465476Y-184181190D01*
X232513095Y-183752619D02*
X232465476Y-183705000D01*
X232370238Y-183657381D01*
X232132142Y-183657381D01*
X232036904Y-183705000D01*
X231989285Y-183752619D01*
X231941666Y-183847857D01*
X231941666Y-183943095D01*
X231989285Y-184085952D01*
X232560714Y-184657381D01*
X231941666Y-184657381D01*
X231084523Y-183990714D02*
X231084523Y-184657381D01*
X231322619Y-183609762D02*
X231560714Y-184324048D01*
X230941666Y-184324048D01*
X230608333Y-183752619D02*
X230560714Y-183705000D01*
X230465476Y-183657381D01*
X230227380Y-183657381D01*
X230132142Y-183705000D01*
X230084523Y-183752619D01*
X230036904Y-183847857D01*
X230036904Y-183943095D01*
X230084523Y-184085952D01*
X230655952Y-184657381D01*
X230036904Y-184657381D01*
X232894047Y-196087381D02*
X233227381Y-195611190D01*
X233465476Y-196087381D02*
X233465476Y-195087381D01*
X233084523Y-195087381D01*
X232989285Y-195135000D01*
X232941666Y-195182619D01*
X232894047Y-195277857D01*
X232894047Y-195420714D01*
X232941666Y-195515952D01*
X232989285Y-195563571D01*
X233084523Y-195611190D01*
X233465476Y-195611190D01*
X232513095Y-195182619D02*
X232465476Y-195135000D01*
X232370238Y-195087381D01*
X232132142Y-195087381D01*
X232036904Y-195135000D01*
X231989285Y-195182619D01*
X231941666Y-195277857D01*
X231941666Y-195373095D01*
X231989285Y-195515952D01*
X232560714Y-196087381D01*
X231941666Y-196087381D01*
X231084523Y-195420714D02*
X231084523Y-196087381D01*
X231322619Y-195039762D02*
X231560714Y-195754048D01*
X230941666Y-195754048D01*
X230655952Y-195087381D02*
X230036904Y-195087381D01*
X230370238Y-195468333D01*
X230227380Y-195468333D01*
X230132142Y-195515952D01*
X230084523Y-195563571D01*
X230036904Y-195658810D01*
X230036904Y-195896905D01*
X230084523Y-195992143D01*
X230132142Y-196039762D01*
X230227380Y-196087381D01*
X230513095Y-196087381D01*
X230608333Y-196039762D01*
X230655952Y-195992143D01*
X265914047Y-173227381D02*
X266247381Y-172751190D01*
X266485476Y-173227381D02*
X266485476Y-172227381D01*
X266104523Y-172227381D01*
X266009285Y-172275000D01*
X265961666Y-172322619D01*
X265914047Y-172417857D01*
X265914047Y-172560714D01*
X265961666Y-172655952D01*
X266009285Y-172703571D01*
X266104523Y-172751190D01*
X266485476Y-172751190D01*
X265533095Y-172322619D02*
X265485476Y-172275000D01*
X265390238Y-172227381D01*
X265152142Y-172227381D01*
X265056904Y-172275000D01*
X265009285Y-172322619D01*
X264961666Y-172417857D01*
X264961666Y-172513095D01*
X265009285Y-172655952D01*
X265580714Y-173227381D01*
X264961666Y-173227381D01*
X264104523Y-172560714D02*
X264104523Y-173227381D01*
X264342619Y-172179762D02*
X264580714Y-172894048D01*
X263961666Y-172894048D01*
X263152142Y-172560714D02*
X263152142Y-173227381D01*
X263390238Y-172179762D02*
X263628333Y-172894048D01*
X263009285Y-172894048D01*
X265914047Y-184657381D02*
X266247381Y-184181190D01*
X266485476Y-184657381D02*
X266485476Y-183657381D01*
X266104523Y-183657381D01*
X266009285Y-183705000D01*
X265961666Y-183752619D01*
X265914047Y-183847857D01*
X265914047Y-183990714D01*
X265961666Y-184085952D01*
X266009285Y-184133571D01*
X266104523Y-184181190D01*
X266485476Y-184181190D01*
X265533095Y-183752619D02*
X265485476Y-183705000D01*
X265390238Y-183657381D01*
X265152142Y-183657381D01*
X265056904Y-183705000D01*
X265009285Y-183752619D01*
X264961666Y-183847857D01*
X264961666Y-183943095D01*
X265009285Y-184085952D01*
X265580714Y-184657381D01*
X264961666Y-184657381D01*
X264104523Y-183990714D02*
X264104523Y-184657381D01*
X264342619Y-183609762D02*
X264580714Y-184324048D01*
X263961666Y-184324048D01*
X263104523Y-183657381D02*
X263580714Y-183657381D01*
X263628333Y-184133571D01*
X263580714Y-184085952D01*
X263485476Y-184038333D01*
X263247380Y-184038333D01*
X263152142Y-184085952D01*
X263104523Y-184133571D01*
X263056904Y-184228810D01*
X263056904Y-184466905D01*
X263104523Y-184562143D01*
X263152142Y-184609762D01*
X263247380Y-184657381D01*
X263485476Y-184657381D01*
X263580714Y-184609762D01*
X263628333Y-184562143D01*
X265914047Y-196087381D02*
X266247381Y-195611190D01*
X266485476Y-196087381D02*
X266485476Y-195087381D01*
X266104523Y-195087381D01*
X266009285Y-195135000D01*
X265961666Y-195182619D01*
X265914047Y-195277857D01*
X265914047Y-195420714D01*
X265961666Y-195515952D01*
X266009285Y-195563571D01*
X266104523Y-195611190D01*
X266485476Y-195611190D01*
X265533095Y-195182619D02*
X265485476Y-195135000D01*
X265390238Y-195087381D01*
X265152142Y-195087381D01*
X265056904Y-195135000D01*
X265009285Y-195182619D01*
X264961666Y-195277857D01*
X264961666Y-195373095D01*
X265009285Y-195515952D01*
X265580714Y-196087381D01*
X264961666Y-196087381D01*
X264104523Y-195420714D02*
X264104523Y-196087381D01*
X264342619Y-195039762D02*
X264580714Y-195754048D01*
X263961666Y-195754048D01*
X263152142Y-195087381D02*
X263342619Y-195087381D01*
X263437857Y-195135000D01*
X263485476Y-195182619D01*
X263580714Y-195325476D01*
X263628333Y-195515952D01*
X263628333Y-195896905D01*
X263580714Y-195992143D01*
X263533095Y-196039762D01*
X263437857Y-196087381D01*
X263247380Y-196087381D01*
X263152142Y-196039762D01*
X263104523Y-195992143D01*
X263056904Y-195896905D01*
X263056904Y-195658810D01*
X263104523Y-195563571D01*
X263152142Y-195515952D01*
X263247380Y-195468333D01*
X263437857Y-195468333D01*
X263533095Y-195515952D01*
X263580714Y-195563571D01*
X263628333Y-195658810D01*
X298934047Y-173227381D02*
X299267381Y-172751190D01*
X299505476Y-173227381D02*
X299505476Y-172227381D01*
X299124523Y-172227381D01*
X299029285Y-172275000D01*
X298981666Y-172322619D01*
X298934047Y-172417857D01*
X298934047Y-172560714D01*
X298981666Y-172655952D01*
X299029285Y-172703571D01*
X299124523Y-172751190D01*
X299505476Y-172751190D01*
X298553095Y-172322619D02*
X298505476Y-172275000D01*
X298410238Y-172227381D01*
X298172142Y-172227381D01*
X298076904Y-172275000D01*
X298029285Y-172322619D01*
X297981666Y-172417857D01*
X297981666Y-172513095D01*
X298029285Y-172655952D01*
X298600714Y-173227381D01*
X297981666Y-173227381D01*
X297124523Y-172560714D02*
X297124523Y-173227381D01*
X297362619Y-172179762D02*
X297600714Y-172894048D01*
X296981666Y-172894048D01*
X296695952Y-172227381D02*
X296029285Y-172227381D01*
X296457857Y-173227381D01*
X298934047Y-184657381D02*
X299267381Y-184181190D01*
X299505476Y-184657381D02*
X299505476Y-183657381D01*
X299124523Y-183657381D01*
X299029285Y-183705000D01*
X298981666Y-183752619D01*
X298934047Y-183847857D01*
X298934047Y-183990714D01*
X298981666Y-184085952D01*
X299029285Y-184133571D01*
X299124523Y-184181190D01*
X299505476Y-184181190D01*
X298553095Y-183752619D02*
X298505476Y-183705000D01*
X298410238Y-183657381D01*
X298172142Y-183657381D01*
X298076904Y-183705000D01*
X298029285Y-183752619D01*
X297981666Y-183847857D01*
X297981666Y-183943095D01*
X298029285Y-184085952D01*
X298600714Y-184657381D01*
X297981666Y-184657381D01*
X297124523Y-183990714D02*
X297124523Y-184657381D01*
X297362619Y-183609762D02*
X297600714Y-184324048D01*
X296981666Y-184324048D01*
X296457857Y-184085952D02*
X296553095Y-184038333D01*
X296600714Y-183990714D01*
X296648333Y-183895476D01*
X296648333Y-183847857D01*
X296600714Y-183752619D01*
X296553095Y-183705000D01*
X296457857Y-183657381D01*
X296267380Y-183657381D01*
X296172142Y-183705000D01*
X296124523Y-183752619D01*
X296076904Y-183847857D01*
X296076904Y-183895476D01*
X296124523Y-183990714D01*
X296172142Y-184038333D01*
X296267380Y-184085952D01*
X296457857Y-184085952D01*
X296553095Y-184133571D01*
X296600714Y-184181190D01*
X296648333Y-184276429D01*
X296648333Y-184466905D01*
X296600714Y-184562143D01*
X296553095Y-184609762D01*
X296457857Y-184657381D01*
X296267380Y-184657381D01*
X296172142Y-184609762D01*
X296124523Y-184562143D01*
X296076904Y-184466905D01*
X296076904Y-184276429D01*
X296124523Y-184181190D01*
X296172142Y-184133571D01*
X296267380Y-184085952D01*
X298934047Y-196087381D02*
X299267381Y-195611190D01*
X299505476Y-196087381D02*
X299505476Y-195087381D01*
X299124523Y-195087381D01*
X299029285Y-195135000D01*
X298981666Y-195182619D01*
X298934047Y-195277857D01*
X298934047Y-195420714D01*
X298981666Y-195515952D01*
X299029285Y-195563571D01*
X299124523Y-195611190D01*
X299505476Y-195611190D01*
X298553095Y-195182619D02*
X298505476Y-195135000D01*
X298410238Y-195087381D01*
X298172142Y-195087381D01*
X298076904Y-195135000D01*
X298029285Y-195182619D01*
X297981666Y-195277857D01*
X297981666Y-195373095D01*
X298029285Y-195515952D01*
X298600714Y-196087381D01*
X297981666Y-196087381D01*
X297124523Y-195420714D02*
X297124523Y-196087381D01*
X297362619Y-195039762D02*
X297600714Y-195754048D01*
X296981666Y-195754048D01*
X296553095Y-196087381D02*
X296362619Y-196087381D01*
X296267380Y-196039762D01*
X296219761Y-195992143D01*
X296124523Y-195849286D01*
X296076904Y-195658810D01*
X296076904Y-195277857D01*
X296124523Y-195182619D01*
X296172142Y-195135000D01*
X296267380Y-195087381D01*
X296457857Y-195087381D01*
X296553095Y-195135000D01*
X296600714Y-195182619D01*
X296648333Y-195277857D01*
X296648333Y-195515952D01*
X296600714Y-195611190D01*
X296553095Y-195658810D01*
X296457857Y-195706429D01*
X296267380Y-195706429D01*
X296172142Y-195658810D01*
X296124523Y-195611190D01*
X296076904Y-195515952D01*
X332208047Y-173227381D02*
X332541381Y-172751190D01*
X332779476Y-173227381D02*
X332779476Y-172227381D01*
X332398523Y-172227381D01*
X332303285Y-172275000D01*
X332255666Y-172322619D01*
X332208047Y-172417857D01*
X332208047Y-172560714D01*
X332255666Y-172655952D01*
X332303285Y-172703571D01*
X332398523Y-172751190D01*
X332779476Y-172751190D01*
X331827095Y-172322619D02*
X331779476Y-172275000D01*
X331684238Y-172227381D01*
X331446142Y-172227381D01*
X331350904Y-172275000D01*
X331303285Y-172322619D01*
X331255666Y-172417857D01*
X331255666Y-172513095D01*
X331303285Y-172655952D01*
X331874714Y-173227381D01*
X331255666Y-173227381D01*
X330350904Y-172227381D02*
X330827095Y-172227381D01*
X330874714Y-172703571D01*
X330827095Y-172655952D01*
X330731857Y-172608333D01*
X330493761Y-172608333D01*
X330398523Y-172655952D01*
X330350904Y-172703571D01*
X330303285Y-172798810D01*
X330303285Y-173036905D01*
X330350904Y-173132143D01*
X330398523Y-173179762D01*
X330493761Y-173227381D01*
X330731857Y-173227381D01*
X330827095Y-173179762D01*
X330874714Y-173132143D01*
X329684238Y-172227381D02*
X329588999Y-172227381D01*
X329493761Y-172275000D01*
X329446142Y-172322619D01*
X329398523Y-172417857D01*
X329350904Y-172608333D01*
X329350904Y-172846429D01*
X329398523Y-173036905D01*
X329446142Y-173132143D01*
X329493761Y-173179762D01*
X329588999Y-173227381D01*
X329684238Y-173227381D01*
X329779476Y-173179762D01*
X329827095Y-173132143D01*
X329874714Y-173036905D01*
X329922333Y-172846429D01*
X329922333Y-172608333D01*
X329874714Y-172417857D01*
X329827095Y-172322619D01*
X329779476Y-172275000D01*
X329684238Y-172227381D01*
X332208047Y-184657381D02*
X332541381Y-184181190D01*
X332779476Y-184657381D02*
X332779476Y-183657381D01*
X332398523Y-183657381D01*
X332303285Y-183705000D01*
X332255666Y-183752619D01*
X332208047Y-183847857D01*
X332208047Y-183990714D01*
X332255666Y-184085952D01*
X332303285Y-184133571D01*
X332398523Y-184181190D01*
X332779476Y-184181190D01*
X331827095Y-183752619D02*
X331779476Y-183705000D01*
X331684238Y-183657381D01*
X331446142Y-183657381D01*
X331350904Y-183705000D01*
X331303285Y-183752619D01*
X331255666Y-183847857D01*
X331255666Y-183943095D01*
X331303285Y-184085952D01*
X331874714Y-184657381D01*
X331255666Y-184657381D01*
X330350904Y-183657381D02*
X330827095Y-183657381D01*
X330874714Y-184133571D01*
X330827095Y-184085952D01*
X330731857Y-184038333D01*
X330493761Y-184038333D01*
X330398523Y-184085952D01*
X330350904Y-184133571D01*
X330303285Y-184228810D01*
X330303285Y-184466905D01*
X330350904Y-184562143D01*
X330398523Y-184609762D01*
X330493761Y-184657381D01*
X330731857Y-184657381D01*
X330827095Y-184609762D01*
X330874714Y-184562143D01*
X329350904Y-184657381D02*
X329922333Y-184657381D01*
X329636619Y-184657381D02*
X329636619Y-183657381D01*
X329731857Y-183800238D01*
X329827095Y-183895476D01*
X329922333Y-183943095D01*
X332208047Y-196087381D02*
X332541381Y-195611190D01*
X332779476Y-196087381D02*
X332779476Y-195087381D01*
X332398523Y-195087381D01*
X332303285Y-195135000D01*
X332255666Y-195182619D01*
X332208047Y-195277857D01*
X332208047Y-195420714D01*
X332255666Y-195515952D01*
X332303285Y-195563571D01*
X332398523Y-195611190D01*
X332779476Y-195611190D01*
X331827095Y-195182619D02*
X331779476Y-195135000D01*
X331684238Y-195087381D01*
X331446142Y-195087381D01*
X331350904Y-195135000D01*
X331303285Y-195182619D01*
X331255666Y-195277857D01*
X331255666Y-195373095D01*
X331303285Y-195515952D01*
X331874714Y-196087381D01*
X331255666Y-196087381D01*
X330350904Y-195087381D02*
X330827095Y-195087381D01*
X330874714Y-195563571D01*
X330827095Y-195515952D01*
X330731857Y-195468333D01*
X330493761Y-195468333D01*
X330398523Y-195515952D01*
X330350904Y-195563571D01*
X330303285Y-195658810D01*
X330303285Y-195896905D01*
X330350904Y-195992143D01*
X330398523Y-196039762D01*
X330493761Y-196087381D01*
X330731857Y-196087381D01*
X330827095Y-196039762D01*
X330874714Y-195992143D01*
X329922333Y-195182619D02*
X329874714Y-195135000D01*
X329779476Y-195087381D01*
X329541380Y-195087381D01*
X329446142Y-195135000D01*
X329398523Y-195182619D01*
X329350904Y-195277857D01*
X329350904Y-195373095D01*
X329398523Y-195515952D01*
X329969952Y-196087381D01*
X329350904Y-196087381D01*
X364974047Y-173227381D02*
X365307381Y-172751190D01*
X365545476Y-173227381D02*
X365545476Y-172227381D01*
X365164523Y-172227381D01*
X365069285Y-172275000D01*
X365021666Y-172322619D01*
X364974047Y-172417857D01*
X364974047Y-172560714D01*
X365021666Y-172655952D01*
X365069285Y-172703571D01*
X365164523Y-172751190D01*
X365545476Y-172751190D01*
X364593095Y-172322619D02*
X364545476Y-172275000D01*
X364450238Y-172227381D01*
X364212142Y-172227381D01*
X364116904Y-172275000D01*
X364069285Y-172322619D01*
X364021666Y-172417857D01*
X364021666Y-172513095D01*
X364069285Y-172655952D01*
X364640714Y-173227381D01*
X364021666Y-173227381D01*
X363116904Y-172227381D02*
X363593095Y-172227381D01*
X363640714Y-172703571D01*
X363593095Y-172655952D01*
X363497857Y-172608333D01*
X363259761Y-172608333D01*
X363164523Y-172655952D01*
X363116904Y-172703571D01*
X363069285Y-172798810D01*
X363069285Y-173036905D01*
X363116904Y-173132143D01*
X363164523Y-173179762D01*
X363259761Y-173227381D01*
X363497857Y-173227381D01*
X363593095Y-173179762D01*
X363640714Y-173132143D01*
X362735952Y-172227381D02*
X362116904Y-172227381D01*
X362450238Y-172608333D01*
X362307380Y-172608333D01*
X362212142Y-172655952D01*
X362164523Y-172703571D01*
X362116904Y-172798810D01*
X362116904Y-173036905D01*
X362164523Y-173132143D01*
X362212142Y-173179762D01*
X362307380Y-173227381D01*
X362593095Y-173227381D01*
X362688333Y-173179762D01*
X362735952Y-173132143D01*
X364974047Y-184657381D02*
X365307381Y-184181190D01*
X365545476Y-184657381D02*
X365545476Y-183657381D01*
X365164523Y-183657381D01*
X365069285Y-183705000D01*
X365021666Y-183752619D01*
X364974047Y-183847857D01*
X364974047Y-183990714D01*
X365021666Y-184085952D01*
X365069285Y-184133571D01*
X365164523Y-184181190D01*
X365545476Y-184181190D01*
X364593095Y-183752619D02*
X364545476Y-183705000D01*
X364450238Y-183657381D01*
X364212142Y-183657381D01*
X364116904Y-183705000D01*
X364069285Y-183752619D01*
X364021666Y-183847857D01*
X364021666Y-183943095D01*
X364069285Y-184085952D01*
X364640714Y-184657381D01*
X364021666Y-184657381D01*
X363116904Y-183657381D02*
X363593095Y-183657381D01*
X363640714Y-184133571D01*
X363593095Y-184085952D01*
X363497857Y-184038333D01*
X363259761Y-184038333D01*
X363164523Y-184085952D01*
X363116904Y-184133571D01*
X363069285Y-184228810D01*
X363069285Y-184466905D01*
X363116904Y-184562143D01*
X363164523Y-184609762D01*
X363259761Y-184657381D01*
X363497857Y-184657381D01*
X363593095Y-184609762D01*
X363640714Y-184562143D01*
X362212142Y-183990714D02*
X362212142Y-184657381D01*
X362450238Y-183609762D02*
X362688333Y-184324048D01*
X362069285Y-184324048D01*
X364974047Y-196087381D02*
X365307381Y-195611190D01*
X365545476Y-196087381D02*
X365545476Y-195087381D01*
X365164523Y-195087381D01*
X365069285Y-195135000D01*
X365021666Y-195182619D01*
X364974047Y-195277857D01*
X364974047Y-195420714D01*
X365021666Y-195515952D01*
X365069285Y-195563571D01*
X365164523Y-195611190D01*
X365545476Y-195611190D01*
X364593095Y-195182619D02*
X364545476Y-195135000D01*
X364450238Y-195087381D01*
X364212142Y-195087381D01*
X364116904Y-195135000D01*
X364069285Y-195182619D01*
X364021666Y-195277857D01*
X364021666Y-195373095D01*
X364069285Y-195515952D01*
X364640714Y-196087381D01*
X364021666Y-196087381D01*
X363116904Y-195087381D02*
X363593095Y-195087381D01*
X363640714Y-195563571D01*
X363593095Y-195515952D01*
X363497857Y-195468333D01*
X363259761Y-195468333D01*
X363164523Y-195515952D01*
X363116904Y-195563571D01*
X363069285Y-195658810D01*
X363069285Y-195896905D01*
X363116904Y-195992143D01*
X363164523Y-196039762D01*
X363259761Y-196087381D01*
X363497857Y-196087381D01*
X363593095Y-196039762D01*
X363640714Y-195992143D01*
X362164523Y-195087381D02*
X362640714Y-195087381D01*
X362688333Y-195563571D01*
X362640714Y-195515952D01*
X362545476Y-195468333D01*
X362307380Y-195468333D01*
X362212142Y-195515952D01*
X362164523Y-195563571D01*
X362116904Y-195658810D01*
X362116904Y-195896905D01*
X362164523Y-195992143D01*
X362212142Y-196039762D01*
X362307380Y-196087381D01*
X362545476Y-196087381D01*
X362640714Y-196039762D01*
X362688333Y-195992143D01*
X254507381Y-75683953D02*
X254031190Y-75350619D01*
X254507381Y-75112524D02*
X253507381Y-75112524D01*
X253507381Y-75493477D01*
X253555000Y-75588715D01*
X253602619Y-75636334D01*
X253697857Y-75683953D01*
X253840714Y-75683953D01*
X253935952Y-75636334D01*
X253983571Y-75588715D01*
X254031190Y-75493477D01*
X254031190Y-75112524D01*
X253507381Y-76588715D02*
X253507381Y-76112524D01*
X253983571Y-76064905D01*
X253935952Y-76112524D01*
X253888333Y-76207762D01*
X253888333Y-76445858D01*
X253935952Y-76541096D01*
X253983571Y-76588715D01*
X254078810Y-76636334D01*
X254316905Y-76636334D01*
X254412143Y-76588715D01*
X254459762Y-76541096D01*
X254507381Y-76445858D01*
X254507381Y-76207762D01*
X254459762Y-76112524D01*
X254412143Y-76064905D01*
X253507381Y-77255381D02*
X253507381Y-77350620D01*
X253555000Y-77445858D01*
X253602619Y-77493477D01*
X253697857Y-77541096D01*
X253888333Y-77588715D01*
X254126429Y-77588715D01*
X254316905Y-77541096D01*
X254412143Y-77493477D01*
X254459762Y-77445858D01*
X254507381Y-77350620D01*
X254507381Y-77255381D01*
X254459762Y-77160143D01*
X254412143Y-77112524D01*
X254316905Y-77064905D01*
X254126429Y-77017286D01*
X253888333Y-77017286D01*
X253697857Y-77064905D01*
X253602619Y-77112524D01*
X253555000Y-77160143D01*
X253507381Y-77255381D01*
X254507381Y-78541096D02*
X254507381Y-77969667D01*
X254507381Y-78255381D02*
X253507381Y-78255381D01*
X253650238Y-78160143D01*
X253745476Y-78064905D01*
X253793095Y-77969667D01*
X244070047Y-66437381D02*
X244403381Y-65961190D01*
X244641476Y-66437381D02*
X244641476Y-65437381D01*
X244260523Y-65437381D01*
X244165285Y-65485000D01*
X244117666Y-65532619D01*
X244070047Y-65627857D01*
X244070047Y-65770714D01*
X244117666Y-65865952D01*
X244165285Y-65913571D01*
X244260523Y-65961190D01*
X244641476Y-65961190D01*
X243165285Y-65437381D02*
X243641476Y-65437381D01*
X243689095Y-65913571D01*
X243641476Y-65865952D01*
X243546238Y-65818333D01*
X243308142Y-65818333D01*
X243212904Y-65865952D01*
X243165285Y-65913571D01*
X243117666Y-66008810D01*
X243117666Y-66246905D01*
X243165285Y-66342143D01*
X243212904Y-66389762D01*
X243308142Y-66437381D01*
X243546238Y-66437381D01*
X243641476Y-66389762D01*
X243689095Y-66342143D01*
X242498619Y-65437381D02*
X242403380Y-65437381D01*
X242308142Y-65485000D01*
X242260523Y-65532619D01*
X242212904Y-65627857D01*
X242165285Y-65818333D01*
X242165285Y-66056429D01*
X242212904Y-66246905D01*
X242260523Y-66342143D01*
X242308142Y-66389762D01*
X242403380Y-66437381D01*
X242498619Y-66437381D01*
X242593857Y-66389762D01*
X242641476Y-66342143D01*
X242689095Y-66246905D01*
X242736714Y-66056429D01*
X242736714Y-65818333D01*
X242689095Y-65627857D01*
X242641476Y-65532619D01*
X242593857Y-65485000D01*
X242498619Y-65437381D01*
X241784333Y-65532619D02*
X241736714Y-65485000D01*
X241641476Y-65437381D01*
X241403380Y-65437381D01*
X241308142Y-65485000D01*
X241260523Y-65532619D01*
X241212904Y-65627857D01*
X241212904Y-65723095D01*
X241260523Y-65865952D01*
X241831952Y-66437381D01*
X241212904Y-66437381D01*
X244070047Y-65404381D02*
X244403381Y-64928190D01*
X244641476Y-65404381D02*
X244641476Y-64404381D01*
X244260523Y-64404381D01*
X244165285Y-64452000D01*
X244117666Y-64499619D01*
X244070047Y-64594857D01*
X244070047Y-64737714D01*
X244117666Y-64832952D01*
X244165285Y-64880571D01*
X244260523Y-64928190D01*
X244641476Y-64928190D01*
X243165285Y-64404381D02*
X243641476Y-64404381D01*
X243689095Y-64880571D01*
X243641476Y-64832952D01*
X243546238Y-64785333D01*
X243308142Y-64785333D01*
X243212904Y-64832952D01*
X243165285Y-64880571D01*
X243117666Y-64975810D01*
X243117666Y-65213905D01*
X243165285Y-65309143D01*
X243212904Y-65356762D01*
X243308142Y-65404381D01*
X243546238Y-65404381D01*
X243641476Y-65356762D01*
X243689095Y-65309143D01*
X242498619Y-64404381D02*
X242403380Y-64404381D01*
X242308142Y-64452000D01*
X242260523Y-64499619D01*
X242212904Y-64594857D01*
X242165285Y-64785333D01*
X242165285Y-65023429D01*
X242212904Y-65213905D01*
X242260523Y-65309143D01*
X242308142Y-65356762D01*
X242403380Y-65404381D01*
X242498619Y-65404381D01*
X242593857Y-65356762D01*
X242641476Y-65309143D01*
X242689095Y-65213905D01*
X242736714Y-65023429D01*
X242736714Y-64785333D01*
X242689095Y-64594857D01*
X242641476Y-64499619D01*
X242593857Y-64452000D01*
X242498619Y-64404381D01*
X241831952Y-64404381D02*
X241212904Y-64404381D01*
X241546238Y-64785333D01*
X241403380Y-64785333D01*
X241308142Y-64832952D01*
X241260523Y-64880571D01*
X241212904Y-64975810D01*
X241212904Y-65213905D01*
X241260523Y-65309143D01*
X241308142Y-65356762D01*
X241403380Y-65404381D01*
X241689095Y-65404381D01*
X241784333Y-65356762D01*
X241831952Y-65309143D01*
X168029047Y-115950381D02*
X168362381Y-115474190D01*
X168600476Y-115950381D02*
X168600476Y-114950381D01*
X168219523Y-114950381D01*
X168124285Y-114998000D01*
X168076666Y-115045619D01*
X168029047Y-115140857D01*
X168029047Y-115283714D01*
X168076666Y-115378952D01*
X168124285Y-115426571D01*
X168219523Y-115474190D01*
X168600476Y-115474190D01*
X167648095Y-115045619D02*
X167600476Y-114998000D01*
X167505238Y-114950381D01*
X167267142Y-114950381D01*
X167171904Y-114998000D01*
X167124285Y-115045619D01*
X167076666Y-115140857D01*
X167076666Y-115236095D01*
X167124285Y-115378952D01*
X167695714Y-115950381D01*
X167076666Y-115950381D01*
X166695714Y-115045619D02*
X166648095Y-114998000D01*
X166552857Y-114950381D01*
X166314761Y-114950381D01*
X166219523Y-114998000D01*
X166171904Y-115045619D01*
X166124285Y-115140857D01*
X166124285Y-115236095D01*
X166171904Y-115378952D01*
X166743333Y-115950381D01*
X166124285Y-115950381D01*
X165219523Y-114950381D02*
X165695714Y-114950381D01*
X165743333Y-115426571D01*
X165695714Y-115378952D01*
X165600476Y-115331333D01*
X165362380Y-115331333D01*
X165267142Y-115378952D01*
X165219523Y-115426571D01*
X165171904Y-115521810D01*
X165171904Y-115759905D01*
X165219523Y-115855143D01*
X165267142Y-115902762D01*
X165362380Y-115950381D01*
X165600476Y-115950381D01*
X165695714Y-115902762D01*
X165743333Y-115855143D01*
M02*
