M48
;DRILL file {KiCad 4.0.7} date 05/05/18 03:19:23
;FORMAT={-:-/ absolute / inch / decimal}
FMAT,2
INCH,TZ
T1C0.016
T2C0.030
T3C0.031
T4C0.032
T5C0.033
T6C0.039
T7C0.040
T8C0.043
T9C0.051
T10C0.060
%
G90
G05
M72
T1
X1.54Y-4.613
X1.608Y-4.68
X1.63Y-9.1375
X1.679Y-4.747
X1.72Y-8.985
X1.82Y-6.625
X1.82Y-6.67
X1.906Y-9.253
X1.98Y-8.35
X2.0375Y-4.55
X2.585Y-6.625
X2.585Y-6.67
X2.74Y-3.095
X2.94Y-3.285
X3.04Y-2.71
X3.1055Y-4.55
X3.24Y-8.63
X3.25Y-5.08
X3.2513Y-5.455
X3.255Y-2.4
X3.3Y-8.6
X3.355Y-8.31
X3.38Y-3.295
X3.38Y-3.695
X3.385Y-8.605
X3.42Y-8.34
X3.44Y-8.59
X3.46Y-8.37
X3.49Y-2.56
X3.49Y-2.725
X3.525Y-8.295
X3.5501Y-9.2534
X3.62Y-8.985
X3.645Y-8.18
X3.675Y-8.01
X3.79Y-2.715
X3.79Y-2.185
X3.86Y-2.765
X3.89Y-3.64
X3.89Y-3.92
X3.92Y-3.64
X3.92Y-3.92
X3.93Y-2.205
X3.95Y-3.64
X3.95Y-3.92
X4.06Y-2.68
X4.115Y-3.485
X4.115Y-3.92
X4.15Y-7.7325
X4.3709Y-9.2534
X4.45Y-7.1
X4.46Y-2.745
X4.48Y-3.585
X4.485Y-1.96
X4.63Y-4.55
X4.68Y-8.03
X4.7464Y-5.525
X4.8Y-3.905
X4.82Y-2.58
X4.82Y-2.63
X4.82Y-2.68
X4.87Y-3.5925
X4.87Y-2.525
X4.925Y-2.5275
X4.925Y-3.5925
X4.9883Y-6.5717
X5.13Y-2.63
X5.13Y-2.68
X5.13Y-2.58
X5.3675Y-2.295
X5.3675Y-2.5125
X5.43Y-6.94
X5.45Y-7.9898
X5.475Y-7.75
X5.705Y-4.55
X5.765Y-3.62
X5.86Y-5.795
X5.865Y-6.495
X5.905Y-6.67
X5.955Y-7.64
X5.995Y-8.5596
X6.0124Y-9.2534
X6.045Y-3.905
X6.11Y-5.2375
X6.11Y-5.425
X6.18Y-8.375
X6.27Y-8.37
X6.2854Y-6.0846
X6.385Y-6.665
X6.425Y-5.335
X6.545Y-8.57
X6.745Y-7.705
X6.745Y-7.91
X6.83Y-6.74
X6.83Y-6.5175
X6.8332Y-9.2534
X6.865Y-4.6125
X6.91Y-2.77
X6.915Y-2.505
X6.92Y-6.585
X6.995Y-2.77
X7.01Y-2.505
X7.025Y-3.6
X7.0475Y-4.88
X7.1Y-7.59
X7.215Y-4.745
X7.25Y-4.68
X7.3025Y-4.8525
X7.345Y-4.005
X7.35Y-3.905
X7.37Y-3.67
X7.405Y-4.04
X7.42Y-5.16
X7.43Y-3.67
X7.615Y-6.23
X7.7Y-2.105
X7.77Y-2.09
X7.8865Y-3.1055
X7.8865Y-3.6675
X7.91Y-7.885
X7.91Y-7.66
X7.93Y-4.225
X7.94Y-3.88
X7.94Y-3.94
X7.94Y-3.82
X8.03Y-8.045
X8.0517Y-6.85
X8.19Y-8.17
X8.2Y-8.045
X8.32Y-6.125
X8.32Y-6.37
X8.4Y-4.
X8.4Y-7.125
X8.405Y-7.52
X8.4747Y-9.2534
X8.525Y-8.295
X8.59Y-8.13
X8.64Y-5.88
X8.73Y-5.91
X8.73Y-6.085
X8.735Y-6.205
X8.79Y-3.71
X8.83Y-3.76
X8.91Y-4.15
X8.94Y-3.55
X9.02Y-5.96
X9.025Y-6.035
X9.15Y-3.03
X9.2Y-3.16
X9.21Y-3.71
X9.21Y-4.15
X9.225Y-8.325
X9.26Y-3.6
X9.28Y-8.6
X9.2954Y-9.2534
X9.38Y-3.85
X9.42Y-8.14
X9.42Y-8.685
X9.615Y-8.7
X9.6168Y-8.1232
X9.69Y-8.33
X9.74Y-3.16
X9.75Y-6.19
X9.76Y-5.91
X9.765Y-6.39
X9.955Y-6.39
X9.96Y-5.91
X9.98Y-6.2
X10.575Y-4.5635
X10.675Y-3.745
X10.8555Y-4.5635
X10.875Y-3.8872
X10.875Y-4.003
X10.937Y-9.2534
X11.Y-7.415
X11.Y-7.705
X11.125Y-4.68
X11.1275Y-4.7475
X11.385Y-8.29
X11.385Y-8.64
X11.7577Y-9.2534
X11.895Y-8.195
X11.895Y-8.64
X11.895Y-6.545
X11.8955Y-6.915
X12.062Y-4.681
X12.0625Y-4.7475
X12.145Y-4.565
X12.255Y-8.325
X12.4325Y-4.68
X12.433Y-4.747
X13.3775Y-4.68
X13.378Y-4.747
X13.3925Y-4.6125
X13.3992Y-9.2534
X13.7125Y-4.6825
X13.74Y-4.7475
X14.22Y-9.2534
T2
X1.75Y-7.95
X1.85Y-4.95
X1.85Y-7.95
X1.95Y-7.95
X2.05Y-4.95
X2.05Y-7.95
X3.05Y-7.95
X3.15Y-4.95
X3.15Y-7.95
X3.25Y-7.95
X3.35Y-4.95
X3.35Y-7.95
X4.35Y-7.95
X4.45Y-4.95
X4.45Y-7.95
X4.55Y-7.95
X4.65Y-4.95
X4.65Y-7.95
X5.65Y-7.95
X5.75Y-4.95
X5.75Y-7.95
X5.85Y-7.95
X5.95Y-4.95
X5.95Y-7.95
X6.9Y-7.95
X7.Y-4.95
X7.Y-7.95
X7.1Y-7.95
X7.2Y-4.95
X7.2Y-7.95
X8.2Y-7.95
X8.3Y-4.95
X8.3Y-7.95
X8.4Y-7.95
X8.5Y-4.95
X8.5Y-7.95
X9.5Y-7.95
X9.6Y-4.95
X9.6Y-7.95
X9.7Y-7.95
X9.8Y-4.95
X9.8Y-7.95
X10.8Y-7.95
X10.9Y-4.95
X10.9Y-7.95
X11.Y-7.95
X11.1Y-4.95
X11.1Y-7.95
X12.1Y-7.95
X12.2Y-4.95
X12.2Y-7.95
X12.3Y-7.95
X12.4Y-4.95
X12.4Y-7.95
X13.4Y-7.95
X13.5Y-4.95
X13.5Y-7.95
X13.6Y-7.95
X13.7Y-4.95
X13.7Y-7.95
T3
X2.45Y-8.35
X2.45Y-8.65
X2.55Y-8.35
X2.55Y-8.65
X2.64Y-2.2
X2.64Y-2.5
X2.65Y-8.35
X2.65Y-8.65
X2.74Y-2.2
X2.74Y-2.5
X2.75Y-8.35
X2.75Y-8.65
X2.84Y-2.2
X2.84Y-2.5
X2.85Y-8.35
X2.85Y-8.65
X2.94Y-2.2
X2.94Y-2.5
X2.95Y-8.35
X2.95Y-8.65
X3.04Y-2.2
X3.04Y-2.5
X3.05Y-8.35
X3.05Y-8.65
X3.14Y-2.2
X3.14Y-2.5
X3.15Y-8.35
X3.15Y-8.65
X3.24Y-2.2
X3.24Y-2.5
X3.34Y-2.2
X3.34Y-2.5
X3.75Y-8.35
X3.75Y-8.65
X3.85Y-8.35
X3.85Y-8.65
X3.95Y-8.35
X3.95Y-8.65
X4.05Y-8.35
X4.05Y-8.65
X4.06Y-2.2
X4.06Y-2.5
X4.15Y-8.35
X4.15Y-8.65
X4.16Y-2.2
X4.16Y-2.5
X4.25Y-8.35
X4.25Y-8.65
X4.26Y-2.2
X4.26Y-2.5
X4.35Y-8.35
X4.35Y-8.65
X4.36Y-2.2
X4.36Y-2.5
X4.45Y-8.35
X4.45Y-8.65
X4.46Y-2.2
X4.46Y-2.5
X4.56Y-2.2
X4.56Y-2.5
X4.66Y-2.2
X4.66Y-2.5
X4.76Y-2.2
X4.76Y-2.5
X5.05Y-8.35
X5.05Y-8.65
X5.15Y-8.35
X5.15Y-8.65
X5.25Y-8.35
X5.25Y-8.65
X5.35Y-8.35
X5.35Y-8.65
X5.45Y-8.35
X5.45Y-8.65
X5.55Y-8.35
X5.55Y-8.65
X5.65Y-8.35
X5.65Y-8.65
X5.75Y-8.35
X5.75Y-8.65
X6.35Y-8.35
X6.35Y-8.65
X6.45Y-8.35
X6.45Y-8.65
X6.55Y-8.35
X6.55Y-8.65
X6.65Y-8.35
X6.65Y-8.65
X6.75Y-8.35
X6.75Y-8.65
X6.85Y-8.35
X6.85Y-8.65
X6.95Y-8.35
X6.95Y-8.65
X7.05Y-8.35
X7.05Y-8.65
X7.6Y-8.35
X7.6Y-8.65
X7.7Y-8.35
X7.7Y-8.65
X7.8Y-8.35
X7.8Y-8.65
X7.9Y-8.35
X7.9Y-8.65
X8.Y-8.35
X8.Y-8.65
X8.1Y-8.35
X8.1Y-8.65
X8.2Y-8.35
X8.2Y-8.65
X8.3Y-8.35
X8.3Y-8.65
X8.88Y-5.78
X8.88Y-5.88
X8.88Y-5.98
X8.88Y-6.08
X8.88Y-6.18
X8.88Y-6.28
X8.88Y-6.38
X8.88Y-6.48
X9.18Y-5.78
X9.18Y-5.88
X9.18Y-5.98
X9.18Y-6.08
X9.18Y-6.18
X9.18Y-6.28
X9.18Y-6.38
X9.18Y-6.48
X9.49Y-2.25
X9.5884Y-2.25
X9.8Y-2.52
X9.8Y-2.62
X9.8Y-8.35
X9.8Y-8.65
X9.9Y-8.35
X9.9Y-8.65
X10.Y-8.35
X10.Y-8.65
X10.1Y-2.52
X10.1Y-2.62
X10.1Y-8.35
X10.1Y-8.65
X10.2Y-8.35
X10.2Y-8.65
X10.3Y-8.35
X10.3Y-8.65
X10.4Y-8.35
X10.4Y-8.65
X10.5Y-8.35
X10.5Y-8.65
X11.0116Y-4.26
X11.11Y-4.26
X12.4Y-8.35
X12.4Y-8.65
X12.5Y-8.35
X12.5Y-8.65
X12.6Y-8.35
X12.6Y-8.65
X12.7Y-8.35
X12.7Y-8.65
X12.8Y-8.35
X12.8Y-8.65
X12.9Y-8.35
X12.9Y-8.65
X13.Y-8.35
X13.Y-8.65
X13.1Y-8.35
X13.1Y-8.65
T4
X8.4731Y-2.85
X8.4731Y-3.3421
X8.67Y-2.85
X8.67Y-3.3421
T5
X2.4516Y-4.7319
X2.4516Y-4.9681
X2.4516Y-5.1819
X2.4516Y-5.4181
X2.4516Y-5.6319
X2.4516Y-5.8681
X2.4516Y-6.0819
X2.4516Y-6.3181
X2.4516Y-6.5319
X2.4516Y-6.7681
X2.4516Y-6.9819
X2.4516Y-7.2181
X2.4516Y-7.4319
X2.4516Y-7.6681
X2.4516Y-7.8819
X2.4516Y-8.1181
X2.55Y-4.7319
X2.55Y-4.9681
X2.55Y-5.1819
X2.55Y-5.4181
X2.55Y-5.6319
X2.55Y-5.8681
X2.55Y-6.0819
X2.55Y-6.3181
X2.55Y-6.5319
X2.55Y-6.7681
X2.55Y-6.9819
X2.55Y-7.2181
X2.55Y-7.4319
X2.55Y-7.6681
X2.55Y-7.8819
X2.55Y-8.1181
X2.6484Y-4.7319
X2.6484Y-4.9681
X2.6484Y-5.1819
X2.6484Y-5.4181
X2.6484Y-5.6319
X2.6484Y-5.8681
X2.6484Y-6.0819
X2.6484Y-6.3181
X2.6484Y-6.5319
X2.6484Y-6.7681
X2.6484Y-6.9819
X2.6484Y-7.2181
X2.6484Y-7.4319
X2.6484Y-7.6681
X2.6484Y-7.8819
X2.6484Y-8.1181
X3.7516Y-4.7319
X3.7516Y-4.9681
X3.7516Y-5.1819
X3.7516Y-5.4181
X3.7516Y-5.6319
X3.7516Y-5.8681
X3.7516Y-6.0819
X3.7516Y-6.3181
X3.7516Y-6.5319
X3.7516Y-6.7681
X3.7516Y-6.9819
X3.7516Y-7.2181
X3.7516Y-7.4319
X3.7516Y-7.6681
X3.7516Y-7.8819
X3.7516Y-8.1181
X3.85Y-4.7319
X3.85Y-4.9681
X3.85Y-5.1819
X3.85Y-5.4181
X3.85Y-5.6319
X3.85Y-5.8681
X3.85Y-6.0819
X3.85Y-6.3181
X3.85Y-6.5319
X3.85Y-6.7681
X3.85Y-6.9819
X3.85Y-7.2181
X3.85Y-7.4319
X3.85Y-7.6681
X3.85Y-7.8819
X3.85Y-8.1181
X3.9484Y-4.7319
X3.9484Y-4.9681
X3.9484Y-5.1819
X3.9484Y-5.4181
X3.9484Y-5.6319
X3.9484Y-5.8681
X3.9484Y-6.0819
X3.9484Y-6.3181
X3.9484Y-6.5319
X3.9484Y-6.7681
X3.9484Y-6.9819
X3.9484Y-7.2181
X3.9484Y-7.4319
X3.9484Y-7.6681
X3.9484Y-7.8819
X3.9484Y-8.1181
X5.0516Y-4.7319
X5.0516Y-4.9681
X5.0516Y-5.1819
X5.0516Y-5.4181
X5.0516Y-5.6319
X5.0516Y-5.8681
X5.0516Y-6.0819
X5.0516Y-6.3181
X5.0516Y-6.5319
X5.0516Y-6.7681
X5.0516Y-6.9819
X5.0516Y-7.2181
X5.0516Y-7.4319
X5.0516Y-7.6681
X5.0516Y-7.8819
X5.0516Y-8.1181
X5.15Y-4.7319
X5.15Y-4.9681
X5.15Y-5.1819
X5.15Y-5.4181
X5.15Y-5.6319
X5.15Y-5.8681
X5.15Y-6.0819
X5.15Y-6.3181
X5.15Y-6.5319
X5.15Y-6.7681
X5.15Y-6.9819
X5.15Y-7.2181
X5.15Y-7.4319
X5.15Y-7.6681
X5.15Y-7.8819
X5.15Y-8.1181
X5.2484Y-4.7319
X5.2484Y-4.9681
X5.2484Y-5.1819
X5.2484Y-5.4181
X5.2484Y-5.6319
X5.2484Y-5.8681
X5.2484Y-6.0819
X5.2484Y-6.3181
X5.2484Y-6.5319
X5.2484Y-6.7681
X5.2484Y-6.9819
X5.2484Y-7.2181
X5.2484Y-7.4319
X5.2484Y-7.6681
X5.2484Y-7.8819
X5.2484Y-8.1181
X6.3516Y-4.7319
X6.3516Y-4.9681
X6.3516Y-5.1819
X6.3516Y-5.4181
X6.3516Y-5.6319
X6.3516Y-5.8681
X6.3516Y-6.0819
X6.3516Y-6.3181
X6.3516Y-6.5319
X6.3516Y-6.7681
X6.3516Y-6.9819
X6.3516Y-7.2181
X6.3516Y-7.4319
X6.3516Y-7.6681
X6.3516Y-7.8819
X6.3516Y-8.1181
X6.45Y-4.7319
X6.45Y-4.9681
X6.45Y-5.1819
X6.45Y-5.4181
X6.45Y-5.6319
X6.45Y-5.8681
X6.45Y-6.0819
X6.45Y-6.3181
X6.45Y-6.5319
X6.45Y-6.7681
X6.45Y-6.9819
X6.45Y-7.2181
X6.45Y-7.4319
X6.45Y-7.6681
X6.45Y-7.8819
X6.45Y-8.1181
X6.5484Y-4.7319
X6.5484Y-4.9681
X6.5484Y-5.1819
X6.5484Y-5.4181
X6.5484Y-5.6319
X6.5484Y-5.8681
X6.5484Y-6.0819
X6.5484Y-6.3181
X6.5484Y-6.5319
X6.5484Y-6.7681
X6.5484Y-6.9819
X6.5484Y-7.2181
X6.5484Y-7.4319
X6.5484Y-7.6681
X6.5484Y-7.8819
X6.5484Y-8.1181
X7.6016Y-4.7319
X7.6016Y-4.9681
X7.6016Y-5.1819
X7.6016Y-5.4181
X7.6016Y-5.6319
X7.6016Y-5.8681
X7.6016Y-6.0819
X7.6016Y-6.3181
X7.6016Y-6.5319
X7.6016Y-6.7681
X7.6016Y-6.9819
X7.6016Y-7.2181
X7.6016Y-7.4319
X7.6016Y-7.6681
X7.6016Y-7.8819
X7.6016Y-8.1181
X7.7Y-4.7319
X7.7Y-4.9681
X7.7Y-5.1819
X7.7Y-5.4181
X7.7Y-5.6319
X7.7Y-5.8681
X7.7Y-6.0819
X7.7Y-6.3181
X7.7Y-6.5319
X7.7Y-6.7681
X7.7Y-6.9819
X7.7Y-7.2181
X7.7Y-7.4319
X7.7Y-7.6681
X7.7Y-7.8819
X7.7Y-8.1181
X7.7984Y-4.7319
X7.7984Y-4.9681
X7.7984Y-5.1819
X7.7984Y-5.4181
X7.7984Y-5.6319
X7.7984Y-5.8681
X7.7984Y-6.0819
X7.7984Y-6.3181
X7.7984Y-6.5319
X7.7984Y-6.7681
X7.7984Y-6.9819
X7.7984Y-7.2181
X7.7984Y-7.4319
X7.7984Y-7.6681
X7.7984Y-7.8819
X7.7984Y-8.1181
X8.9016Y-6.9819
X8.9016Y-7.2181
X8.9016Y-7.4319
X8.9016Y-7.6681
X8.9016Y-7.8819
X8.9016Y-8.1181
X9.Y-6.9819
X9.Y-7.2181
X9.Y-7.4319
X9.Y-7.6681
X9.Y-7.8819
X9.Y-8.1181
X9.0984Y-6.9819
X9.0984Y-7.2181
X9.0984Y-7.4319
X9.0984Y-7.6681
X9.0984Y-7.8819
X9.0984Y-8.1181
X10.2016Y-6.9819
X10.2016Y-7.2181
X10.2016Y-7.4319
X10.2016Y-7.6681
X10.2016Y-7.8819
X10.2016Y-8.1181
X10.3Y-6.9819
X10.3Y-7.2181
X10.3Y-7.4319
X10.3Y-7.6681
X10.3Y-7.8819
X10.3Y-8.1181
X10.3984Y-6.9819
X10.3984Y-7.2181
X10.3984Y-7.4319
X10.3984Y-7.6681
X10.3984Y-7.8819
X10.3984Y-8.1181
X11.5016Y-6.9819
X11.5016Y-7.2181
X11.5016Y-7.4319
X11.5016Y-7.6681
X11.5016Y-7.8819
X11.5016Y-8.1181
X11.6Y-6.9819
X11.6Y-7.2181
X11.6Y-7.4319
X11.6Y-7.6681
X11.6Y-7.8819
X11.6Y-8.1181
X11.6984Y-6.9819
X11.6984Y-7.2181
X11.6984Y-7.4319
X11.6984Y-7.6681
X11.6984Y-7.8819
X11.6984Y-8.1181
X12.8016Y-6.9819
X12.8016Y-7.2181
X12.8016Y-7.4319
X12.8016Y-7.6681
X12.8016Y-7.8819
X12.8016Y-8.1181
X12.9Y-6.9819
X12.9Y-7.2181
X12.9Y-7.4319
X12.9Y-7.6681
X12.9Y-7.8819
X12.9Y-8.1181
X12.9984Y-6.9819
X12.9984Y-7.2181
X12.9984Y-7.4319
X12.9984Y-7.6681
X12.9984Y-7.8819
X12.9984Y-8.1181
X14.1016Y-6.9819
X14.1016Y-7.2181
X14.1016Y-7.4319
X14.1016Y-7.6681
X14.1016Y-7.8819
X14.1016Y-8.1181
X14.2Y-6.9819
X14.2Y-7.2181
X14.2Y-7.4319
X14.2Y-7.6681
X14.2Y-7.8819
X14.2Y-8.1181
X14.2984Y-6.9819
X14.2984Y-7.2181
X14.2984Y-7.4319
X14.2984Y-7.6681
X14.2984Y-7.8819
X14.2984Y-8.1181
T6
X9.275Y-2.8
X9.375Y-2.8
X9.475Y-2.8
X9.575Y-2.8
X9.675Y-2.8
X9.875Y-2.8
X9.975Y-2.8
X10.07Y-4.255
X10.075Y-2.8
X10.1Y-2.15
X10.1Y-2.25
X10.17Y-4.255
X10.27Y-4.255
X10.275Y-2.8
X10.37Y-4.255
X10.375Y-2.8
X10.47Y-4.255
X10.575Y-4.255
X10.675Y-4.255
X10.775Y-4.255
T7
X8.8751Y-3.3451
X8.8751Y-3.9451
X8.9751Y-3.3451
X8.9751Y-3.9451
X9.0751Y-3.3451
X9.0751Y-3.9451
X9.1751Y-3.3451
X9.1751Y-3.9451
X9.2751Y-3.3451
X9.2751Y-3.9451
X9.3751Y-3.3451
X9.3751Y-3.9451
X9.4751Y-3.3451
X9.4751Y-3.9451
X9.5751Y-3.3451
X9.5751Y-3.9451
X9.6751Y-3.3451
X9.6751Y-3.9451
X9.7751Y-3.3451
X9.7751Y-3.9451
X9.8751Y-3.3451
X9.8751Y-3.9451
X9.9751Y-3.3451
X9.9751Y-3.9451
X10.0751Y-3.3451
X10.0751Y-3.9451
X10.1751Y-3.3451
X10.1751Y-3.9451
X10.2751Y-3.3451
X10.2751Y-3.9451
X10.3751Y-3.3451
X10.3751Y-3.9451
X10.4751Y-3.3451
X10.4751Y-3.9451
X10.5751Y-3.3451
X10.5751Y-3.9451
X10.6751Y-3.3451
X10.6751Y-3.9451
X10.7751Y-3.3451
X10.7751Y-3.9451
T8
X10.31Y-2.15
X10.31Y-2.65
T9
X2.4Y-3.
X2.4Y-3.1969
X2.4Y-3.3937
X2.4Y-3.9
X2.4Y-4.0969
X2.4Y-4.2937
X3.7Y-3.
X3.7Y-3.1969
X3.7Y-3.3937
X3.7Y-3.9
X3.7Y-4.0969
X3.7Y-4.2937
X5.Y-3.
X5.Y-3.1969
X5.Y-3.3937
X5.Y-3.9
X5.Y-4.0969
X5.Y-4.2937
X6.3Y-2.1
X6.3Y-2.2969
X6.3Y-2.4937
X6.3Y-3.
X6.3Y-3.1969
X6.3Y-3.3937
X6.3Y-3.9
X6.3Y-4.0969
X6.3Y-4.2937
X7.55Y-2.1
X7.55Y-2.2969
X7.55Y-2.4937
X7.55Y-3.
X7.55Y-3.1969
X7.55Y-3.3937
X7.55Y-3.9
X7.55Y-4.0969
X7.55Y-4.2937
T10
X11.35Y-4.26
X11.55Y-4.26
T0
M30
